<?xml version="1.0" encoding="UTF-8"?>
<svg xmlns="http://www.w3.org/2000/svg" viewBox="0 0 1672 941" width="1672" height="941">
  <title>North physical dolly plates</title><desc>Five registered passable planes. Camera stop is Z 6.00; pass order is N40 through N00.</desc>
  <defs><style>.reg{fill:#fff;fill-opacity:.001}.edge{stroke:#10282d;stroke-width:5;stroke-linejoin:round}.guide{stroke:#f7e2a2;stroke-width:2;stroke-dasharray:12 10}.chip{fill:#10282d;stroke:#f7e2a2;stroke-width:2}.label{font-family:Arial,sans-serif;font-weight:700;fill:#fff4c9}.note{font-family:Arial,sans-serif;fill:#fff4c9}</style></defs>
  <g id="N00_FAR_SKY_MOUNTAINS" data-world-z="7.75" data-pass-order="15"><rect class="reg" width="1672" height="941"/><path d="M0 0H1672V144Q1260 102 861 126T0 144Z" fill="#26383d" class="edge"/><g transform="translate(26 25)"><rect class="chip" width="405" height="58" rx="8"/><text class="label" x="16" y="25" font-size="19">N00 · WORLD Z 7.75 · FAR SKY</text><text class="note" x="16" y="47" font-size="14">Dark sky · mountain line · distant snow</text></g></g>
  <g id="N10_SNOW_FOREST" data-world-z="7.40" data-pass-order="14"><rect class="reg" width="1672" height="941"/><path d="M0 102H1672V680Q1260 570 861 654T0 680Z" fill="#b8d9c0" class="edge"/><path d="M0 154Q360 112 700 226M972 218Q1260 112 1672 154M0 420Q360 350 720 500M952 490Q1260 345 1672 420" class="guide"/><g transform="translate(38 248)"><rect class="chip" width="380" height="58" rx="8"/><text class="label" x="16" y="25" font-size="19">N10 · WORLD Z 7.40 · SNOW FOREST</text><text class="note" x="16" y="47" font-size="14">Conifer groups · bare trees · snow shadows</text></g></g>
  <g id="N20_SOUTHERN_VALLEY" data-world-z="7.05" data-pass-order="13"><rect class="reg" width="1672" height="941"/><path d="M0 620Q430 582 861 654T1672 620V830H0Z" fill="#aaa74b" class="edge"/><path d="M70 744Q410 672 760 734M912 734Q1260 668 1600 744" class="guide"/><g transform="translate(40 684)"><rect class="chip" width="440" height="58" rx="8"/><text class="label" x="16" y="25" font-size="19">N20 · WORLD Z 7.05 · SOUTHERN VALLEY</text><text class="note" x="16" y="47" font-size="14">Fields · roads · village · pylons · river</text></g></g>
  <g id="N30_RAILWAY_BOUNDARY" data-world-z="6.70" data-pass-order="12"><rect class="reg" width="1672" height="941"/><path d="M0 706H1672V875H0Z" fill="#9a8d42" class="edge"/><path d="M806 660H870L1010 941H662Z" fill="#d58a42" class="edge"/><path d="M0 790H704M968 790H1672" fill="none" stroke="#10282d" stroke-width="20"/><g transform="translate(1015 726)"><rect class="chip" width="465" height="58" rx="8"/><text class="label" x="16" y="25" font-size="19">N30 · WORLD Z 6.70 · RAILWAY + BOUNDARY</text><text class="note" x="16" y="47" font-size="14">Track · fence · near tree line</text></g></g>
  <g id="N40_FOREGROUND_CROPS" data-world-z="6.35" data-pass-order="11"><rect class="reg" width="1672" height="941"/><path d="M0 782H1672V941H0Z" fill="#8b674a" class="edge"/><path d="M0 806H708L662 941H0ZM964 806H1672V941H1010Z" fill="#b06d53" class="edge"/><path d="M708 782H964L1010 941H662Z" fill="#d8b96d" class="edge"/><g transform="translate(66 842)"><rect class="chip" width="430" height="58" rx="8"/><text class="label" x="16" y="25" font-size="19">N40 · WORLD Z 6.35 · FOREGROUND CROPS</text><text class="note" x="16" y="47" font-size="14">Nearest wheat · sunflowers · crop fence</text></g></g>
  <g id="NORTH_DOLLY_GUIDES"><path d="M861 0V941" class="guide"/><circle cx="861" cy="105" r="9" fill="#f7e2a2"/></g>
</svg>
