<svg xmlns="http://www.w3.org/2000/svg" width="1644" height="2244" viewBox="0 0 1644 2244">
  <rect width="1644" height="2244" fill="#f6edcf"/>

  <path fill="#ff00ff"
        d="M970 116 H1440 L1492 168 V752
           C1460 615 1370 492 1210 366
           C1145 315 1112 282 1107 224
           C1102 160 1055 116 970 116 Z"/>
  <path fill="#ff00ff" transform="rotate(180 822 1122)"
        d="M970 116 H1440 L1492 168 V752
           C1460 615 1370 492 1210 366
           C1145 315 1112 282 1107 224
           C1102 160 1055 116 970 116 Z"/>

  <g fill="none" stroke="#33434a" stroke-linejoin="miter">
    <path d="M176 88 H1460 L1520 148 V2096 L1460 2156 H184 L124 2096 V148 Z"
          stroke-width="15"/>
    <path d="M204 116 H1440 L1492 168 V2076 L1440 2128 H204 L152 2076 V168 Z"
          stroke-width="9"/>

    <path d="M970 116
             C1055 116 1102 160 1107 224
             C1112 282 1145 315 1210 366
             C1370 492 1460 615 1492 752" stroke-width="9"/>
    <path d="M970 116
             C1055 116 1102 160 1107 224
             C1112 282 1145 315 1210 366
             C1370 492 1460 615 1492 752"
          stroke-width="9" transform="rotate(180 822 1122)"/>
  </g>
</svg>
