<?xml version="1.0" encoding="UTF-8" standalone="no"?>

<!-- http://code.google.com/p/vector-playing-cards/ -->

<svg
   xmlns:dc="http://purl.org/dc/elements/1.1/"
   xmlns:cc="http://creativecommons.org/ns#"
   xmlns:rdf="http://www.w3.org/1999/02/22-rdf-syntax-ns#"
   xmlns:svg="http://www.w3.org/2000/svg"
   xmlns="http://www.w3.org/2000/svg"
   xmlns:xlink="http://www.w3.org/1999/xlink"
   xmlns:sodipodi="http://sodipodi.sourceforge.net/DTD/sodipodi-0.dtd"
   xmlns:inkscape="http://www.inkscape.org/namespaces/inkscape"
   width="167.0869141pt"
   height="242.6669922pt"
   viewBox="0 0 167.0869141 242.6669922"
   xml:space="preserve"
   id="svg2"
   version="1.1"
   inkscape:version="0.48.0 r9654"
   sodipodi:docname="A_of_clubs.svg"
   inkscape:export-filename="/home/byron/art/cards/final/PNGs/A_of_clubs.png"
   inkscape:export-xdpi="215.44792"
   inkscape:export-ydpi="215.44792"><metadata
   id="metadata43"><rdf:RDF><cc:Work
       rdf:about=""><dc:format>image/svg+xml</dc:format><dc:type
         rdf:resource="http://purl.org/dc/dcmitype/StillImage" /><dc:title></dc:title></cc:Work></rdf:RDF></metadata><defs
   id="defs41"><radialGradient
     inkscape:collect="always"
     xlink:href="#linearGradient2984"
     id="radialGradient3760"
     cx="48.231091"
     cy="18.137882"
     fx="48.231091"
     fy="18.137882"
     r="9.5"
     gradientUnits="userSpaceOnUse"
     gradientTransform="matrix(-1.5605256,0.01828294,-0.02684055,-2.2909528,123.98377,58.809108)" /><linearGradient
     id="linearGradient2984"><stop
       style="stop-color:#000000;stop-opacity:1;"
       offset="0"
       id="stop2986" /><stop
       style="stop-color:#000000;stop-opacity:0.65648854;"
       offset="1"
       id="stop2988" /></linearGradient><radialGradient
     inkscape:collect="always"
     xlink:href="#linearGradient3784"
     id="radialGradient3792"
     cx="171.48665"
     cy="511.22299"
     fx="171.48665"
     fy="511.22299"
     r="81.902771"
     gradientTransform="matrix(1.1529891,-0.67391547,0.39482025,0.67549043,-233.63262,270.40076)"
     gradientUnits="userSpaceOnUse" /><linearGradient
     id="linearGradient3784"><stop
       style="stop-color:#ffffff;stop-opacity:0.53435117;"
       offset="0"
       id="stop3786" /><stop
       style="stop-color:#000000;stop-opacity:0;"
       offset="1"
       id="stop3788" /></linearGradient><filter
     color-interpolation-filters="sRGB"
     inkscape:collect="always"
     id="filter3834"
     x="-0.13934441"
     width="1.2786888"
     y="-0.16242018"
     height="1.3248404"><feGaussianBlur
       inkscape:collect="always"
       stdDeviation="9.5105772"
       id="feGaussianBlur3836" /></filter><radialGradient
     r="81.902771"
     fy="511.22299"
     fx="171.48665"
     cy="511.22299"
     cx="171.48665"
     gradientTransform="matrix(1.1529891,-0.67391547,0.39482025,0.67549043,-233.63262,270.40076)"
     gradientUnits="userSpaceOnUse"
     id="radialGradient3855"
     xlink:href="#linearGradient3784-4"
     inkscape:collect="always" /><linearGradient
     id="linearGradient3784-4"><stop
       style="stop-color:#ffffff;stop-opacity:0.51908398;"
       offset="0"
       id="stop3786-8" /><stop
       style="stop-color:#000000;stop-opacity:0;"
       offset="1"
       id="stop3788-6" /></linearGradient><filter
     color-interpolation-filters="sRGB"
     inkscape:collect="always"
     id="filter3834-6"
     x="-0.13934441"
     width="1.2786888"
     y="-0.16242018"
     height="1.3248404"><feGaussianBlur
       inkscape:collect="always"
       stdDeviation="9.5105772"
       id="feGaussianBlur3836-6" /></filter><radialGradient
     r="81.902771"
     fy="461.84113"
     fx="181.69392"
     cy="461.84113"
     cx="181.69392"
     gradientTransform="matrix(1.1529891,-0.67391547,0.39482025,0.67549043,-233.63262,270.40076)"
     gradientUnits="userSpaceOnUse"
     id="radialGradient3916"
     xlink:href="#linearGradient3784-3"
     inkscape:collect="always" /><linearGradient
     id="linearGradient3784-3"><stop
       style="stop-color:#ffffff;stop-opacity:0.70229006;"
       offset="0"
       id="stop3786-86" /><stop
       style="stop-color:#000000;stop-opacity:0;"
       offset="1"
       id="stop3788-2" /></linearGradient><filter
     color-interpolation-filters="sRGB"
     inkscape:collect="always"
     id="filter3834-7"
     x="-0.13934441"
     width="1.2786888"
     y="-0.16242018"
     height="1.3248404"><feGaussianBlur
       inkscape:collect="always"
       stdDeviation="9.5105772"
       id="feGaussianBlur3836-0" /></filter></defs><sodipodi:namedview
   pagecolor="#ffffff"
   bordercolor="#666666"
   borderopacity="1"
   objecttolerance="10"
   gridtolerance="10"
   guidetolerance="10"
   inkscape:pageopacity="0"
   inkscape:pageshadow="2"
   inkscape:window-width="1680"
   inkscape:window-height="977"
   id="namedview39"
   showgrid="false"
   inkscape:zoom="2.4336873"
   inkscape:cx="188.71531"
   inkscape:cy="148.16686"
   inkscape:window-x="0"
   inkscape:window-y="25"
   inkscape:window-maximized="1"
   inkscape:current-layer="svg2" />
	<g
   id="Layer_x0020_1"
   style="fill-rule:nonzero;clip-rule:nonzero;stroke:#000000;stroke-miterlimit:4;">
		<path
   style="fill:#FFFFFF;stroke-width:0.5;"
   d="M166.8369141,235.5478516c0,3.7773438-3.0869141,6.8691406-6.8710938,6.8691406H7.1108398c-3.7749023,0-6.8608398-3.0917969-6.8608398-6.8691406V7.1201172C0.25,3.3427734,3.3359375,0.25,7.1108398,0.25h152.8549805    c3.7841797,0,6.8710938,3.0927734,6.8710938,6.8701172v228.4277344z"
   id="path5" />
		<g
   style="stroke:none;"
   id="g7">
			<g
   id="g9">
				
			</g>
			
		</g>
		<g
   id="g15">
			
		</g>
		<g
   id="g19">
			
		</g>
		<g
   style="stroke:none;"
   id="g23">
			<g
   id="g25">
				
			</g>
			
		</g>
		<g
   style="stroke:none;"
   id="g31">
			<g
   id="g33">
				
			</g>
			
		</g>
	</g>
<text
   xml:space="preserve"
   style="font-size:32px;font-style:normal;font-weight:normal;line-height:125%;letter-spacing:0px;word-spacing:0px;fill:#000000;fill-opacity:1;stroke:none;font-family:'Oswald', sans-serif"
   x="6.7105455"
   y="27.548409"
   id="text3788"
   sodipodi:linespacing="125%"><tspan
     sodipodi:role="line"
     id="tspan3790"
     x="6.7105455"
     y="27.548409"
     style="font-style:normal;font-variant:normal;font-weight:normal;font-stretch:normal;font-family:'Oswald', sans-serif;-inkscape-font-specification:'Oswald'">A</tspan></text>


<g
   transform="matrix(0.20614599,0,0,0.20614599,8.8705463,16.512759)"
   id="g3804"><g
     id="layer1-1"
     transform="matrix(28.969925,0,0,28.969925,-1031.5368,-187.37665)"><path
       style="fill:url(#radialGradient3760);fill-opacity:1"
       inkscape:connector-curvature="0"
       d="
      M 50.291466,20.098228 A 2.6,2.6 0 1,1 50.291466,25.298228 A 2.6,2.6 0 1,1 50.291466,20.098228 z
      M 50.291466,15.548228 A 0.98,1.63 0 1,1 50.291466,18.798228 A 0.98,1.63 0 1,1 50.291466,15.548228 z
      M 53.541466,16.518228 A 0.98,1.63 45 1,1 54.841466,18.148228 A 0.98,1.63 45 1,1 53.541466,16.518228 z
      M 56.141466,21.398228 A 1.63,0.98 0 1,1 56.141466,23.998228 A 1.63,0.98 0 1,1 56.141466,21.398228 z
      M 53.541466,27.248228 A 0.98,1.63 -45 1,1 54.841466,28.878228 A 0.98,1.63 -45 1,1 53.541466,27.248228 z
      M 50.291466,26.598228 A 0.98,1.63 0 1,1 50.291466,29.848228 A 0.98,1.63 0 1,1 50.291466,26.598228 z
      M 45.741466,27.248228 A 0.98,1.63 45 1,1 47.041466,28.878228 A 0.98,1.63 45 1,1 45.741466,27.248228 z
      M 44.441466,21.398228 A 1.63,0.98 0 1,1 44.441466,23.998228 A 1.63,0.98 0 1,1 44.441466,21.398228 z
      M 45.741466,16.518228 A 0.98,1.63 -45 1,1 47.041466,18.148228 A 0.98,1.63 -45 1,1 45.741466,16.518228 z"
       id="cl" /></g><path
     transform="matrix(1.1091261,0,0,1.2071687,-37.349149,-111.34227)"
     sodipodi:nodetypes="cscsc"
     inkscape:connector-curvature="0"
     id="path3762"
     d="
      M 117.3013,601.6660899999999 A 2.6,2.6 0 1,1 117.3013,606.86609 A 2.6,2.6 0 1,1 117.3013,601.6660899999999 z
      M 117.3013,597.11609 A 0.98,1.63 0 1,1 117.3013,600.36609 A 0.98,1.63 0 1,1 117.3013,597.11609 z
      M 120.5513,598.08609 A 0.98,1.63 45 1,1 121.8513,599.71609 A 0.98,1.63 45 1,1 120.5513,598.08609 z
      M 123.15129999999999,602.96609 A 1.63,0.98 0 1,1 123.15129999999999,605.5660899999999 A 1.63,0.98 0 1,1 123.15129999999999,602.96609 z
      M 120.5513,608.8160899999999 A 0.98,1.63 -45 1,1 121.8513,610.4460899999999 A 0.98,1.63 -45 1,1 120.5513,608.8160899999999 z
      M 117.3013,608.1660899999999 A 0.98,1.63 0 1,1 117.3013,611.4160899999999 A 0.98,1.63 0 1,1 117.3013,608.1660899999999 z
      M 112.7513,608.8160899999999 A 0.98,1.63 45 1,1 114.0513,610.4460899999999 A 0.98,1.63 45 1,1 112.7513,608.8160899999999 z
      M 111.4513,602.96609 A 1.63,0.98 0 1,1 111.4513,605.5660899999999 A 1.63,0.98 0 1,1 111.4513,602.96609 z
      M 112.7513,598.08609 A 0.98,1.63 -45 1,1 114.0513,599.71609 A 0.98,1.63 -45 1,1 112.7513,598.08609 z"
     style="fill:url(#radialGradient3792);fill-opacity:1;stroke:none;filter:url(#filter3834)" /><path
     transform="matrix(1.1091261,0,0,1.2071687,117.2523,-332.26545)"
     sodipodi:nodetypes="cscsc"
     inkscape:connector-curvature="0"
     id="path3762-6"
     d="
      M 117.3013,601.6660899999999 A 2.6,2.6 0 1,1 117.3013,606.86609 A 2.6,2.6 0 1,1 117.3013,601.6660899999999 z
      M 117.3013,597.11609 A 0.98,1.63 0 1,1 117.3013,600.36609 A 0.98,1.63 0 1,1 117.3013,597.11609 z
      M 120.5513,598.08609 A 0.98,1.63 45 1,1 121.8513,599.71609 A 0.98,1.63 45 1,1 120.5513,598.08609 z
      M 123.15129999999999,602.96609 A 1.63,0.98 0 1,1 123.15129999999999,605.5660899999999 A 1.63,0.98 0 1,1 123.15129999999999,602.96609 z
      M 120.5513,608.8160899999999 A 0.98,1.63 -45 1,1 121.8513,610.4460899999999 A 0.98,1.63 -45 1,1 120.5513,608.8160899999999 z
      M 117.3013,608.1660899999999 A 0.98,1.63 0 1,1 117.3013,611.4160899999999 A 0.98,1.63 0 1,1 117.3013,608.1660899999999 z
      M 112.7513,608.8160899999999 A 0.98,1.63 45 1,1 114.0513,610.4460899999999 A 0.98,1.63 45 1,1 112.7513,608.8160899999999 z
      M 111.4513,602.96609 A 1.63,0.98 0 1,1 111.4513,605.5660899999999 A 1.63,0.98 0 1,1 111.4513,602.96609 z
      M 112.7513,598.08609 A 0.98,1.63 -45 1,1 114.0513,599.71609 A 0.98,1.63 -45 1,1 112.7513,598.08609 z"
     style="fill:url(#radialGradient3855);fill-opacity:1;stroke:none;filter:url(#filter3834-6)" /><path
     transform="matrix(1.1420384,0.7029084,-0.84188482,1.367838,729.37187,-305.07466)"
     sodipodi:nodetypes="cscsc"
     inkscape:connector-curvature="0"
     id="path3762-7"
     d="
      M 117.3013,601.6660899999999 A 2.6,2.6 0 1,1 117.3013,606.86609 A 2.6,2.6 0 1,1 117.3013,601.6660899999999 z
      M 117.3013,597.11609 A 0.98,1.63 0 1,1 117.3013,600.36609 A 0.98,1.63 0 1,1 117.3013,597.11609 z
      M 120.5513,598.08609 A 0.98,1.63 45 1,1 121.8513,599.71609 A 0.98,1.63 45 1,1 120.5513,598.08609 z
      M 123.15129999999999,602.96609 A 1.63,0.98 0 1,1 123.15129999999999,605.5660899999999 A 1.63,0.98 0 1,1 123.15129999999999,602.96609 z
      M 120.5513,608.8160899999999 A 0.98,1.63 -45 1,1 121.8513,610.4460899999999 A 0.98,1.63 -45 1,1 120.5513,608.8160899999999 z
      M 117.3013,608.1660899999999 A 0.98,1.63 0 1,1 117.3013,611.4160899999999 A 0.98,1.63 0 1,1 117.3013,608.1660899999999 z
      M 112.7513,608.8160899999999 A 0.98,1.63 45 1,1 114.0513,610.4460899999999 A 0.98,1.63 45 1,1 112.7513,608.8160899999999 z
      M 111.4513,602.96609 A 1.63,0.98 0 1,1 111.4513,605.5660899999999 A 1.63,0.98 0 1,1 111.4513,602.96609 z
      M 112.7513,598.08609 A 0.98,1.63 -45 1,1 114.0513,599.71609 A 0.98,1.63 -45 1,1 112.7513,598.08609 z"
     style="fill:url(#radialGradient3916);fill-opacity:1;stroke:none;filter:url(#filter3834-7)" /><path
     id="rect3015"
     d="m 28.355532,122.02522 0,734.28125 667.156248,0 0,-734.28125 -667.156248,0 z m 334.281258,97.625 c 91.68979,0 131.37499,74.17213 131.37499,118.84375 0,76.30678 -68.8125,131.34375 -68.8125,131.34375 76.42266,-59.5332 212.65625,-18.88573 212.65625,100.09375 0,59.5332 -48.64211,125.09375 -125.09375,125.09375 -91.68982,0 -131.34374,-100.09375 -131.34374,-100.09375 0,0 -11.65322,114.11662 56.28124,175.15625 l -150.12499,0 c 67.93447,-61.0686 56.3125,-175.15625 56.3125,-175.15625 0,0 -39.65394,100.09375 -131.34375,100.09375 -76.42266,0 -125.093758,-65.53158 -125.093758,-125.09375 0,-118.97948 136.233598,-159.62695 212.656258,-100.09375 0,0 -68.8125,-55.03697 -68.8125,-131.34375 0,-44.64265 39.65394,-118.84375 131.34375,-118.84375 z"
     style="fill:#fffeff;fill-opacity:1;fill-rule:nonzero;stroke:none"
     inkscape:connector-curvature="0" /></g><g
   transform="matrix(1.4856506,0,0,1.4856506,-54.024661,10.018072)"
   id="layer1-1-4"><path
     id="cl-9"
     d="
      M 50.291466,20.098228 A 2.6,2.6 0 1,1 50.291466,25.298228 A 2.6,2.6 0 1,1 50.291466,20.098228 z
      M 50.291466,15.548228 A 0.98,1.63 0 1,1 50.291466,18.798228 A 0.98,1.63 0 1,1 50.291466,15.548228 z
      M 53.541466,16.518228 A 0.98,1.63 45 1,1 54.841466,18.148228 A 0.98,1.63 45 1,1 53.541466,16.518228 z
      M 56.141466,21.398228 A 1.63,0.98 0 1,1 56.141466,23.998228 A 1.63,0.98 0 1,1 56.141466,21.398228 z
      M 53.541466,27.248228 A 0.98,1.63 -45 1,1 54.841466,28.878228 A 0.98,1.63 -45 1,1 53.541466,27.248228 z
      M 50.291466,26.598228 A 0.98,1.63 0 1,1 50.291466,29.848228 A 0.98,1.63 0 1,1 50.291466,26.598228 z
      M 45.741466,27.248228 A 0.98,1.63 45 1,1 47.041466,28.878228 A 0.98,1.63 45 1,1 45.741466,27.248228 z
      M 44.441466,21.398228 A 1.63,0.98 0 1,1 44.441466,23.998228 A 1.63,0.98 0 1,1 44.441466,21.398228 z
      M 45.741466,16.518228 A 0.98,1.63 -45 1,1 47.041466,18.148228 A 0.98,1.63 -45 1,1 45.741466,16.518228 z"
     inkscape:connector-curvature="0"
     style="fill:#000000" /></g><text
   xml:space="preserve"
   style="font-size:32px;font-style:normal;font-weight:normal;line-height:125%;letter-spacing:0px;word-spacing:0px;fill:#000000;fill-opacity:1;stroke:none;font-family:'Oswald', sans-serif"
   x="-160.46396"
   y="-214.4666"
   id="text3788-8"
   sodipodi:linespacing="125%"
   transform="scale(-1,-1)"><tspan
     sodipodi:role="line"
     id="tspan3790-7"
     x="-160.46396"
     y="-214.4666"
     style="font-style:normal;font-variant:normal;font-weight:normal;font-stretch:normal;font-family:'Oswald', sans-serif;-inkscape-font-specification:'Oswald'">A</tspan></text>
<g
   transform="matrix(-1.4856506,0,0,-1.4856506,221.19916,232.46182)"
   id="layer1-1-4-1"><path
     id="cl-9-7"
     d="
      M 50.291466,20.098228 A 2.6,2.6 0 1,1 50.291466,25.298228 A 2.6,2.6 0 1,1 50.291466,20.098228 z
      M 50.291466,15.548228 A 0.98,1.63 0 1,1 50.291466,18.798228 A 0.98,1.63 0 1,1 50.291466,15.548228 z
      M 53.541466,16.518228 A 0.98,1.63 45 1,1 54.841466,18.148228 A 0.98,1.63 45 1,1 53.541466,16.518228 z
      M 56.141466,21.398228 A 1.63,0.98 0 1,1 56.141466,23.998228 A 1.63,0.98 0 1,1 56.141466,21.398228 z
      M 53.541466,27.248228 A 0.98,1.63 -45 1,1 54.841466,28.878228 A 0.98,1.63 -45 1,1 53.541466,27.248228 z
      M 50.291466,26.598228 A 0.98,1.63 0 1,1 50.291466,29.848228 A 0.98,1.63 0 1,1 50.291466,26.598228 z
      M 45.741466,27.248228 A 0.98,1.63 45 1,1 47.041466,28.878228 A 0.98,1.63 45 1,1 45.741466,27.248228 z
      M 44.441466,21.398228 A 1.63,0.98 0 1,1 44.441466,23.998228 A 1.63,0.98 0 1,1 44.441466,21.398228 z
      M 45.741466,16.518228 A 0.98,1.63 -45 1,1 47.041466,18.148228 A 0.98,1.63 -45 1,1 45.741466,16.518228 z"
     inkscape:connector-curvature="0"
     style="fill:#000000" /></g></svg>
