<?xml version="1.0" encoding="UTF-8" standalone="no"?>

<!-- http://code.google.com/p/vector-playing-cards/ -->

<svg
   xmlns:dc="http://purl.org/dc/elements/1.1/"
   xmlns:cc="http://creativecommons.org/ns#"
   xmlns:rdf="http://www.w3.org/1999/02/22-rdf-syntax-ns#"
   xmlns:svg="http://www.w3.org/2000/svg"
   xmlns="http://www.w3.org/2000/svg"
   xmlns:xlink="http://www.w3.org/1999/xlink"
   xmlns:sodipodi="http://sodipodi.sourceforge.net/DTD/sodipodi-0.dtd"
   xmlns:inkscape="http://www.inkscape.org/namespaces/inkscape"
   width="167.0869141pt"
   height="242.6669922pt"
   viewBox="0 0 167.0869141 242.6669922"
   xml:space="preserve"
   id="svg2"
   version="1.1"
   inkscape:version="0.48.0 r9654"
   sodipodi:docname="10_of_clubs.svg"
   inkscape:export-filename="/home/byron/art/cards/final/PNGs/10_of_clubs.png"
   inkscape:export-xdpi="215.44792"
   inkscape:export-ydpi="215.44792"><metadata
   id="metadata43"><rdf:RDF><cc:Work
       rdf:about=""><dc:format>image/svg+xml</dc:format><dc:type
         rdf:resource="http://purl.org/dc/dcmitype/StillImage" /><dc:title></dc:title></cc:Work></rdf:RDF></metadata><defs
   id="defs41"><radialGradient
     inkscape:collect="always"
     xlink:href="#linearGradient2984"
     id="radialGradient3760"
     cx="48.231091"
     cy="18.137882"
     fx="48.231091"
     fy="18.137882"
     r="9.5"
     gradientUnits="userSpaceOnUse"
     gradientTransform="matrix(-1.5605256,0.01828294,-0.02684055,-2.2909528,123.98377,58.809108)" /><linearGradient
     id="linearGradient2984"><stop
       style="stop-color:#000000;stop-opacity:1;"
       offset="0"
       id="stop2986" /><stop
       style="stop-color:#000000;stop-opacity:0.65648854;"
       offset="1"
       id="stop2988" /></linearGradient><radialGradient
     inkscape:collect="always"
     xlink:href="#linearGradient3784"
     id="radialGradient3792"
     cx="171.48665"
     cy="511.22299"
     fx="171.48665"
     fy="511.22299"
     r="81.902771"
     gradientTransform="matrix(1.1529891,-0.67391547,0.39482025,0.67549043,-233.63262,270.40076)"
     gradientUnits="userSpaceOnUse" /><linearGradient
     id="linearGradient3784"><stop
       style="stop-color:#ffffff;stop-opacity:0.53435117;"
       offset="0"
       id="stop3786" /><stop
       style="stop-color:#000000;stop-opacity:0;"
       offset="1"
       id="stop3788" /></linearGradient><radialGradient
     r="81.902771"
     fy="511.22299"
     fx="171.48665"
     cy="511.22299"
     cx="171.48665"
     gradientTransform="matrix(1.1529891,-0.67391547,0.39482025,0.67549043,-233.63262,270.40076)"
     gradientUnits="userSpaceOnUse"
     id="radialGradient3855"
     xlink:href="#linearGradient3784-4"
     inkscape:collect="always" /><linearGradient
     id="linearGradient3784-4"><stop
       style="stop-color:#ffffff;stop-opacity:0.51908398;"
       offset="0"
       id="stop3786-8" /><stop
       style="stop-color:#000000;stop-opacity:0;"
       offset="1"
       id="stop3788-6" /></linearGradient><radialGradient
     r="81.902771"
     fy="461.84113"
     fx="181.69392"
     cy="461.84113"
     cx="181.69392"
     gradientTransform="matrix(1.1529891,-0.67391547,0.39482025,0.67549043,-233.63262,270.40076)"
     gradientUnits="userSpaceOnUse"
     id="radialGradient3916"
     xlink:href="#linearGradient3784-3"
     inkscape:collect="always" /><linearGradient
     id="linearGradient3784-3"><stop
       style="stop-color:#ffffff;stop-opacity:0.70229006;"
       offset="0"
       id="stop3786-86" /><stop
       style="stop-color:#000000;stop-opacity:0;"
       offset="1"
       id="stop3788-2" /></linearGradient></defs><sodipodi:namedview
   pagecolor="#ffffff"
   bordercolor="#666666"
   borderopacity="1"
   objecttolerance="10"
   gridtolerance="10"
   guidetolerance="10"
   inkscape:pageopacity="0"
   inkscape:pageshadow="2"
   inkscape:window-width="1680"
   inkscape:window-height="977"
   id="namedview39"
   showgrid="false"
   inkscape:zoom="2.4336873"
   inkscape:cx="117.62976"
   inkscape:cy="148.16686"
   inkscape:window-x="0"
   inkscape:window-y="25"
   inkscape:window-maximized="1"
   inkscape:current-layer="svg2" />
	<g
   id="Layer_x0020_1"
   style="fill-rule:nonzero;clip-rule:nonzero;stroke:#000000;stroke-miterlimit:4;">
		<path
   style="fill:#FFFFFF;stroke-width:0.5;"
   d="M166.8369141,235.5478516c0,3.7773438-3.0869141,6.8691406-6.8710938,6.8691406H7.1108398c-3.7749023,0-6.8608398-3.0917969-6.8608398-6.8691406V7.1201172C0.25,3.3427734,3.3359375,0.25,7.1108398,0.25h152.8549805    c3.7841797,0,6.8710938,3.0927734,6.8710938,6.8701172v228.4277344z"
   id="path5" />
		<g
   style="stroke:none;"
   id="g7">
			<g
   id="g9">
				
			</g>
			
		</g>
		<g
   id="g15">
			
		</g>
		<g
   id="g19">
			
		</g>
		<g
   style="stroke:none;"
   id="g23">
			<g
   id="g25">
				
			</g>
			
		</g>
		<g
   style="stroke:none;"
   id="g31">
			<g
   id="g33">
				
			</g>
			
		</g>
	</g>












<g
   transform="matrix(1.4856506,0,0,1.4856506,-54.024661,10.018072)"
   id="layer1-1-4"><path
     id="cl-9"
     d="
      M 50.291466,20.098228 A 2.6,2.6 0 1,1 50.291466,25.298228 A 2.6,2.6 0 1,1 50.291466,20.098228 z
      M 50.291466,15.548228 A 0.98,1.63 0 1,1 50.291466,18.798228 A 0.98,1.63 0 1,1 50.291466,15.548228 z
      M 53.541466,16.518228 A 0.98,1.63 45 1,1 54.841466,18.148228 A 0.98,1.63 45 1,1 53.541466,16.518228 z
      M 56.141466,21.398228 A 1.63,0.98 0 1,1 56.141466,23.998228 A 1.63,0.98 0 1,1 56.141466,21.398228 z
      M 53.541466,27.248228 A 0.98,1.63 -45 1,1 54.841466,28.878228 A 0.98,1.63 -45 1,1 53.541466,27.248228 z
      M 50.291466,26.598228 A 0.98,1.63 0 1,1 50.291466,29.848228 A 0.98,1.63 0 1,1 50.291466,26.598228 z
      M 45.741466,27.248228 A 0.98,1.63 45 1,1 47.041466,28.878228 A 0.98,1.63 45 1,1 45.741466,27.248228 z
      M 44.441466,21.398228 A 1.63,0.98 0 1,1 44.441466,23.998228 A 1.63,0.98 0 1,1 44.441466,21.398228 z
      M 45.741466,16.518228 A 0.98,1.63 -45 1,1 47.041466,18.148228 A 0.98,1.63 -45 1,1 45.741466,16.518228 z"
     inkscape:connector-curvature="0"
     style="fill:#000000" /></g>









<g
   transform="matrix(-1.4856506,0,0,-1.4856506,221.19916,232.46182)"
   id="layer1-1-4-1"><path
     id="cl-9-7"
     d="
      M 50.291466,20.098228 A 2.6,2.6 0 1,1 50.291466,25.298228 A 2.6,2.6 0 1,1 50.291466,20.098228 z
      M 50.291466,15.548228 A 0.98,1.63 0 1,1 50.291466,18.798228 A 0.98,1.63 0 1,1 50.291466,15.548228 z
      M 53.541466,16.518228 A 0.98,1.63 45 1,1 54.841466,18.148228 A 0.98,1.63 45 1,1 53.541466,16.518228 z
      M 56.141466,21.398228 A 1.63,0.98 0 1,1 56.141466,23.998228 A 1.63,0.98 0 1,1 56.141466,21.398228 z
      M 53.541466,27.248228 A 0.98,1.63 -45 1,1 54.841466,28.878228 A 0.98,1.63 -45 1,1 53.541466,27.248228 z
      M 50.291466,26.598228 A 0.98,1.63 0 1,1 50.291466,29.848228 A 0.98,1.63 0 1,1 50.291466,26.598228 z
      M 45.741466,27.248228 A 0.98,1.63 45 1,1 47.041466,28.878228 A 0.98,1.63 45 1,1 45.741466,27.248228 z
      M 44.441466,21.398228 A 1.63,0.98 0 1,1 44.441466,23.998228 A 1.63,0.98 0 1,1 44.441466,21.398228 z
      M 45.741466,16.518228 A 0.98,1.63 -45 1,1 47.041466,18.148228 A 0.98,1.63 -45 1,1 45.741466,16.518228 z"
     inkscape:connector-curvature="0"
     style="fill:#000000" /></g><path
   style="fill:#000000"
   inkscape:connector-curvature="0"
   d="
      M 57.572834,22.499947 A 2.6,2.6 0 1,1 57.572834,27.699947 A 2.6,2.6 0 1,1 57.572834,22.499947 z
      M 57.572834,17.949947 A 0.98,1.63 0 1,1 57.572834,21.199947 A 0.98,1.63 0 1,1 57.572834,17.949947 z
      M 60.822834,18.919947 A 0.98,1.63 45 1,1 62.122834,20.549947 A 0.98,1.63 45 1,1 60.822834,18.919947 z
      M 63.422834,23.799947 A 1.63,0.98 0 1,1 63.422834,26.399947 A 1.63,0.98 0 1,1 63.422834,23.799947 z
      M 60.822834,29.649947 A 0.98,1.63 -45 1,1 62.122834,31.279947 A 0.98,1.63 -45 1,1 60.822834,29.649947 z
      M 57.572834,28.999947 A 0.98,1.63 0 1,1 57.572834,32.249947 A 0.98,1.63 0 1,1 57.572834,28.999947 z
      M 53.022834,29.649947 A 0.98,1.63 45 1,1 54.322834,31.279947 A 0.98,1.63 45 1,1 53.022834,29.649947 z
      M 51.722834,23.799947 A 1.63,0.98 0 1,1 51.722834,26.399947 A 1.63,0.98 0 1,1 51.722834,23.799947 z
      M 53.022834,18.919947 A 0.98,1.63 -45 1,1 54.322834,20.549947 A 0.98,1.63 -45 1,1 53.022834,18.919947 z"
   id="cl-9-8" /><path
   style="fill:#000000"
   inkscape:connector-curvature="0"
   d="
      M 57.110434,90.60074700000001 A 2.6,2.6 0 1,1 57.110434,95.800747 A 2.6,2.6 0 1,1 57.110434,90.60074700000001 z
      M 57.110434,86.050747 A 0.98,1.63 0 1,1 57.110434,89.300747 A 0.98,1.63 0 1,1 57.110434,86.050747 z
      M 60.360434,87.020747 A 0.98,1.63 45 1,1 61.660433999999995,88.65074700000001 A 0.98,1.63 45 1,1 60.360434,87.020747 z
      M 62.960434,91.90074700000001 A 1.63,0.98 0 1,1 62.960434,94.500747 A 1.63,0.98 0 1,1 62.960434,91.90074700000001 z
      M 60.360434,97.750747 A 0.98,1.63 -45 1,1 61.660433999999995,99.38074700000001 A 0.98,1.63 -45 1,1 60.360434,97.750747 z
      M 57.110434,97.10074700000001 A 0.98,1.63 0 1,1 57.110434,100.35074700000001 A 0.98,1.63 0 1,1 57.110434,97.10074700000001 z
      M 52.560434,97.750747 A 0.98,1.63 45 1,1 53.860434,99.38074700000001 A 0.98,1.63 45 1,1 52.560434,97.750747 z
      M 51.260434,91.90074700000001 A 1.63,0.98 0 1,1 51.260434,94.500747 A 1.63,0.98 0 1,1 51.260434,91.90074700000001 z
      M 52.560434,87.020747 A 0.98,1.63 -45 1,1 53.860434,88.65074700000001 A 0.98,1.63 -45 1,1 52.560434,87.020747 z"
   id="cl-9-8-0" /><path
   style="fill:#000000"
   inkscape:connector-curvature="0"
   d="
      M 121.55789,22.326219 A 2.6,2.6 0 1,1 121.55789,27.526219 A 2.6,2.6 0 1,1 121.55789,22.326219 z
      M 121.55789,17.776218999999998 A 0.98,1.63 0 1,1 121.55789,21.026219 A 0.98,1.63 0 1,1 121.55789,17.776218999999998 z
      M 124.80789,18.746219 A 0.98,1.63 45 1,1 126.10789,20.376219 A 0.98,1.63 45 1,1 124.80789,18.746219 z
      M 127.40789,23.626219 A 1.63,0.98 0 1,1 127.40789,26.226219 A 1.63,0.98 0 1,1 127.40789,23.626219 z
      M 124.80789,29.476219 A 0.98,1.63 -45 1,1 126.10789,31.106219 A 0.98,1.63 -45 1,1 124.80789,29.476219 z
      M 121.55789,28.826219 A 0.98,1.63 0 1,1 121.55789,32.076219 A 0.98,1.63 0 1,1 121.55789,28.826219 z
      M 117.00789,29.476219 A 0.98,1.63 45 1,1 118.30789,31.106219 A 0.98,1.63 45 1,1 117.00789,29.476219 z
      M 115.70789,23.626219 A 1.63,0.98 0 1,1 115.70789,26.226219 A 1.63,0.98 0 1,1 115.70789,23.626219 z
      M 117.00789,18.746219 A 0.98,1.63 -45 1,1 118.30789,20.376219 A 0.98,1.63 -45 1,1 117.00789,18.746219 z"
   id="cl-9-8-9" /><path
   style="fill:#000000"
   inkscape:connector-curvature="0"
   d="
      M 121.55789,90.427019 A 2.6,2.6 0 1,1 121.55789,95.62701899999999 A 2.6,2.6 0 1,1 121.55789,90.427019 z
      M 121.55789,85.87701899999999 A 0.98,1.63 0 1,1 121.55789,89.12701899999999 A 0.98,1.63 0 1,1 121.55789,85.87701899999999 z
      M 124.80789,86.84701899999999 A 0.98,1.63 45 1,1 126.10789,88.477019 A 0.98,1.63 45 1,1 124.80789,86.84701899999999 z
      M 127.40789,91.727019 A 1.63,0.98 0 1,1 127.40789,94.32701899999999 A 1.63,0.98 0 1,1 127.40789,91.727019 z
      M 124.80789,97.57701899999999 A 0.98,1.63 -45 1,1 126.10789,99.207019 A 0.98,1.63 -45 1,1 124.80789,97.57701899999999 z
      M 121.55789,96.927019 A 0.98,1.63 0 1,1 121.55789,100.177019 A 0.98,1.63 0 1,1 121.55789,96.927019 z
      M 117.00789,97.57701899999999 A 0.98,1.63 45 1,1 118.30789,99.207019 A 0.98,1.63 45 1,1 117.00789,97.57701899999999 z
      M 115.70789,91.727019 A 1.63,0.98 0 1,1 115.70789,94.32701899999999 A 1.63,0.98 0 1,1 115.70789,91.727019 z
      M 117.00789,86.84701899999999 A 0.98,1.63 -45 1,1 118.30789,88.477019 A 0.98,1.63 -45 1,1 117.00789,86.84701899999999 z"
   id="cl-9-8-0-4" /><path
   style="fill:#000000"
   inkscape:connector-curvature="0"
   d="
      M 89.576798,56.681103 A 2.6,2.6 0 1,1 89.576798,61.881103 A 2.6,2.6 0 1,1 89.576798,56.681103 z
      M 89.576798,52.131103 A 0.98,1.63 0 1,1 89.576798,55.381103 A 0.98,1.63 0 1,1 89.576798,52.131103 z
      M 92.826798,53.101103 A 0.98,1.63 45 1,1 94.126798,54.731103000000004 A 0.98,1.63 45 1,1 92.826798,53.101103 z
      M 95.42679799999999,57.981103000000004 A 1.63,0.98 0 1,1 95.42679799999999,60.581103 A 1.63,0.98 0 1,1 95.42679799999999,57.981103000000004 z
      M 92.826798,63.831103 A 0.98,1.63 -45 1,1 94.126798,65.46110300000001 A 0.98,1.63 -45 1,1 92.826798,63.831103 z
      M 89.576798,63.181103 A 0.98,1.63 0 1,1 89.576798,66.43110300000001 A 0.98,1.63 0 1,1 89.576798,63.181103 z
      M 85.026798,63.831103 A 0.98,1.63 45 1,1 86.326798,65.46110300000001 A 0.98,1.63 45 1,1 85.026798,63.831103 z
      M 83.726798,57.981103000000004 A 1.63,0.98 0 1,1 83.726798,60.581103 A 1.63,0.98 0 1,1 83.726798,57.981103000000004 z
      M 85.026798,53.101103 A 0.98,1.63 -45 1,1 86.326798,54.731103000000004 A 0.98,1.63 -45 1,1 85.026798,53.101103 z"
   id="cl-9-8-8" /><path
   style="fill:#000000"
   inkscape:connector-curvature="0"
   d="
      M 110.06258,215.20216 A 2.6,2.6 0 1,1 110.06258,220.40215999999998 A 2.6,2.6 0 1,1 110.06258,215.20216 z
      M 110.06258,210.65215999999998 A 0.98,1.63 0 1,1 110.06258,213.90215999999998 A 0.98,1.63 0 1,1 110.06258,210.65215999999998 z
      M 113.31258,211.62215999999998 A 0.98,1.63 45 1,1 114.61258,213.25215999999998 A 0.98,1.63 45 1,1 113.31258,211.62215999999998 z
      M 115.91257999999999,216.50215999999998 A 1.63,0.98 0 1,1 115.91257999999999,219.10216 A 1.63,0.98 0 1,1 115.91257999999999,216.50215999999998 z
      M 113.31258,222.35216 A 0.98,1.63 -45 1,1 114.61258,223.98216 A 0.98,1.63 -45 1,1 113.31258,222.35216 z
      M 110.06258,221.70216 A 0.98,1.63 0 1,1 110.06258,224.95216 A 0.98,1.63 0 1,1 110.06258,221.70216 z
      M 105.51258,222.35216 A 0.98,1.63 45 1,1 106.81258,223.98216 A 0.98,1.63 45 1,1 105.51258,222.35216 z
      M 104.21258,216.50215999999998 A 1.63,0.98 0 1,1 104.21258,219.10216 A 1.63,0.98 0 1,1 104.21258,216.50215999999998 z
      M 105.51258,211.62215999999998 A 0.98,1.63 -45 1,1 106.81258,213.25215999999998 A 0.98,1.63 -45 1,1 105.51258,211.62215999999998 z"
   id="cl-9-8-4" /><path
   style="fill:#000000"
   inkscape:connector-curvature="0"
   d="
      M 110.70832,147.10136 A 2.6,2.6 0 1,1 110.70832,152.30136 A 2.6,2.6 0 1,1 110.70832,147.10136 z
      M 110.70832,142.55136 A 0.98,1.63 0 1,1 110.70832,145.80136 A 0.98,1.63 0 1,1 110.70832,142.55136 z
      M 113.95832,143.52136 A 0.98,1.63 45 1,1 115.25832,145.15135999999998 A 0.98,1.63 45 1,1 113.95832,143.52136 z
      M 116.55832,148.40135999999998 A 1.63,0.98 0 1,1 116.55832,151.00136 A 1.63,0.98 0 1,1 116.55832,148.40135999999998 z
      M 113.95832,154.25136 A 0.98,1.63 -45 1,1 115.25832,155.88136 A 0.98,1.63 -45 1,1 113.95832,154.25136 z
      M 110.70832,153.60136 A 0.98,1.63 0 1,1 110.70832,156.85136 A 0.98,1.63 0 1,1 110.70832,153.60136 z
      M 106.15832,154.25136 A 0.98,1.63 45 1,1 107.45832,155.88136 A 0.98,1.63 45 1,1 106.15832,154.25136 z
      M 104.85832,148.40135999999998 A 1.63,0.98 0 1,1 104.85832,151.00136 A 1.63,0.98 0 1,1 104.85832,148.40135999999998 z
      M 106.15832,143.52136 A 0.98,1.63 -45 1,1 107.45832,145.15135999999998 A 0.98,1.63 -45 1,1 106.15832,143.52136 z"
   id="cl-9-8-0-2" /><path
   style="fill:#000000"
   inkscape:connector-curvature="0"
   d="
      M 46.077633,215.37556 A 2.6,2.6 0 1,1 46.077633,220.57556 A 2.6,2.6 0 1,1 46.077633,215.37556 z
      M 46.077633,210.82556 A 0.98,1.63 0 1,1 46.077633,214.07556 A 0.98,1.63 0 1,1 46.077633,210.82556 z
      M 49.327633,211.79556 A 0.98,1.63 45 1,1 50.627632999999996,213.42556 A 0.98,1.63 45 1,1 49.327633,211.79556 z
      M 51.927633,216.67556 A 1.63,0.98 0 1,1 51.927633,219.27556 A 1.63,0.98 0 1,1 51.927633,216.67556 z
      M 49.327633,222.52556 A 0.98,1.63 -45 1,1 50.627632999999996,224.15556 A 0.98,1.63 -45 1,1 49.327633,222.52556 z
      M 46.077633,221.87556 A 0.98,1.63 0 1,1 46.077633,225.12556 A 0.98,1.63 0 1,1 46.077633,221.87556 z
      M 41.527633,222.52556 A 0.98,1.63 45 1,1 42.827633,224.15556 A 0.98,1.63 45 1,1 41.527633,222.52556 z
      M 40.227633,216.67556 A 1.63,0.98 0 1,1 40.227633,219.27556 A 1.63,0.98 0 1,1 40.227633,216.67556 z
      M 41.527633,211.79556 A 0.98,1.63 -45 1,1 42.827633,213.42556 A 0.98,1.63 -45 1,1 41.527633,211.79556 z"
   id="cl-9-8-9-6" /><path
   style="fill:#000000"
   inkscape:connector-curvature="0"
   d="
      M 46.261118,147.27509 A 2.6,2.6 0 1,1 46.261118,152.47509 A 2.6,2.6 0 1,1 46.261118,147.27509 z
      M 46.261118,142.72509 A 0.98,1.63 0 1,1 46.261118,145.97509 A 0.98,1.63 0 1,1 46.261118,142.72509 z
      M 49.511118,143.69509 A 0.98,1.63 45 1,1 50.811118,145.32509 A 0.98,1.63 45 1,1 49.511118,143.69509 z
      M 52.111118000000005,148.57509 A 1.63,0.98 0 1,1 52.111118000000005,151.17509 A 1.63,0.98 0 1,1 52.111118000000005,148.57509 z
      M 49.511118,154.42509 A 0.98,1.63 -45 1,1 50.811118,156.05509 A 0.98,1.63 -45 1,1 49.511118,154.42509 z
      M 46.261118,153.77509 A 0.98,1.63 0 1,1 46.261118,157.02509 A 0.98,1.63 0 1,1 46.261118,153.77509 z
      M 41.711118000000006,154.42509 A 0.98,1.63 45 1,1 43.011118,156.05509 A 0.98,1.63 45 1,1 41.711118000000006,154.42509 z
      M 40.411118,148.57509 A 1.63,0.98 0 1,1 40.411118,151.17509 A 1.63,0.98 0 1,1 40.411118,148.57509 z
      M 41.711118000000006,143.69509 A 0.98,1.63 -45 1,1 43.011118,145.32509 A 0.98,1.63 -45 1,1 41.711118000000006,143.69509 z"
   id="cl-9-8-0-4-9" /><text
   xml:space="preserve"
   style="font-size:32px;font-style:normal;font-weight:normal;line-height:125%;letter-spacing:0px;word-spacing:0px;fill:#000000;fill-opacity:1;stroke:none;font-family:'Oswald', sans-serif"
   x="-1.1621548"
   y="27.170401"
   id="text3788"
   sodipodi:linespacing="125%"><tspan
     sodipodi:role="line"
     id="tspan3790"
     x="-1.1621548"
     y="27.170401"
     style="font-style:normal;font-variant:normal;font-weight:normal;font-stretch:normal;font-family:'Oswald', sans-serif;-inkscape-font-specification:'Oswald'">1</tspan></text>
<text
   xml:space="preserve"
   style="font-size:32px;font-style:normal;font-weight:normal;line-height:125%;letter-spacing:0px;word-spacing:0px;fill:#000000;fill-opacity:1;stroke:none;font-family:'Oswald', sans-serif"
   x="11.000458"
   y="27.499109"
   id="text3038"
   sodipodi:linespacing="125%"><tspan
     sodipodi:role="line"
     id="tspan3040"
     x="11.000458"
     y="27.499109">0</tspan></text>
<path
   style="fill:#000000"
   inkscape:connector-curvature="0"
   d="
      M 78.0698,181.3376 A 2.6,2.6 0 1,1 78.0698,186.5376 A 2.6,2.6 0 1,1 78.0698,181.3376 z
      M 78.0698,176.7876 A 0.98,1.63 0 1,1 78.0698,180.0376 A 0.98,1.63 0 1,1 78.0698,176.7876 z
      M 81.3198,177.7576 A 0.98,1.63 45 1,1 82.6198,179.3876 A 0.98,1.63 45 1,1 81.3198,177.7576 z
      M 83.9198,182.6376 A 1.63,0.98 0 1,1 83.9198,185.23760000000001 A 1.63,0.98 0 1,1 83.9198,182.6376 z
      M 81.3198,188.48760000000001 A 0.98,1.63 -45 1,1 82.6198,190.1176 A 0.98,1.63 -45 1,1 81.3198,188.48760000000001 z
      M 78.0698,187.8376 A 0.98,1.63 0 1,1 78.0698,191.0876 A 0.98,1.63 0 1,1 78.0698,187.8376 z
      M 73.5198,188.48760000000001 A 0.98,1.63 45 1,1 74.8198,190.1176 A 0.98,1.63 45 1,1 73.5198,188.48760000000001 z
      M 72.2198,182.6376 A 1.63,0.98 0 1,1 72.2198,185.23760000000001 A 1.63,0.98 0 1,1 72.2198,182.6376 z
      M 73.5198,177.7576 A 0.98,1.63 -45 1,1 74.8198,179.3876 A 0.98,1.63 -45 1,1 73.5198,177.7576 z"
   id="cl-9-8-8-8" /><text
   xml:space="preserve"
   style="font-size:32px;font-style:normal;font-weight:normal;line-height:125%;letter-spacing:0px;word-spacing:0px;fill:#000000;fill-opacity:1;stroke:none;font-family:'Oswald', sans-serif"
   x="-168.80901"
   y="-216.22618"
   id="text3788-0"
   sodipodi:linespacing="125%"
   transform="scale(-1,-1)"><tspan
     sodipodi:role="line"
     id="tspan3790-6"
     x="-168.80901"
     y="-216.22618"
     style="font-style:normal;font-variant:normal;font-weight:normal;font-stretch:normal;font-family:'Oswald', sans-serif;-inkscape-font-specification:'Oswald'">1</tspan></text>
<text
   xml:space="preserve"
   style="font-size:32px;font-style:normal;font-weight:normal;line-height:125%;letter-spacing:0px;word-spacing:0px;fill:#000000;fill-opacity:1;stroke:none;font-family:'Oswald', sans-serif"
   x="-156.64639"
   y="-215.89748"
   id="text3038-8"
   sodipodi:linespacing="125%"
   transform="scale(-1,-1)"><tspan
     sodipodi:role="line"
     id="tspan3040-9"
     x="-156.64639"
     y="-215.89748">0</tspan></text>
</svg>
