<?xml version="1.0" encoding="UTF-8" standalone="no"?>

<!-- http://code.google.com/p/vector-playing-cards/ -->

<svg
   xmlns:dc="http://purl.org/dc/elements/1.1/"
   xmlns:cc="http://creativecommons.org/ns#"
   xmlns:rdf="http://www.w3.org/1999/02/22-rdf-syntax-ns#"
   xmlns:svg="http://www.w3.org/2000/svg"
   xmlns="http://www.w3.org/2000/svg"
   xmlns:sodipodi="http://sodipodi.sourceforge.net/DTD/sodipodi-0.dtd"
   xmlns:inkscape="http://www.inkscape.org/namespaces/inkscape"
   width="167.0869141pt"
   height="242.6669922pt"
   viewBox="0 0 167.0869141 242.6669922"
   xml:space="preserve"
   id="svg2"
   version="1.1"
   inkscape:version="0.48.0 r9654"
   sodipodi:docname="8_of_spades.svg"
   inkscape:export-filename="/home/byron/art/cards/final/PNGs/8_of_spades.png"
   inkscape:export-xdpi="215.44792"
   inkscape:export-ydpi="215.44792"><metadata
   id="metadata43"><rdf:RDF><cc:Work
       rdf:about=""><dc:format>image/svg+xml</dc:format><dc:type
         rdf:resource="http://purl.org/dc/dcmitype/StillImage" /><dc:title></dc:title></cc:Work></rdf:RDF></metadata><defs
   id="defs41" /><sodipodi:namedview
   pagecolor="#ffffff"
   bordercolor="#666666"
   borderopacity="1"
   objecttolerance="10"
   gridtolerance="10"
   guidetolerance="10"
   inkscape:pageopacity="0"
   inkscape:pageshadow="2"
   inkscape:window-width="1680"
   inkscape:window-height="977"
   id="namedview39"
   showgrid="false"
   inkscape:zoom="2.4336873"
   inkscape:cx="106.02254"
   inkscape:cy="157.08206"
   inkscape:window-x="0"
   inkscape:window-y="25"
   inkscape:window-maximized="1"
   inkscape:current-layer="svg2" />
	<g
   id="Layer_x0020_1"
   style="fill-rule:nonzero;clip-rule:nonzero;stroke:#000000;stroke-miterlimit:4;">
		<path
   style="fill:#FFFFFF;stroke-width:0.5;"
   d="M166.8369141,235.5478516c0,3.7773438-3.0869141,6.8691406-6.8710938,6.8691406H7.1108398c-3.7749023,0-6.8608398-3.0917969-6.8608398-6.8691406V7.1201172C0.25,3.3427734,3.3359375,0.25,7.1108398,0.25h152.8549805    c3.7841797,0,6.8710938,3.0927734,6.8710938,6.8701172v228.4277344z"
   id="path5" />
		<g
   style="stroke:none;"
   id="g7">
			<g
   id="g9">
				
			</g>
			
		</g>
		<g
   id="g15">
			
		</g>
		<g
   id="g19">
			
		</g>
		<g
   style="stroke:none;"
   id="g23">
			<g
   id="g25">
				
			</g>
			
		</g>
		<g
   style="stroke:none;"
   id="g31">
			<g
   id="g33">
				
			</g>
			
		</g>
	</g>
<text
   xml:space="preserve"
   style="font-size:32px;font-style:normal;font-weight:normal;line-height:125%;letter-spacing:0px;word-spacing:0px;fill:#000000;fill-opacity:1;stroke:none;font-family:'Oswald', sans-serif"
   x="8.5467014"
   y="28.013288"
   id="text3788"
   sodipodi:linespacing="125%"><tspan
     sodipodi:role="line"
     id="tspan3790"
     x="8.5467014"
     y="28.013288"
     style="font-style:normal;font-variant:normal;font-weight:normal;font-stretch:normal;font-family:'Oswald', sans-serif;-inkscape-font-specification:'Oswald'">8</tspan></text>





<g
   transform="matrix(1.5085945,0,0,1.3793253,16.929104,45.065897)"
   id="layer1-7"><path
     id="sl"
     d="
  M 0,-5.85 L 0,5.85
  M -1.95,-4.55 A 1.3,0.65 -30 1,1 -1.95,-3.25 A 1.3,0.65 -30 1,1 -1.95,-4.55 z
  M -2.28,-2.6 A 1.3,0.65 -25 1,1 -2.28,-1.3 A 1.3,0.65 -25 1,1 -2.28,-2.6 z
  M -1.95,-0.65 A 1.3,0.65 -20 1,1 -1.95,0.65 A 1.3,0.65 -20 1,1 -1.95,-0.65 z
  M 1.95,-4.55 A 1.3,0.65 30 1,1 1.95,-3.25 A 1.3,0.65 30 1,1 1.95,-4.55 z
  M 2.28,-2.6 A 1.3,0.65 25 1,1 2.28,-1.3 A 1.3,0.65 25 1,1 2.28,-2.6 z
  M 1.95,-0.65 A 1.3,0.65 20 1,1 1.95,0.65 A 1.3,0.65 20 1,1 1.95,-0.65 z
  M 0,-6.5 A 0.98,1.3 0 1,1 0,-3.9 A 0.98,1.3 0 1,1 0,-6.5 z"
     inkscape:connector-curvature="0"
     style="fill:#000000"
     sodipodi:nodetypes="cccccccccc" /></g>
<g
   transform="matrix(2.6486789,0,0,2.4217176,54.61089,44.565995)"
   id="layer1-7-88"><path
     id="sl-4"
     d="
  M 0,-5.85 L 0,5.85
  M -1.95,-4.55 A 1.3,0.65 -30 1,1 -1.95,-3.25 A 1.3,0.65 -30 1,1 -1.95,-4.55 z
  M -2.28,-2.6 A 1.3,0.65 -25 1,1 -2.28,-1.3 A 1.3,0.65 -25 1,1 -2.28,-2.6 z
  M -1.95,-0.65 A 1.3,0.65 -20 1,1 -1.95,0.65 A 1.3,0.65 -20 1,1 -1.95,-0.65 z
  M 1.95,-4.55 A 1.3,0.65 30 1,1 1.95,-3.25 A 1.3,0.65 30 1,1 1.95,-4.55 z
  M 2.28,-2.6 A 1.3,0.65 25 1,1 2.28,-1.3 A 1.3,0.65 25 1,1 2.28,-2.6 z
  M 1.95,-0.65 A 1.3,0.65 20 1,1 1.95,0.65 A 1.3,0.65 20 1,1 1.95,-0.65 z
  M 0,-6.5 A 0.98,1.3 0 1,1 0,-3.9 A 0.98,1.3 0 1,1 0,-6.5 z"
     inkscape:connector-curvature="0"
     style="fill:#000000"
     sodipodi:nodetypes="cccccccccc" /></g><text
   xml:space="preserve"
   style="font-size:32px;font-style:normal;font-weight:normal;line-height:125%;letter-spacing:0px;word-spacing:0px;fill:#000000;fill-opacity:1;stroke:none;font-family:'Oswald', sans-serif"
   x="-158.97775"
   y="-215.12402"
   id="text3788-7"
   sodipodi:linespacing="125%"
   transform="scale(-1,-1)"><tspan
     sodipodi:role="line"
     id="tspan3790-6"
     x="-158.97775"
     y="-215.12402"
     style="font-style:normal;font-variant:normal;font-weight:normal;font-stretch:normal;font-family:'Oswald', sans-serif;-inkscape-font-specification:'Oswald'">8</tspan></text>




<g
   transform="matrix(-1.5085945,0,0,-1.3793253,150.22511,198.04408)"
   id="layer1-7-3"><path
     id="sl-1"
     d="
  M 0,-5.85 L 0,5.85
  M -1.95,-4.55 A 1.3,0.65 -30 1,1 -1.95,-3.25 A 1.3,0.65 -30 1,1 -1.95,-4.55 z
  M -2.28,-2.6 A 1.3,0.65 -25 1,1 -2.28,-1.3 A 1.3,0.65 -25 1,1 -2.28,-2.6 z
  M -1.95,-0.65 A 1.3,0.65 -20 1,1 -1.95,0.65 A 1.3,0.65 -20 1,1 -1.95,-0.65 z
  M 1.95,-4.55 A 1.3,0.65 30 1,1 1.95,-3.25 A 1.3,0.65 30 1,1 1.95,-4.55 z
  M 2.28,-2.6 A 1.3,0.65 25 1,1 2.28,-1.3 A 1.3,0.65 25 1,1 2.28,-2.6 z
  M 1.95,-0.65 A 1.3,0.65 20 1,1 1.95,0.65 A 1.3,0.65 20 1,1 1.95,-0.65 z
  M 0,-6.5 A 0.98,1.3 0 1,1 0,-3.9 A 0.98,1.3 0 1,1 0,-6.5 z"
     inkscape:connector-curvature="0"
     style="fill:#000000"
     sodipodi:nodetypes="cccccccccc" /></g><g
   transform="matrix(-2.6486789,0,0,-2.4217176,54.65613,198.57132)"
   id="layer1-7-88-7"><path
     id="sl-4-5"
     d="
  M 0,-5.85 L 0,5.85
  M -1.95,-4.55 A 1.3,0.65 -30 1,1 -1.95,-3.25 A 1.3,0.65 -30 1,1 -1.95,-4.55 z
  M -2.28,-2.6 A 1.3,0.65 -25 1,1 -2.28,-1.3 A 1.3,0.65 -25 1,1 -2.28,-2.6 z
  M -1.95,-0.65 A 1.3,0.65 -20 1,1 -1.95,0.65 A 1.3,0.65 -20 1,1 -1.95,-0.65 z
  M 1.95,-4.55 A 1.3,0.65 30 1,1 1.95,-3.25 A 1.3,0.65 30 1,1 1.95,-4.55 z
  M 2.28,-2.6 A 1.3,0.65 25 1,1 2.28,-1.3 A 1.3,0.65 25 1,1 2.28,-2.6 z
  M 1.95,-0.65 A 1.3,0.65 20 1,1 1.95,0.65 A 1.3,0.65 20 1,1 1.95,-0.65 z
  M 0,-6.5 A 0.98,1.3 0 1,1 0,-3.9 A 0.98,1.3 0 1,1 0,-6.5 z"
     inkscape:connector-curvature="0"
     style="fill:#000000"
     sodipodi:nodetypes="cccccccccc" /></g><g
   transform="matrix(2.6486789,0,0,2.4217176,54.694697,119.06732)"
   id="layer1-7-88-6"><path
     id="sl-4-8"
     d="
  M 0,-5.85 L 0,5.85
  M -1.95,-4.55 A 1.3,0.65 -30 1,1 -1.95,-3.25 A 1.3,0.65 -30 1,1 -1.95,-4.55 z
  M -2.28,-2.6 A 1.3,0.65 -25 1,1 -2.28,-1.3 A 1.3,0.65 -25 1,1 -2.28,-2.6 z
  M -1.95,-0.65 A 1.3,0.65 -20 1,1 -1.95,0.65 A 1.3,0.65 -20 1,1 -1.95,-0.65 z
  M 1.95,-4.55 A 1.3,0.65 30 1,1 1.95,-3.25 A 1.3,0.65 30 1,1 1.95,-4.55 z
  M 2.28,-2.6 A 1.3,0.65 25 1,1 2.28,-1.3 A 1.3,0.65 25 1,1 2.28,-2.6 z
  M 1.95,-0.65 A 1.3,0.65 20 1,1 1.95,0.65 A 1.3,0.65 20 1,1 1.95,-0.65 z
  M 0,-6.5 A 0.98,1.3 0 1,1 0,-3.9 A 0.98,1.3 0 1,1 0,-6.5 z"
     inkscape:connector-curvature="0"
     style="fill:#000000"
     sodipodi:nodetypes="cccccccccc" /></g><g
   transform="matrix(2.6486789,0,0,2.4217176,112.49781,44.366905)"
   id="layer1-7-88-68"><path
     id="sl-4-84"
     d="
  M 0,-5.85 L 0,5.85
  M -1.95,-4.55 A 1.3,0.65 -30 1,1 -1.95,-3.25 A 1.3,0.65 -30 1,1 -1.95,-4.55 z
  M -2.28,-2.6 A 1.3,0.65 -25 1,1 -2.28,-1.3 A 1.3,0.65 -25 1,1 -2.28,-2.6 z
  M -1.95,-0.65 A 1.3,0.65 -20 1,1 -1.95,0.65 A 1.3,0.65 -20 1,1 -1.95,-0.65 z
  M 1.95,-4.55 A 1.3,0.65 30 1,1 1.95,-3.25 A 1.3,0.65 30 1,1 1.95,-4.55 z
  M 2.28,-2.6 A 1.3,0.65 25 1,1 2.28,-1.3 A 1.3,0.65 25 1,1 2.28,-2.6 z
  M 1.95,-0.65 A 1.3,0.65 20 1,1 1.95,0.65 A 1.3,0.65 20 1,1 1.95,-0.65 z
  M 0,-6.5 A 0.98,1.3 0 1,1 0,-3.9 A 0.98,1.3 0 1,1 0,-6.5 z"
     inkscape:connector-curvature="0"
     style="fill:#000000"
     sodipodi:nodetypes="cccccccccc" /></g><g
   transform="matrix(-2.6486789,0,0,-2.4217176,112.54305,198.37223)"
   id="layer1-7-88-7-3"><path
     id="sl-4-5-1"
     d="
  M 0,-5.85 L 0,5.85
  M -1.95,-4.55 A 1.3,0.65 -30 1,1 -1.95,-3.25 A 1.3,0.65 -30 1,1 -1.95,-4.55 z
  M -2.28,-2.6 A 1.3,0.65 -25 1,1 -2.28,-1.3 A 1.3,0.65 -25 1,1 -2.28,-2.6 z
  M -1.95,-0.65 A 1.3,0.65 -20 1,1 -1.95,0.65 A 1.3,0.65 -20 1,1 -1.95,-0.65 z
  M 1.95,-4.55 A 1.3,0.65 30 1,1 1.95,-3.25 A 1.3,0.65 30 1,1 1.95,-4.55 z
  M 2.28,-2.6 A 1.3,0.65 25 1,1 2.28,-1.3 A 1.3,0.65 25 1,1 2.28,-2.6 z
  M 1.95,-0.65 A 1.3,0.65 20 1,1 1.95,0.65 A 1.3,0.65 20 1,1 1.95,-0.65 z
  M 0,-6.5 A 0.98,1.3 0 1,1 0,-3.9 A 0.98,1.3 0 1,1 0,-6.5 z"
     inkscape:connector-curvature="0"
     style="fill:#000000"
     sodipodi:nodetypes="cccccccccc" /></g><g
   transform="matrix(2.6486789,0,0,2.4217176,112.58162,118.86823)"
   id="layer1-7-88-6-4"><path
     id="sl-4-8-9"
     d="
  M 0,-5.85 L 0,5.85
  M -1.95,-4.55 A 1.3,0.65 -30 1,1 -1.95,-3.25 A 1.3,0.65 -30 1,1 -1.95,-4.55 z
  M -2.28,-2.6 A 1.3,0.65 -25 1,1 -2.28,-1.3 A 1.3,0.65 -25 1,1 -2.28,-2.6 z
  M -1.95,-0.65 A 1.3,0.65 -20 1,1 -1.95,0.65 A 1.3,0.65 -20 1,1 -1.95,-0.65 z
  M 1.95,-4.55 A 1.3,0.65 30 1,1 1.95,-3.25 A 1.3,0.65 30 1,1 1.95,-4.55 z
  M 2.28,-2.6 A 1.3,0.65 25 1,1 2.28,-1.3 A 1.3,0.65 25 1,1 2.28,-2.6 z
  M 1.95,-0.65 A 1.3,0.65 20 1,1 1.95,0.65 A 1.3,0.65 20 1,1 1.95,-0.65 z
  M 0,-6.5 A 0.98,1.3 0 1,1 0,-3.9 A 0.98,1.3 0 1,1 0,-6.5 z"
     inkscape:connector-curvature="0"
     style="fill:#000000"
     sodipodi:nodetypes="cccccccccc" /></g><g
   transform="matrix(2.6486789,0,0,2.4217176,83.494697,83.937953)"
   id="layer1-7-88-688"><path
     id="sl-4-4"
     d="
  M 0,-5.85 L 0,5.85
  M -1.95,-4.55 A 1.3,0.65 -30 1,1 -1.95,-3.25 A 1.3,0.65 -30 1,1 -1.95,-4.55 z
  M -2.28,-2.6 A 1.3,0.65 -25 1,1 -2.28,-1.3 A 1.3,0.65 -25 1,1 -2.28,-2.6 z
  M -1.95,-0.65 A 1.3,0.65 -20 1,1 -1.95,0.65 A 1.3,0.65 -20 1,1 -1.95,-0.65 z
  M 1.95,-4.55 A 1.3,0.65 30 1,1 1.95,-3.25 A 1.3,0.65 30 1,1 1.95,-4.55 z
  M 2.28,-2.6 A 1.3,0.65 25 1,1 2.28,-1.3 A 1.3,0.65 25 1,1 2.28,-2.6 z
  M 1.95,-0.65 A 1.3,0.65 20 1,1 1.95,0.65 A 1.3,0.65 20 1,1 1.95,-0.65 z
  M 0,-6.5 A 0.98,1.3 0 1,1 0,-3.9 A 0.98,1.3 0 1,1 0,-6.5 z"
     inkscape:connector-curvature="0"
     style="fill:#000000"
     sodipodi:nodetypes="cccccccccc" /></g><g
   transform="matrix(-2.6486789,0,0,-2.4217176,83.165993,161.80325)"
   id="layer1-7-88-688-6"><path
     id="sl-4-4-8"
     d="
  M 0,-5.85 L 0,5.85
  M -1.95,-4.55 A 1.3,0.65 -30 1,1 -1.95,-3.25 A 1.3,0.65 -30 1,1 -1.95,-4.55 z
  M -2.28,-2.6 A 1.3,0.65 -25 1,1 -2.28,-1.3 A 1.3,0.65 -25 1,1 -2.28,-2.6 z
  M -1.95,-0.65 A 1.3,0.65 -20 1,1 -1.95,0.65 A 1.3,0.65 -20 1,1 -1.95,-0.65 z
  M 1.95,-4.55 A 1.3,0.65 30 1,1 1.95,-3.25 A 1.3,0.65 30 1,1 1.95,-4.55 z
  M 2.28,-2.6 A 1.3,0.65 25 1,1 2.28,-1.3 A 1.3,0.65 25 1,1 2.28,-2.6 z
  M 1.95,-0.65 A 1.3,0.65 20 1,1 1.95,0.65 A 1.3,0.65 20 1,1 1.95,-0.65 z
  M 0,-6.5 A 0.98,1.3 0 1,1 0,-3.9 A 0.98,1.3 0 1,1 0,-6.5 z"
     inkscape:connector-curvature="0"
     style="fill:#000000"
     sodipodi:nodetypes="cccccccccc" /></g></svg>
