<svg xmlns="http://www.w3.org/2000/svg" viewBox="0 0 32 32" shape-rendering="crispEdges">
  <!-- Background -->
  <rect width="32" height="32" fill="#1a4a1a"/>
  <!-- Face -->
  <rect x="10" y="10" width="12" height="10" fill="#d4a574"/>
  <!-- Hair/Headscarf -->
  <rect x="8" y="4" width="16" height="8" fill="#c41e3a"/>
  <rect x="6" y="8" width="4" height="6" fill="#c41e3a"/>
  <rect x="22" y="8" width="4" height="6" fill="#c41e3a"/>
  <rect x="10" y="6" width="12" height="2" fill="#c41e3a"/>
  <!-- Headscarf knot -->
  <rect x="12" y="12" width="2" height="2" fill="#c41e3a"/>
  <!-- Eyes -->
  <rect x="12" y="12" width="2" height="2" fill="#2d5a5a"/>
  <rect x="18" y="12" width="2" height="2" fill="#2d5a5a"/>
  <!-- Eyebrows -->
  <rect x="12" y="10" width="3" height="1" fill="#4a3728"/>
  <rect x="17" y="10" width="3" height="1" fill="#4a3728"/>
  <!-- Nose -->
  <rect x="15" y="14" width="2" height="2" fill="#c49474"/>
  <!-- Mouth -->
  <rect x="14" y="17" width="4" height="1" fill="#b87a6a"/>
  <!-- Blush -->
  <rect x="10" y="14" width="2" height="2" fill="#e8a090"/>
  <rect x="20" y="14" width="2" height="2" fill="#e8a090"/>
  <!-- Collar/Dress -->
  <rect x="8" y="20" width="16" height="8" fill="#2d5a2d"/>
  <rect x="14" y="20" width="4" height="2" fill="#e8dcc4"/>
</svg>
