<?xml version="1.0" encoding="UTF-8"?>
<svg xmlns="http://www.w3.org/2000/svg" viewBox="0 0 1672 941" width="1672" height="941">
  <title>Fields physical dolly plates</title><desc>Five registered passable planes. Camera stop is Z 3.00; pass order is F40 through F00.</desc>
  <defs><style>.reg{fill:#fff;fill-opacity:.001}.edge{stroke:#10282d;stroke-width:5;stroke-linejoin:round}.guide{stroke:#f7e2a2;stroke-width:2;stroke-dasharray:12 10}.chip{fill:#10282d;stroke:#f7e2a2;stroke-width:2}.label{font-family:Arial,sans-serif;font-weight:700;fill:#fff4c9}.note{font-family:Arial,sans-serif;fill:#fff4c9}</style></defs>
  <g id="F00_FAR_SKY_MOSAIC" data-world-z="4.75" data-pass-order="10"><rect class="reg" width="1672" height="941"/><path d="M0 0H1672V158Q1250 116 836 140T0 158Z" fill="#26383d" class="edge"/><g transform="translate(26 25)"><rect class="chip" width="380" height="58" rx="8"/><text class="label" x="16" y="25" font-size="19">F00 · WORLD Z 4.75 · FAR SKY</text><text class="note" x="16" y="47" font-size="14">Sky · mountains · distant field mosaic</text></g></g>
  <g id="F10_STATION_RAILWAY_HORIZON" data-world-z="4.40" data-pass-order="9"><rect class="reg" width="1672" height="941"/><path d="M0 108H1672V286H0Z" fill="#58b7bc" class="edge"/><path d="M804 108H868L864 224H808Z" fill="#78d2cb" class="edge"/><rect x="724" y="196" width="224" height="82" fill="#78d2cb" class="edge"/><path d="M788 220H884L892 286H780Z" fill="#d8b96d" class="edge"/><g transform="translate(28 188)"><rect class="chip" width="450" height="58" rx="8"/><text class="label" x="16" y="25" font-size="19">F10 · WORLD Z 4.40 · STATION + RAILWAY</text><text class="note" x="16" y="47" font-size="14">Rail horizon · station · boundary fence · road</text></g></g>
  <g id="F20_UPPER_FIELDS" data-world-z="4.05" data-pass-order="8"><rect class="reg" width="1672" height="941"/><path d="M0 242H1672V470H0Z" fill="#aaa74b" class="edge"/><path d="M0 256H786L769 450H0ZM886 256H1430L1672 374V450H903Z" fill="#d5bd45" class="edge"/><path d="M779 242H893L906 470H766Z" fill="#d8b96d" class="edge"/><g transform="translate(48 344)"><rect class="chip" width="380" height="58" rx="8"/><text class="label" x="16" y="25" font-size="19">F20 · WORLD Z 4.05 · UPPER FIELDS</text><text class="note" x="16" y="47" font-size="14">Wheat · sunflowers · fences · road segment</text></g></g>
  <g id="F30_LOWER_FIELDS" data-world-z="3.70" data-pass-order="7"><rect class="reg" width="1672" height="941"/><path d="M0 438H1672V785H0Z" fill="#9a8d42" class="edge"/><path d="M0 468H780L742 754H0ZM892 468H1672V754H930Z" fill="#d18b42" class="edge"/><path d="M748 438H924L965 785H707Z" fill="#d8b96d" class="edge"/><g transform="translate(52 620)"><rect class="chip" width="375" height="58" rx="8"/><text class="label" x="16" y="25" font-size="19">F30 · WORLD Z 3.70 · LOWER FIELDS</text><text class="note" x="16" y="47" font-size="14">Potatoes · beets · fences · road segment</text></g></g>
  <g id="F40_FOREGROUND_CROP_EDGE" data-world-z="3.35" data-pass-order="6"><rect class="reg" width="1672" height="941"/><path d="M0 748H1672V941H0Z" fill="#8b674a" class="edge"/><path d="M0 774H690L657 941H0ZM982 774H1672V941H1015Z" fill="#b06d53" class="edge"/><path d="M690 748H982L1015 941H657Z" fill="#d8b96d" class="edge"/><g transform="translate(1030 824)"><rect class="chip" width="520" height="58" rx="8"/><text class="label" x="16" y="25" font-size="19">F40 · WORLD Z 3.35 · FOREGROUND CROP EDGE</text><text class="note" x="16" y="47" font-size="14">Nearest crops · hedge · road edge</text></g></g>
  <g id="FIELDS_DOLLY_GUIDES"><path d="M836 0V941" class="guide"/><circle cx="836" cy="108" r="9" fill="#f7e2a2"/></g>
</svg>
