<?xml version="1.0" encoding="UTF-8" standalone="no"?>
<!-- Created with Inkscape (http://www.inkscape.org/) -->

<svg
   xmlns:dc="http://purl.org/dc/elements/1.1/"
   xmlns:cc="http://creativecommons.org/ns#"
   xmlns:rdf="http://www.w3.org/1999/02/22-rdf-syntax-ns#"
   xmlns:svg="http://www.w3.org/2000/svg"
   xmlns="http://www.w3.org/2000/svg"
   version="1.1"
   width="150"
   height="159"
   viewBox="0 0 42.333334 44.873334"
   id="svg2"
   xml:space="preserve"
   style="fill-rule:evenodd"><metadata
   id="metadata60"><rdf:RDF><cc:Work
       rdf:about=""><dc:format>image/svg+xml</dc:format><dc:type
         rdf:resource="http://purl.org/dc/dcmitype/StillImage" /><dc:title></dc:title></cc:Work></rdf:RDF></metadata>
 <defs
   id="defs4"><style
     type="text/css"
     id="style6" /><style
     type="text/css"
     id="style3072" /><style
     type="text/css"
     id="style6-4" /></defs>
 <path
   d="m 8.5344,5.452533 c -0.3556,0.6858 -0.7366,1.3716 -1.0668,2.0828 l 0.0254,0.4318 c 0.4572,-0.8128 1.143,-1.905 1.6002,-2.5908 l 0.5334,-0.0762 c -0.4572,0.6858 -0.889,1.397 -1.3208,2.1336 0.2032,-0.1524 0.4064,-0.2794 0.5842,-0.4064 0.4318,-0.6096 0.8636,-1.2192 1.2954,-1.778 l 0.6096,-0.0762 c -0.635,0.762 -1.2446,1.5748 -1.8288,2.4384 l -0.0508,0.3556 2.5146,-2.8956 0.0508,0.5588 c 0.4572,-0.6858 1.0922,-1.397 1.9558,-2.0066 l 0.0254,0.5588 c 0.3556,-0.508 0.6096,-0.9652 0.9906,-1.3208 l -0.2032,-0.6858 c -0.3048,-0.2032 -0.508,-0.5588 -0.508,-0.9398 0,-0.635 0.4826,-1.143 1.1176,-1.143 0.6096,0 1.1176,0.508 1.1176,1.143 0,0.0254 0,0.0508 0,0.0762 1.9812,0.4318 3.9116,0.6096 5.6896,0.2032 1.8796,-0.4318 4.0894,-0.4318 6.9088,1.4732 1.3716,0.9144 2.7178,1.6764 4.2418,2.1336 2.2098,0.6604 3.81,2.286 5.0292,4.5974 0.9398,1.8034 1.4732,3.683 1.778,5.6642 l 0.4826,0.1778 c 0.0508,0.9652 0.0508,1.8796 0.0254,2.8194 l 0.254,-0.5842 c 0.0508,-0.6858 0.0508,-1.397 0.0508,-2.1082 l 0.4826,0.1778 c 0,0.7874 -0.0254,1.5494 -0.1016,2.3368 l 0.2032,0.3302 c 0.1016,-0.8382 0.1778,-1.7018 0.2286,-2.5654 l 0.4572,0.1778 c -0.0762,1.0414 -0.1778,2.0574 -0.3302,3.0734 0.0762,0.1778 0.1016,0.3302 0.127,0.4826 0.254,-1.1176 0.4318,-2.2606 0.5842,-3.429 l 0.4826,0.1778 c -0.1778,1.2192 -0.4318,2.4384 -0.7112,3.6576 -0.0762,0.5334 -0.1524,1.0922 -0.254,1.651 l 0.3302,-0.127 c -0.1016,0.8382 -0.381,1.778 -0.7366,2.6162 l 0.4318,-0.1524 c -0.2032,0.889 -0.4826,1.6764 -1.016,2.3876 l 0.4064,-0.0762 c -0.2286,0.7874 -0.635,2.5654 -1.6764,3.302 -0.2286,0.9398 -0.762,1.397 -1.4224,1.778 -0.127,0.7112 -0.254,1.4478 -0.3302,2.1844 -0.1778,-0.0508 -0.3556,-0.1016 -0.5334,-0.1524 -0.127,0.5842 -0.1524,1.2446 -0.1524,1.8542 -0.3302,-0.1016 -0.635,-0.2286 -0.9398,-0.3302 -0.1016,0.5588 -0.1524,1.1176 -0.1778,1.6764 l -0.2032,-0.0762 c -0.5588,0.6096 -1.3716,1.27 -2.2098,1.5748 -0.1778,0.3048 -0.4318,0.5842 -0.7112,0.8128 0.2032,0.0762 0.3556,0.2794 0.254,0.5334 l -1.7526,4.8768 c -0.1,0.2667 -0.2545,0.413 -0.4711,0.4318 l -0.0999,0 c -0.0885,-0.007 -0.1859,-0.0323 -0.2926,-0.0762 l -4.1402,-1.651 c -0.1016,0.254 -0.2794,0.4826 -0.4826,0.6604 -0.3556,0.254 -0.8128,0.3556 -1.2192,0.2286 -0.3048,-0.0762 -0.4572,-0.2286 -0.6604,-0.4064 l -0.508,-0.4572 c -1.143,0.4318 -2.4384,0.254 -3.429,-0.4572 -0.2032,0.4318 -0.5334,0.7366 -0.9906,0.8382 -0.4826,0.1016 -0.9906,-0.0762 -1.3208,-0.4318 l -3.8354,1.524 c -0.4318,0.1778 -0.6096,0.0254 -0.762,-0.254 l -2.3368,-4.1656 c -0.2032,-0.3302 -0.1016,-0.5842 0.0762,-0.7112 l 0.3048,-0.2286 c -0.6858,-0.1778 -1.5494,-0.7366 -2.2352,-1.016 l 0.381,-0.2032 c -0.8128,-0.2032 -1.8288,-0.9906 -2.3876,-1.4224 l 0.4064,-0.127 c -0.381,-0.1778 -0.9906,-0.8128 -1.4478,-1.3208 -1.016,-0.7366 -2.0066,-1.6256 -2.921,-2.6162 l 0.1016,-0.5842 c 0.8382,0.9398 1.7018,1.8542 2.667,2.6416 l 0.5588,-0.0254 c -0.127,-0.1524 -0.2286,-0.254 -0.3048,-0.4064 -0.9398,-0.7874 -1.9812,-1.778 -2.794,-2.7686 l 0.1016,-0.5842 c 0.6858,0.8382 1.524,1.7018 2.286,2.4384 -0.1016,-0.2794 -0.2794,-0.7112 -0.3302,-0.9398 -0.635,-0.635 -1.2446,-1.3208 -1.8288,-2.0574 l 0.127,-0.6096 c 0.5334,0.7366 1.0922,1.397 1.7018,2.0574 0.4064,0.2794 0.7366,0.3302 1.1938,0.3556 -0.9906,-0.6604 -1.9812,-1.7526 -2.794,-2.794 l 0.5842,-0.0762 c -0.762,-0.6604 -1.3208,-1.5748 -1.651,-2.1082 l 0.4826,-0.0254 c -0.7366,-0.7366 -1.524,-2.159 -1.7272,-2.4638 l 0.4572,-0.0508 c -0.3048,-0.635 -0.3048,-1.4986 -0.381,-2.2352 C 0.6604,20.286133 0.254,18.203333 0,16.069733 l 0.4572,-0.2794 c 0.254,2.286 0.635,4.4958 1.2446,6.7056 l 0.3302,0.127 c -0.5334,-2.3622 -1.016,-4.699 -1.143,-7.0866 l 0.4826,-0.3048 c 0.0254,0.635 0.0508,1.2954 0.1016,1.9304 l 0.3302,-0.0508 c -0.0254,-0.7112 -0.0254,-1.4478 -0.0254,-2.159 l 0.508,-0.3048 c -0.0254,0.7874 -0.0254,1.5748 0,2.3622 l 0.2794,-0.0508 c 0.0254,-0.8636 0.0508,-1.7272 0.127,-2.5908 l 0.5334,-0.3302 c -0.1016,0.9652 -0.1524,1.905 -0.1778,2.8448 l 0.1778,-0.0254 0.0254,-0.2286 0.3556,-2.8448 0.4572,0.2286 0.0254,0.0254 c -0.381,-1.2192 0.2032,-2.4892 0.7366,-3.683 l 0.127,0.3302 c 0.1016,-0.6858 0.4318,-1.3716 0.8382,-2.0828 l 0.127,0.3048 c 0.3302,-0.635 0.8382,-1.0668 1.2192,-1.6256 l 0.889,-1.778 0.508,-0.0508 z"
   id="path10"
   style="fill:#aa8800" /><path
   d="m 32.6648,5.604933 c 3.429,0.9906 4.826,4.8006 5.5626,7.9248 -0.7874,2.7432 -2.667,5.7658 -4.4958,8.4582 -0.6858,-6.223 -5.9436,-11.0744 -12.3444,-11.0744 -1.2192,0 -2.413,0.1778 -3.556,0.508 l -2.8194,-9.2964 0.9652,-0.3048 c 1.9304,0.4064 3.8862,0.6096 5.8166,0.1778 2.3368,-0.5334 4.5466,0.0762 6.5024,1.397 1.397,0.9398 2.8702,1.7526 4.3688,2.2098 z"
   id="path12"
   style="fill:#aa0000" /><path
   d="m 34.1628,23.334233 c 0,7.0358 -5.715,12.7508 -12.7762,12.7508 -7.0358,0 -12.7508,-5.715 -12.7508,-12.7508 0,-7.0612 5.715,-12.7762 12.7508,-12.7762 7.0612,0 12.7762,5.715 12.7762,12.7762 z"
   id="path14"
   style="fill:#ffffff" /><path
   d="m 34.1628,23.334233 c 0,7.0358 -5.715,12.7508 -12.7762,12.7508 -7.0358,0 -12.7508,-5.715 -12.7508,-12.7508 0,-7.0612 5.715,-12.7762 12.7508,-12.7762 7.0612,0 12.7762,5.715 12.7762,12.7762 z"
   id="path16"
   style="fill:#ffdd55" /><path
   d="m 33.8078,23.334233 c 0,6.8326 -5.5626,12.3952 -12.4206,12.3952 -6.858,0 -12.3952,-5.5626 -12.3952,-12.3952 0,-6.858 5.5372,-12.4206 12.3952,-12.4206 6.858,0 12.4206,5.5626 12.4206,12.4206 z"
   id="path18"
   style="fill:#aa0000" /><path
   d="m 32.7658,23.334233 c 0,6.2738 -5.1054,11.3538 -11.3792,11.3538 -6.2738,0 -11.3538,-5.08 -11.3538,-11.3538 0,-6.2738 5.08,-11.3792 11.3538,-11.3792 6.2738,0 11.3792,5.1054 11.3792,11.3792 z"
   id="path20"
   style="fill:#ffffff" /><path
   d="m 32.7658,23.334233 c 0,6.2738 -5.1054,11.3538 -11.3792,11.3538 -6.2738,0 -11.3538,-5.08 -11.3538,-11.3538 0,-6.2738 5.08,-11.3792 11.3538,-11.3792 6.2738,0 11.3792,5.1054 11.3792,11.3792 z"
   id="path22"
   style="fill:#ffdd55" /><path
   d="m 32.4108,23.334233 c 0,6.0706 -4.9276,10.9982 -11.0236,10.9982 -6.0706,0 -10.9982,-4.9276 -10.9982,-10.9982 0,-6.096 4.9276,-11.0236 10.9982,-11.0236 6.096,0 11.0236,4.9276 11.0236,11.0236 z"
   id="path24"
   style="fill:#4c4c4c" /><path
   d="m 17.766895,27.237233 c -0.0773,-0.0515 -0.3092,-0.2576 -0.438,-0.2576 -0.644,-0.0773 -1.3139,-0.0773 -1.9837,-0.0258 -0.02571,-0.5925 -0.102995,-0.9532 -0.02571,-1.5457 0.05151,-0.2576 0.257605,-0.5152 0.412105,-0.7214 0.1288,-0.1546 0.3607,-0.3607 0.4122,-0.541 0.0774,-0.3607 -0.4637,-0.7471 -0.5925,-1.0563 l -0.0257,-0.0773 0.0257,-0.103 c 0.0773,-0.2576 0.4122,-0.644 0.2576,-0.8759 l -0.489405,-0.5153 c -0.5152,-0.5925 1.597205,-2.1382 1.365405,-2.3443 -0.2061,-0.1803 -0.4122,-0.335 -0.5926,-0.5411 -0.0515,-0.0515 -0.0773,-0.1545 -0.0773,-0.2318 0.1288,-0.3607 0.438,-0.4637 0.5411,-0.541 0.0773,-0.103 0,-0.2576 0.0773,-0.5411 0.1545,-0.7213 0.4894,-1.4427 0.9789,-2.0609 0.5668,-0.7471 1.3911,-1.3912 2.2156,-1.7003 1.623,-0.5925 3.5036,-0.438 5.0236,0.2833 0.979,0.438 2.344395,1.1078 3.039995,3.143 0,0.2319 0.2319,0.7472 0.4123,1.1594 0.103,0.2576 0.206,0.4894 0.2318,0.6182 0,0.0515 0.0258,0.1289 0.0773,0.232 0.1288,0.4379 0.3606,1.185 0.1288,1.9064 -0.0258,0.103 -0.0773,0.2833 -0.1288,0.4379 -0.2319,0.7214 -0.4637,1.4427 -0.7729,1.8549 -0.1546,0.2577 -0.3607,0.5153 -0.5153,0.7729 -0.1803,0.2576 -0.4379,0.5667 -0.5152,0.7213 -0.103,0.1804 -0.257695,0.5153 -0.1288,0.5926 0.644,0.4121 1.1593,0.7728 1.8549,1.082 l 2.7051,1.2108 c -0.1208,0.4294 -0.2296,0.8674 -0.3386,1.3065 -1.9147,3.259 -5.457595,5.4595 -9.491795,5.4537 -3.6551,-0.005 -6.927305,-1.8205 -8.938805,-4.5951 l 5.295405,-2.5 z"
   id="path3257"
   style="fill:#cccccc" /><path
   d="m 77.6875,46.15625 c -0.524004,3.67e-4 -1.068853,0.02826 -1.59375,0.0625 -2.008346,0.18248 -4.114675,0.644724 -6.03125,1.375 -2.921457,1.095236 -5.929154,3.261378 -7.9375,6 -1.825512,2.28189 -3.014705,4.850463 -3.5625,7.40625 -0.273898,1.004528 0.02121,1.540935 -0.34375,1.90625 -0.273898,0.273543 -1.478789,0.659783 -1.84375,1.9375 -0.09142,0.273898 0.005,0.632707 0.1875,0.90625 0.638858,0.730276 1.457579,1.267392 2.1875,1.90625 0.821693,0.730276 -6.854783,6.306841 -4.9375,8.40625 l 1.75,1.8125 c 0.547795,0.821339 -0.540935,2.305994 -0.90625,3.21875 l -0.09375,0.25 0.09375,0.375 c 0.456378,1.095591 2.458711,2.472283 2.09375,3.75 -0.09142,0.730276 -0.918622,1.452205 -1.375,2 -0.638858,0.73063 -1.38002,1.649744 -1.5625,2.5625 l 0,0.09375 c -0.273898,2.008346 0,3.369341 0,5.46875 2.46437,-0.182835 4.845443,-0.180148 7.21875,0.09375 0.456378,0 1.382352,0.72377 1.65625,0.90625 l -18.5,8.75 c 0.258307,0.35681 0.51125,0.7149 0.78125,1.0625 l 19.8125,-9.625 c -0.821339,-1.460551 -1.366654,-2.09375 -3.375,-2.09375 -1.278071,0 -4.195699,0.0027 -5.65625,0.09375 -0.09106,-1.186654 -0.278563,-3.647411 -0.1875,-4.46875 0.18248,-1.825866 1.631998,-1.834557 1.90625,-2.65625 0.273898,-0.456378 0.747667,-0.91127 0.65625,-1.09375 -0.273898,-1.004173 0.179793,-2.022411 -0.09375,-2.84375 -0.547795,-1.278425 -2,-1.644724 -2,-2.375 0.09142,-0.821339 0.884685,-1.707224 1.25,-2.4375 0.182835,-0.273898 0.728789,-0.939833 1.09375,-1.03125 0.364961,-0.18248 -0.637018,0.112628 -1.09375,-0.34375 -3.468543,-2.373661 -2.461545,-2.305847 1.28125,-6.6875 0.912756,-0.821339 2.293622,-2.462244 2.75,-3.375 0.09142,-0.18248 -0.466417,-0.34877 -0.375,-0.53125 1.186654,-2.830039 0.454045,-2.470236 -0.09375,-1.375 -0.18248,0.365315 -1.1875,0.375 -1.1875,0.375 l -1.1875,-0.90625 C 57.920955,64.665935 58.48614,64.023898 59.125,63.75 c 0.18248,-0.09142 0.535915,-0.360787 0.71875,-1 0.730276,-3.195 2.39437,-7.236142 3.125,-7.875 l 0,-0.09375 c 0.09142,-0.182835 0.25502,-0.444852 0.4375,-0.71875 0.182835,-0.273898 0.444852,-0.541289 0.71875,-0.90625 1.643031,-1.825512 3.561506,-3.305994 5.84375,-4.21875 1.916929,-0.821693 4.025591,-1.252687 6.125,-1.34375 4.199173,-0.273898 8.582431,0.81186 12.78125,3.09375 2.190827,1.187008 4.644724,3.550974 5.375,4.28125 0.639213,0.638858 2.940187,3.664449 3.03125,5.125 0.182835,2.008346 0.988474,2.736988 1.71875,4.5625 0.456378,0.912756 0.822185,1.901722 1.1875,2.90625 0.91276,2.555433 0.91276,4.944213 0,7.5 -0.822047,2.465079 -1.897411,4.830384 -2.71875,6.65625 C 96.829537,82.905404 95.446339,84.813346 94.625,86 c -0.639213,0.912756 -1.444852,1.110787 -1.71875,1.75 -0.729921,1.369488 -0.753819,1.827559 0.25,2.375 l 0.5625,0.1875 6.84375,3.90625 c 0.45638,0.273543 1.0147,0.283583 1.5625,0.375 l 7.28125,3.28125 c -0.39189,1.393937 -1.30585,4.73788 -2.3125,8.09375 1.31811,-1.76244 2.49016,-3.6528 3.5,-5.625 0.21083,-0.829843 0.42771,-1.655915 0.65625,-2.46875 L 101.46875,93.5 c -2.464724,-1.095945 -4.37436,-2.477303 -6.65625,-3.9375 -0.456378,-0.273898 0.103789,-1.454537 0.46875,-2.09375 0.273898,-0.547795 1.173642,-1.743494 1.8125,-2.65625 0.547795,-0.821339 1.267392,-1.80564 1.90625,-2.71875 1.09559,-1.460551 1.92866,-4.100108 2.75,-6.65625 0.18248,-0.547795 0.38002,-1.197185 0.5625,-1.5625 0.82134,-2.556142 -0.10612,-5.292136 -0.5625,-6.84375 -0.18248,-0.365669 -0.18983,-0.629665 -0.28125,-0.8125 -0.0911,-0.456378 -0.44754,-1.308327 -0.8125,-2.3125 C 100.01739,62.446053 99.1875,60.633839 99.1875,59.8125 96.631713,52.509744 91.718898,50.143031 88.25,48.5 84.975674,46.982357 81.355527,46.153682 77.6875,46.15625 z"
   transform="scale(0.28222223,0.28222223)"
   id="path3499"
   style="fill:#1a1a1a" /><path
   d="m 18.2032,27.425233 c -0.1113,0.6643 -0.5151,3.1579 -0.359,3.4702 0.0773,0.1545 0.0515,0.2834 0.2834,0.3606 0.2576,0.0773 0.4637,0.1031 0.7728,0.1288 0.2835,0.0258 0.438,-0.0257 0.438,0.1288 0,0.1546 -0.3607,0.4895 -0.6183,0.7987 -0.2576,0.3349 -0.438,0.5925 -0.4637,0.7471 -0.0521,0.3423 0.1215,0.65 0.3836,0.9129 -0.2025,-0.0532 -0.4022,-0.1125 -0.6002,-0.1768 -0.1307,-0.2511 -0.188,-0.5181 -0.1183,-0.7619 0.1288,-0.4122 0.5667,-0.6698 0.5667,-1.1593 0,-0.0773 -0.3606,-0.1288 -0.5925,-0.2319 -0.2061,-0.0772 -0.3092,-0.2318 -0.3865,-0.3091 -0.3388,-0.3613 0.1939,-2.6241 0.3997,-3.6624 0.0024,-0.0674 -0.0112,-0.1247 -0.0647,-0.1247 -0.1288,0 -0.4638,0.1803 -0.4638,0.1803 l -0.103,-0.1545 c 0,0 0.1803,-0.0773 0.2833,-0.2061 0.1289,-0.1031 0.3093,-0.2319 0.0773,-0.3092 -0.2318,-0.0772 -0.1803,-0.4121 0.1289,-0.3091 0.3349,0.1031 0.7213,0.2834 0.7213,0.2834 0,0 0.1031,0.103 0.3607,0.103 0.2576,0 0.6956,0.2319 0.6956,0.2319 l 0.3091,0.1803 1.6488,0.7987 c 0,0 1.2109,0.0257 1.52,0 0.3091,0 0.6699,-0.4379 1.3912,-1.1336 0.7471,-0.6955 2.2156,-2.7823 2.2156,-2.7823 l -0.0516,0.9017 c 0,0.0137 -0.1043,0.1336 -0.2761,0.3201 0.0196,0.765 -0.204,3.3493 -0.3164,4.1625 -0.1468,1.3377 -0.4283,2.8507 -0.6147,3.7808 -0.1994,0.0774 -0.4015,0.149 -0.6062,0.2149 -0.0223,-0.1602 -0.0466,-0.2962 -0.0672,-0.3375 -0.2701,-0.4419 -0.704,-1.0712 -1.0564,-1.5084 -0.2093,-0.261 -0.0452,-0.0409 -0.1287,-0.1661 -0.1546,-0.1546 -0.7986,0.0258 -0.9532,0.1288 -0.1545,0.1031 -0.2576,0.3608 -0.2833,0.6184 -0.0189,0.1876 -0.0651,0.5256 -0.0887,0.6952 0.1387,0.2406 0.4388,0.6476 0.7036,0.9938 -0.1095,0.0148 -0.2194,0.0283 -0.3299,0.0399 l -1.0064,-1.6774 c -0.216,-0.3599 -1.5267,-3.1773 -2.4133,-4.9987 -0.0829,-0.0949 -0.1888,-0.1796 -0.1888,-0.1796 l -0.3606,-0.103 c -0.0258,0 -0.1031,-0.0516 -0.3349,0.0772 -0.0201,0.0101 -0.0376,0.0212 -0.0532,0.0336 z m 1.3781,0.2926 c -0.0321,-2e-4 -0.0589,0.003 -0.0745,0.0125 0.155,0.3162 0.7217,1.4747 0.9651,2.0058 0.0877,0.1831 0.2366,0.4967 0.4154,0.8701 l 0.8212,-1.5143 1.623,-0.0772 c 0.4381,-0.0258 1.3139,1.185 1.5458,1.4427 0.2834,0.2833 0.5411,0.6441 0.5411,0.6441 0,0 0.0515,0.1803 0.1288,-0.2061 0.2901,-1.4509 0.4895,-4.6037 0.5128,-4.9855 -0.926,0.9837 -2.7868,2.8729 -2.9603,2.8729 l -1.7003,0.0258 -1.8181,-1.0908 z m 2.368,5.0636 c -0.3239,-0.6401 -0.7351,-1.4925 -1.0544,-2.1593 l 1.3289,1.2522 c 0,0 -0.1804,0.1288 -0.2062,0.3606 -0.0337,0.1692 -0.0566,0.4044 -0.0683,0.5465 z m 3.1071,0.4824 c -0.9264,-1.1322 -1.1323,-1.4928 -1.0807,-1.9305 0.0515,-0.541 0.3091,-1.0563 0.3091,-1.0563 0.4122,0.3864 0.979,0.9533 0.979,1.5715 0,0.2174 -0.1358,0.7745 -0.1529,0.9705 -0.0125,0.1484 -0.0357,0.297 -0.0545,0.4448 z m -1.4919,-1.9817 c 0.0537,-0.2871 0.151,-0.5863 0.2051,-0.7217 0.103,-0.2834 0.1803,-0.7213 0.1545,-0.8243 -0.0257,-0.1031 -0.541,-0.4122 -0.7986,-0.4122 -0.2577,0 -1.1594,-0.0516 -1.2882,0.1545 -0.1288,0.1804 -0.5667,0.7471 -0.4122,1.0562 0.1546,0.3093 1.0306,1.1336 1.0306,1.1336 0,0 0.2061,-0.103 0.644,-0.1803 0.2061,-0.0515 0.3606,-0.0515 0.4379,-0.0515 0.0089,-0.0514 0.0174,-0.1031 0.0269,-0.1543 z m 4.0179,-5.2301 c 0.4894,0.7471 0.9017,1.5972 1.0305,2.5247 0.0773,0.438 0.2061,0.9533 -0.1288,1.2882 -0.3607,0.3348 -0.4381,0.3348 -0.8245,0.5409 -0.3864,0.2319 -0.5667,0.2319 -0.5667,0.2319 l 1.4427,0.7729 c 0.0458,0.0153 -0.0262,0.1928 -0.1297,0.3996 0.199,-0.1647 0.392,-0.3363 0.579,-0.5143 l -1.0677,-0.6067 c 0,0 0.3093,-0.2318 0.5926,-0.4637 0.2834,-0.2576 0.3864,-0.4894 0.4637,-0.6955 0.1288,-0.232 0.2576,-1.0563 -0.2318,-2.1384 -0.0773,-0.206 -0.3349,-0.6697 -0.4122,-0.8243 -0.103,-0.1546 -0.7471,-0.5153 -0.7471,-0.5153 z"
   id="path30"
   style="fill:#1a1a1a" /><path
   d="m 23.511899,23.579233 1.1335,-0.0516 c 0.0258,0.0516 -0.103,0.1804 -0.1803,0.1804 -0.4122,0.0257 -1.4684,0.1288 -1.1851,0 l 0.2319,-0.1288 z m -0.3349,0.3864 1.1593,-0.0773 c 0,0.0773 -0.1288,0.2061 -0.1803,0.2061 -0.4122,0.0257 -1.4942,0.1288 -1.2109,0 l 0.2319,-0.1288 z m -0.3349,0.4121 1.1336,-0.0772 c 0,0.0515 -0.1031,0.1803 -0.1804,0.1803 -0.4122,0.0257 -1.4942,0.1288 -1.1851,0 l 0.2319,-0.1031 z m -0.3607,0.3865 1.1335,-0.0773 c 0,0.0773 -0.103,0.1804 -0.1803,0.1804 -0.4122,0.0258 -1.4942,0.1546 -1.185,0 l 0.2318,-0.1031 z m -0.541,0.438 1.1335,-0.0515 c 0,0.0515 -0.103,0.1803 -0.1803,0.1803 -0.4122,0.0257 -1.4685,0.1288 -1.1851,0 l 0.2319,-0.1288 z m 2.1898,-2.6793 c 0,0 -0.0773,-0.1031 -0.0515,-0.2319 0.0515,-0.103 0.103,-0.1545 0.2061,-0.2833 0.0773,-0.1288 0.2576,-0.2577 0.3091,-0.335 0.0773,-0.1031 0.1031,-0.2576 0.1031,-0.3864 0,-0.1288 0.0515,-0.2834 0.0772,-0.3607 0.0258,-0.103 0.1288,-0.3864 0.2834,-0.5152 0.1289,-0.1289 0.4896,-0.2577 0.6699,-0.1547 0.1545,0.1031 0.2576,0.3093 0.2576,0.4381 l 0,0.3606 c 0,0.0773 0,0.2061 -0.0773,0.3607 -0.0773,0.1545 -0.1803,0.4121 -0.2576,0.4895 -0.0773,0.0773 -0.3091,0.3091 -0.4379,0.3607 -0.1031,0.0515 -0.2835,0.2061 -0.335,0.2318 -0.0773,0.0258 -0.1031,-0.0773 0.0257,-0.2061 0.1031,-0.1288 0.3093,-0.2576 0.4381,-0.3606 0.1288,-0.0773 0.3091,-0.2577 0.3349,-0.3608 0.0257,-0.0772 0,-0.0772 0,-0.1545 0.0257,-0.0773 0.1288,-0.0258 0.1288,-0.1288 0,-0.1031 -0.0258,-0.3607 -0.0258,-0.438 -0.0258,-0.103 -0.0258,-0.1803 -0.0773,-0.2576 -0.0773,-0.0515 -0.0773,-0.103 -0.2061,-0.103 -0.1545,0 -0.2318,-0.0515 -0.2576,0.0515 -0.0257,0.1031 0.0516,0.1031 -0.0257,0.1803 -0.0516,0.0516 -0.1289,0.0516 -0.1289,0.1546 0,0.103 0.1031,0.0258 0.1289,0.1288 0.0257,0.103 0.1545,0.103 0.1288,0.2576 -0.0258,0.1288 0.0257,0.2319 -0.0773,0.3864 -0.1288,0.1546 -0.2577,0.2835 -0.2577,0.2835 0,0 -0.1288,0.0773 -0.1803,-0.0258 -0.0516,-0.1289 -0.1546,0 -0.1804,0.0773 -0.0515,0.103 -0.1803,0.1288 -0.2833,0.2061 -0.0773,0.0773 -0.1031,0.103 -0.1288,0.1803 -0.0258,0.0773 -0.1031,0.1546 -0.1031,0.1546 z m 0.3607,-1.6488 c 0,0 -0.1288,-0.0773 -0.1288,-0.2061 0,-0.1288 0.0772,-0.1803 0.0772,-0.2576 0,-0.0774 -0.0772,-0.1289 -0.1803,-0.1031 -0.103,0.0257 -0.2061,0.0257 -0.3091,-0.1031 -0.103,-0.103 -0.1803,-0.0515 -0.2576,-0.1545 -0.0774,-0.1031 -0.232,-0.2061 -0.232,-0.2061 0,0 -0.1288,-0.1804 -0.1288,-0.2576 0,-0.0773 -0.0257,-0.1804 -0.0257,-0.1804 0,0 0.0515,0.0773 0.1545,0.1288 0.1031,0.0258 0.1805,0.0516 0.2835,0.0773 0.1031,0.0258 0.2576,0.1031 0.2834,0.0258 0,-0.0773 -0.1546,-0.1288 -0.2061,-0.2319 -0.0773,-0.0772 -0.2062,-0.1545 -0.3092,-0.2318 -0.1288,-0.0773 -0.1804,-0.103 -0.2319,-0.2061 -0.0515,-0.0773 -0.103,-0.2062 -0.103,-0.2062 l -0.1546,-0.1288 -0.0773,-0.2061 -0.1288,-0.1545 -0.0257,-0.2061 c 0,0 -0.1804,0.0257 -0.1804,-0.1031 0,-0.103 0.0516,-0.2318 0.1031,-0.3348 0.0773,-0.1031 0.2061,-0.2578 0.2318,-0.1804 0.0258,0.0773 0.1546,0.1031 0.1546,0.2061 0,0.0773 0.0773,0.2319 0,0.2576 -0.0515,0 -0.0773,-0.1288 -0.1546,-0.1288 -0.0773,0.0258 -0.103,0.1031 -0.103,0.1031 l 0.103,0.3606 c 0,0 0.1546,0.2061 0.2576,0.2061 0.1031,0 0.2834,0.0258 0.2834,0.0258 0,0 0.1547,0.0257 0.2319,0.0515 0.1031,0.0515 0.2834,0.0515 0.3607,0.0773 0.0773,0 0.2576,0.1288 0.2576,0.1288 0,0 0.0515,0.1288 -0.0515,0.1546 -0.1288,0 -0.1546,0.1031 -0.2319,0.1031 -0.0772,0 -0.103,-0.0516 -0.206,-0.0516 -0.1031,0 -0.2061,-0.0257 -0.1804,0.0516 0.0515,0.103 0.2834,0.1545 0.2834,0.2576 0,0.103 0.1803,0.1545 0.1803,0.1545 l 0.1546,0.1546 c 0,0 0.0515,0.0258 0.1288,0.0258 0.0773,0 0.2318,-0.0773 0.2318,-0.0773 0,0 -0.103,0.1288 -0.103,0.2061 0,0.103 0.103,0.1803 0.1546,0.1288 0.0772,-0.0773 0,-0.1288 0.0772,-0.1804 0.1031,-0.0257 0.2319,-0.0257 0.2319,-0.103 0,-0.0515 0.0257,-0.103 -0.1546,-0.103 -0.1803,0 -0.2833,-0.1031 -0.2833,-0.1031 0,0 -0.0516,-0.0773 0.103,-0.0773 l 0.5153,0 c 0,0 -0.0258,-0.103 -0.1289,-0.103 l -0.3606,0 c -0.1031,0 -0.2061,0.0258 -0.2834,0 -0.0773,-0.0515 -0.1803,-0.1288 -0.0773,-0.1546 0.1288,-0.0257 0.3091,-0.103 0.4379,-0.103 0.1546,0 0.3608,-0.0258 0.4123,-0.0258 l 0.6698,0 c 0,0 0.1803,0.0515 0.1803,-0.0516 0,-0.103 -0.1803,-0.1546 0,-0.1546 l 0.3091,0 c 0.1546,0 0.2577,-0.0257 0.3866,0 0.103,0 0.0515,-0.1803 0.2833,0.0516 0.2061,0.2061 0.3607,0.3092 0.3864,0.3607 0,0.0773 0.1031,0.2061 0.1031,0.2061 0,0 -0.1288,-0.0773 -0.2576,-0.103 -0.1288,0 -0.1804,-0.0516 -0.2576,-0.1288 -0.0516,-0.0773 -0.1546,-0.1289 -0.2834,-0.1804 -0.1547,-0.0516 -0.232,-0.0774 -0.3092,-0.0516 -0.0773,0.0258 -0.0773,0.1289 -0.0773,0.1289 0,0 0.103,-0.0258 0.2318,0 0.1289,0.0515 0.2577,0.1031 0.2577,0.1031 0,0 -0.0772,0.0257 -0.1288,0.103 -0.0515,0.103 -0.0515,0.2061 0.1288,0.1546 0.1546,-0.0516 0.2576,-0.0773 0.2834,0 0,0.0772 0,0.2576 0.1546,0.2576 l 0.2576,0 c 0.0773,0 0.2318,-0.0258 0.2576,0.103 0.0257,0.1546 0.0257,0.2576 0.0773,0.3349 0.0772,0.0773 0.1545,0.0515 0.1545,0.1803 l 0,0.5411 -0.1288,-0.0515 c -0.103,-0.0258 -0.2318,-0.0258 -0.2318,0.0515 0,0.0515 0.103,0.0773 0.1288,0.1803 0,0.0773 0.0773,0.2061 0.0515,0.3091 -0.0258,0.1031 0,0.2319 -0.103,0.2577 -0.1288,0.0257 -0.1804,0.0772 -0.2577,0.1288 -0.0772,0.0515 -0.1288,0.0772 -0.1288,0.0772 0,0 0.1804,-0.1545 0,-0.1545 -0.1803,0 -0.2318,0.0515 -0.2318,0.0515 0,0 -0.1546,0.103 -0.103,0.1288 0.0772,0.0258 0.0772,0.0258 0.206,0.0258 l 0.2576,0 c 0,0 0.2061,-0.0258 0.1546,0.0515 -0.0515,0.0774 -0.0515,0.1546 -0.1546,0.1546 -0.103,0 -0.206,-0.0515 -0.206,0.0516 0,0.103 0.0772,0.206 0.0772,0.206 l 0.1031,0.0258 c 0,0 0.0773,0.0773 0.0773,0.1288 l 0,0.2834 -0.0516,0.103 c 0,0 -0.0257,-0.2061 -0.0772,-0.2833 -0.0516,-0.0773 -0.1546,-0.1804 -0.2061,-0.1804 -0.0773,0 -0.0773,0.1288 -0.0773,0.1288 0,0 0.0258,0.1031 0,0.1804 0,0.0772 -0.0515,0 -0.103,-0.0516 -0.0773,-0.0772 -0.0773,-0.0772 -0.0773,-0.206 0,-0.1546 0.0257,-0.2577 -0.1031,-0.2577 -0.1288,0.0258 -0.1803,0.1031 -0.1803,0.2577 0,0.1545 -0.0516,0.3091 0,0.3091 0.0773,0 0.2061,-0.1031 0.2061,0 0,0.0773 -0.0515,0.1803 0.0258,0.1803 0.0772,0 0.0772,-0.0258 0.206,-0.0515 0.1288,-0.0258 0.2061,-0.0515 0.2061,0.0257 0,0.0773 0.0258,0.1804 -0.0773,0.2577 -0.0772,0.0515 -0.2576,0.0772 -0.2576,0.0772 l 0.2061,0.0516 c 0,0 0.0773,0.1546 -0.0515,0.1546 -0.1546,0 -0.7729,0.0258 -0.9017,0.0258 -0.1288,0 -0.3349,0.0257 -0.438,0.0257 -0.103,0 -0.3348,-0.0515 -0.3348,-0.0515 0,0 0.0515,-0.1031 0.1288,-0.1031 0.0772,0 0.206,0 0.2833,-0.0515 0.0773,-0.0258 0.2576,-0.1288 0.2576,-0.2061 l 0,-0.2319 c 0,-0.0773 -0.1288,-0.1288 -0.2318,-0.0773 -0.1288,0.0516 -0.3091,0 -0.3091,0.0773 0,0.1031 0.0515,0.1288 0.0515,0.1288 0,0 0.3349,0 0.3349,0.0773 0,0.0773 -0.0258,0.1288 -0.1546,0.1288 -0.1288,0 -0.2834,-0.0257 -0.3864,0 -0.0773,0 -0.1803,0.0258 -0.2061,0.1031 -0.0258,0.103 -0.0515,0.1804 -0.1289,0.1804 -0.0773,0 -0.9274,0.0257 -1.0562,0.0773 -0.1288,0.0257 -0.3606,0.0257 -0.3606,0.0257 0,0 -0.1547,-0.1546 -0.0259,-0.1546 0.1031,0 0.3092,-0.0516 0.3092,-0.0516 0,0 -0.0515,-0.0515 -0.1545,-0.1288 -0.0773,-0.0772 -0.1288,-0.1545 -0.1288,-0.2576 0,-0.103 -0.0774,-0.1803 0.0257,-0.2833 0.0773,-0.0773 0.2061,-0.0773 0.2061,-0.0773 0,0 0.1546,0.1545 0.1546,0.2833 0,0.1546 0,0.2319 0.1288,0.2319 0.1288,0.0258 0.2833,0.0515 0.3864,0.0515 0.1288,0 0.2061,-0.0257 0.2318,-0.1288 0.0258,-0.0773 0.0516,-0.1546 0.1546,-0.1546 0.1288,0 0.2062,-0.0772 0.3092,-0.1288 0.1031,-0.0515 0.3092,-0.103 0.3607,-0.1803 0.0773,-0.103 0.2318,-0.3349 0.3349,-0.4122 0.1288,-0.0772 0.2833,-0.206 0.2833,-0.3092 0,-0.103 0.0258,-0.2061 0.0773,-0.2833 0.0258,-0.1031 0.0515,-0.1289 0.0515,-0.2577 l 0,-0.2833 c 0,-0.0515 -0.0515,-0.1031 -0.0257,-0.2061 0,-0.103 0.0257,-0.2319 0.0257,-0.2319 0,0 -0.1288,-0.0772 -0.1803,-0.1546 -0.0773,-0.0773 -0.0773,-0.1546 -0.1545,-0.2576 -0.0773,-0.1031 -0.1546,-0.2061 -0.3092,-0.2061 -0.1803,0 -0.3349,0.0258 -0.4121,0.0258 -0.1031,0.0257 -0.232,0.103 -0.3093,0.1545 -0.0773,0.0515 -0.1545,0.1803 -0.2318,0.2834 -0.0515,0.1289 -0.0773,0.1546 -0.1288,0.2835 -0.0515,0.103 -0.0515,0.1803 -0.0515,0.1803 l -0.0773,0.0515 z m 2.0352,-0.7472 c 0,0 0.1289,0.2577 0.1289,0.3865 0,0.1289 0.0515,0.2834 0.0515,0.3865 0,0.0772 -0.0258,0.1545 -0.0773,0.2833 -0.0516,0.1288 -0.1031,0.2061 -0.1031,0.2061 l 0,-1.2624 z m 0.3865,0.0516 c 0.1803,0.103 0.3091,0.1288 0.3091,0.2319 l 0,0.2576 c 0,0 0.103,0.1031 0.103,0.2319 0,0.1288 -0.1803,0.2318 -0.1803,0.2318 0,0 -0.0257,0.0258 -0.0257,-0.1288 l 0,-0.3349 -0.1031,-0.2834 -0.103,-0.2061 z m 0.3349,-0.2576 c 0.0772,0.0257 0.1803,0.0515 0.1803,0.0515 l 0.1546,0.2318 c 0,0 0.0257,0.0773 0.0257,0.1804 0,0.1288 -0.0515,0.2834 -0.0773,0.2061 0,-0.0773 -0.0515,-0.2577 -0.1288,-0.3607 -0.0773,-0.1031 -0.1803,-0.1288 -0.1803,-0.2319 0,-0.103 0.0258,-0.0772 0.0258,-0.0772 z m -0.7214,-0.7213 -0.1546,-0.0516 -0.1288,0 0.1288,0.1031 0.1546,0.0515 0,-0.103 z m -0.7986,4.3538 1.1336,-0.0773 c 0.0257,0.0773 -0.1031,0.2061 -0.1804,0.2061 -0.4122,0.0258 -1.4684,0.1288 -1.1851,0 l 0.2319,-0.1288 z m -0.1288,0.4122 1.082,-0.0773 c 0,0.0773 -0.1289,0.2061 -0.1804,0.2061 -0.4122,0.0257 -1.4427,0.1288 -1.1335,0 l 0.2319,-0.1288 z m -0.1546,0.3349 1.0047,-0.0773 c 0,0.0773 -0.1288,0.2061 -0.1803,0.2061 -0.4122,0.0257 -1.3397,0.1288 -1.0562,-0.0258 l 0.2318,-0.103 z m -0.1545,0.3864 1.1334,-0.0773 c 0,0.0773 -0.103,0.2061 -0.1803,0.2061 -0.4122,0.0258 -1.4685,0.1289 -1.1851,-0.0258 l 0.232,-0.103 z m -0.1031,0.4122 1.1592,-0.0772 c 0,0.0772 -0.1288,0.1803 -0.206,0.1803 -0.4122,0.0257 -1.4685,0.1288 -1.1851,0 l 0.2319,-0.1031 z m -1.6231,-7.2907 c 0.0774,0.0515 0.0774,0.103 0.1546,0.1803 0.0773,0.0773 0.1804,0.103 0.2319,0.1288 0.0773,0.0258 0.103,0 0.2061,0 0.0773,0.0258 0.1288,-0.0258 0.1545,0.0258 0,0.0773 0.0773,0.103 0.0773,0.103 0,0 0.0515,0.0515 0.1288,0.0515 0.0773,-0.0257 0.1288,-0.0257 0.1288,0.0516 0,0.0515 -0.0515,0.1288 -0.0515,0.1288 0,0 -0.1288,0.0257 -0.2061,-0.0258 -0.0515,-0.0773 -0.103,-0.103 -0.2061,-0.103 -0.0772,0.0257 -0.1545,0.0257 -0.2318,0.0257 -0.0773,0 -0.1546,0.0515 -0.2061,0 -0.0773,-0.0515 -0.335,-0.103 -0.3607,-0.1545 -0.0516,-0.0258 -0.1288,-0.1031 -0.1546,-0.1546 l 0,-0.1546 c 0,-0.0515 0.0515,-0.0515 0.0515,-0.0515 l 0.1031,0.1288 c 0,0 0.1288,0.0773 0.1288,0 l 0,-0.1288 0.0515,-0.0515 z m 0.8759,0.9274 c 0,0 0.0258,-0.0773 0.1289,-0.1288 0.0772,-0.0258 0.1545,-0.0258 0.2318,-0.0773 0.0773,-0.0258 0.1288,-0.0515 0.1803,-0.0515 0.0515,0 0.1804,-0.0258 0.3093,-0.0258 0.1288,0 0.2576,-0.0773 0.3348,-0.103 0.0516,-0.0258 0.0516,-0.0516 0.1546,-0.0516 0.0773,0 0.0773,-0.0515 0.2061,0 0.1288,0.0516 0.2318,0.0516 0.2318,0.1031 0,0.0773 -0.0257,0.0773 -0.1803,0.0773 -0.1803,0 -0.3864,0.0257 -0.4379,0.0257 -0.0515,0 -0.2319,0.0258 -0.3091,0.0773 -0.0773,0.0773 -0.2835,0.1803 -0.335,0.1803 -0.0516,0 -0.2319,-0.0515 -0.2834,0 -0.0515,0.0258 -0.103,0.0773 -0.1546,0.0773 -0.0515,0 -0.0773,-0.103 -0.0773,-0.103 z m -1.1593,-1.7776 c 0,0 0.1546,0.0257 0.1803,0.103 0,0.1031 0.1546,0.2576 0.1805,0.2834 0.0257,0.0516 0.1288,0.1547 0.1545,0.1804 0.0516,0.0258 0.1288,0.0515 0.2061,0.0773 0.0773,0.0515 0.1288,0.0773 0.2061,0.1546 0.103,0.0772 0.1803,0.1545 0.2576,0.1545 0.0515,0 0.0515,-0.0515 0.0515,-0.103 0,-0.0258 -0.0773,-0.1546 -0.1288,-0.2061 -0.0515,-0.0258 -0.103,-0.0773 -0.1803,-0.0773 -0.0773,0 -0.1288,0 -0.2061,-0.0515 -0.0515,-0.0515 -0.103,-0.0773 -0.1288,-0.1547 -0.0515,-0.0773 -0.1803,-0.2318 -0.1803,-0.2318 0,0 -0.0258,-0.1031 -0.0515,-0.1288 -0.0259,-0.0515 -0.0774,-0.1288 -0.0259,-0.1546 0.0259,-0.0257 0.1289,0.0258 0.1289,0.0258 0,0 0.0515,0.0515 0.0515,0.103 0.0258,0.0773 0.1031,0.2319 0.1546,0.2576 0.0258,0.0515 0.103,0.1031 0.2061,0.1288 0.0773,0.0258 0.2576,0.0774 0.2833,0.1289 0.0516,0.0516 0.1031,0.1031 0.2061,0.1804 0.1031,0.0772 0.1288,0.0772 0.2576,0.1288 0.1288,0.0515 0.2062,0.0772 0.335,0.103 0.1288,0 0.2576,0 0.3349,0.0258 0.0773,0.0257 0.2834,0.1288 0.2834,0.1288 0,0 0.1546,0.103 0.0773,0.103 -0.1031,0 -0.2319,0.0258 -0.3607,0.0258 -0.1288,0 -0.1803,0.0257 -0.2576,-0.0258 -0.103,-0.0773 -0.1803,-0.0773 -0.2835,-0.1288 -0.0772,-0.0258 -0.1545,-0.0773 -0.206,-0.0773 -0.0516,0.0258 -0.1031,0.1031 -0.1031,0.1031 0,0 0,0.0772 0.0258,0.103 0.0515,0 0.1288,0 0.1288,0.0515 0,0.0773 -0.0515,0.0773 -0.1546,0.0258 -0.103,-0.0515 -0.1803,-0.1031 -0.2834,-0.1031 -0.103,0 -0.1545,-0.0257 -0.206,-0.0772 -0.0516,-0.0516 -0.1546,-0.0773 -0.2576,-0.1546 -0.0773,-0.0773 -0.1804,-0.0773 -0.2061,-0.1546 -0.0258,-0.0515 -0.0516,-0.103 -0.1288,-0.1803 -0.0517,-0.0773 -0.1289,-0.0773 -0.1805,-0.1547 l -0.1288,-0.1288 c -0.0772,-0.0772 -0.0772,-0.0772 -0.103,-0.1545 -0.0258,-0.0515 0,-0.0773 0,-0.0773 l 0.0515,-0.0515 z m 0.5926,-0.2576 c 0,0 0.1803,-0.0258 0.2319,0.0773 0.0515,0.103 0.0772,0.0772 0.1545,0.1288 0.0515,0.0772 0.1546,0.1288 0.1803,0.206 0,0.0516 0.0258,0.1546 0.0258,0.1546 0,0 -0.0773,-0.0258 -0.1546,-0.0515 -0.0515,0 -0.1288,0.0515 -0.1545,0 -0.0515,-0.0515 -0.1546,-0.1288 -0.1803,-0.2061 -0.0516,-0.103 -0.0773,-0.1803 -0.0773,-0.1803 l -0.0258,-0.1288 z m 0.541,0 0.0515,0 c 0,0 0.1288,0.0773 0.1288,0.1545 0.0258,0.0516 0.1288,0.1031 0.1803,0.1804 0.0258,0.0772 0.0516,0.0772 0.1031,0.1288 0.0515,0.0515 0.103,0.0772 0.1288,0.1288 0.0257,0.0257 0.1546,0.0772 0.1546,0.1289 0,0.0257 0.0258,0.1288 0.0258,0.1288 0,0 -0.1289,0 -0.1804,-0.0773 -0.0515,-0.0515 -0.1546,-0.0773 -0.2061,-0.1289 -0.0515,-0.0515 -0.1288,-0.0773 -0.1803,-0.2061 -0.0515,-0.103 -0.0773,-0.103 -0.1288,-0.1546 -0.0773,-0.0515 -0.1031,-0.0515 -0.1031,-0.103 l 0,-0.1288 0.0258,-0.0515 z m 0.3349,-0.1804 c 0,-0.0772 0.1288,-0.1803 0.1545,-0.103 0.0258,0.0773 0.0773,0.2061 0.1031,0.2834 0,0.0773 0.0773,0.2061 0.1289,0.2318 0.0515,0.0515 0.0773,0.1288 0.1546,0.1803 0.0515,0.0258 0.1545,0.0516 0.1288,0.1288 -0.0258,0.0773 -0.0516,0.1547 -0.1031,0.1288 -0.0257,-0.0257 -0.0773,-0.103 -0.1803,-0.1803 -0.1032,-0.103 -0.1289,-0.1803 -0.2062,-0.2576 -0.0773,-0.0773 -0.0515,-0.0773 -0.103,-0.1803 -0.0516,-0.103 -0.0773,-0.1546 -0.0773,-0.1546 l 0,-0.0773 z m 0.7471,0.9791 c 0.0258,-0.0516 0.0773,-0.1031 0.1288,-0.1031 0.0516,0 0.1288,0.0515 0.1804,0.1031 0.0257,0.0515 0.103,0.0257 0.1288,0.103 0.0257,0.0515 0.0773,0.103 0.1288,0.1546 0.0515,0.0772 0.0773,0.103 0.1545,0.103 0.1031,0 0.2061,0.0258 0.2319,0.103 0.0257,0.0773 -0.0258,0.1031 0.0773,0.1546 0.1031,0.0258 0.1546,0.0258 0.1546,0.0773 0,0.0773 -0.0257,0.1546 -0.0773,0.103 -0.0773,-0.0257 -0.1804,-0.0772 -0.2577,-0.1545 -0.0515,-0.0773 -0.2576,-0.1546 -0.2576,-0.1546 0,0 -0.2833,-0.1546 -0.3091,-0.1803 -0.0515,0 -0.2318,-0.1031 -0.2318,-0.1031 l -0.0516,-0.103 0,-0.103 z m 0.1288,-0.7472 c 0,0 0.0258,-0.1803 0.0516,-0.1288 0.0515,0.0773 0.1545,0.1803 0.1803,0.2834 0.0257,0.1288 0.2318,0.3348 0.2834,0.3864 0.0515,0.0257 0.103,0.1289 0.1803,0.1289 0.0773,0.0257 0.1288,0.0773 0.2061,0.1288 0.0773,0.0515 0.1546,0.0773 0.1546,0.1545 0,0.0773 0.0258,0.1288 0.0516,0.1546 0,0.0515 0.0515,0.0773 0.0515,0.1546 l 0,0.1288 c 0,0 -0.0773,-0.0773 -0.1031,-0.1288 -0.0515,-0.0516 -0.1546,-0.0516 -0.1804,-0.1546 -0.0515,-0.0773 -0.0773,-0.1803 -0.1546,-0.2061 -0.0515,-0.0515 -0.1803,-0.0515 -0.206,-0.103 -0.0516,-0.0515 -0.1288,-0.1031 -0.1804,-0.1805 -0.0515,-0.103 -0.1545,-0.1288 -0.1803,-0.2318 -0.0515,-0.103 -0.1288,-0.1288 -0.1288,-0.2061 0,-0.0515 -0.0258,-0.1803 -0.0258,-0.1803 z m 1.1336,0.6956 0.0515,-0.0257 c 0,0 0.0516,-0.0517 0.1546,0.0257 0.0773,0.1031 0.1546,0.1804 0.2318,0.2576 0.0516,0.0516 0.1031,0.1288 0.1288,0.1804 0,0.0515 -0.0257,0.1288 0.0258,0.1288 0.0515,0 0.103,-0.0516 0.1803,0.0257 0.1031,0.0773 0.1288,0.1031 0.1288,0.1804 0,0.0772 0.0773,0.0772 0.1031,0.1288 0,0.0515 0.0773,0.0515 0.0515,0.103 0,0.0773 -0.0515,0.0515 -0.103,0 -0.0773,-0.0773 -0.1546,-0.1288 -0.1546,-0.0515 0,0.0773 -0.0515,0.2318 0.0258,0.2318 0.0772,0 0.1545,0.0258 0.1545,0.1031 l 0,0.1288 c 0.0258,0.1031 0.1031,0.1031 0.1031,0.1546 0,0.0773 0.0772,0.1546 0.0772,0.2319 0.0258,0.0773 0.0516,0.1288 0.0773,0.2061 0.0258,0.0515 0.1289,0.1288 0.0515,0.1545 -0.0515,0.0258 -0.103,0.0258 -0.1545,-0.0515 -0.0515,-0.0773 -0.1031,-0.103 -0.1288,-0.1546 -0.0258,-0.0515 -0.1288,-0.1803 -0.1288,-0.2318 -0.0258,-0.0515 -0.0515,-0.1288 -0.1031,-0.1803 -0.0773,-0.0516 -0.103,-0.0516 -0.1803,-0.1031 -0.0773,-0.0774 -0.1803,-0.1546 -0.1803,-0.1546 0,0 -0.1288,-0.0773 -0.1288,-0.1288 l 0,-0.3864 c 0,-0.0773 0,-0.2834 -0.0773,-0.3607 -0.0515,-0.103 -0.0515,-0.103 -0.1288,-0.1546 -0.0515,-0.0772 -0.0773,-0.1545 -0.0773,-0.1545 l 0,-0.1031 z m -5.3586,8.1924 1.1336,-0.0773 c 0,0.0773 -0.1031,0.1804 -0.1804,0.1804 -0.4122,0.0257 -1.4942,0.1288 -1.1851,0 l 0.2319,-0.1031 z m -0.7729,0.4637 1.3139,-0.0773 c 0,0.0773 -0.1288,0.2061 -0.1804,0.2061 -0.4121,0 -1.6487,0.1289 -1.3654,-0.0258 l 0.2319,-0.103 z m -1.1335,1.4685 1.7003,0 c 0.0258,0.0515 -0.103,0.1545 -0.1803,0.1545 -0.4896,0.0258 -1.1078,0.1289 -1.3397,0 l -0.1803,-0.1545 z m 0.6698,0.4122 1.5715,-0.0515 c 0,0.1031 -0.1031,0.1803 -0.1803,0.1803 -0.4895,0 -0.9791,0.1288 -1.2109,0 l -0.1803,-0.1288 z m 4.8948,-2.4732 1.1593,-0.0773 c 0,0.0773 -0.1288,0.1804 -0.1803,0.1804 -0.4122,0.0257 -1.4942,0.1288 -1.2108,0 l 0.2318,-0.1031 z m -0.3091,0.4895 1.0305,-0.0773 c 0,0.0773 -0.103,0.1803 -0.1803,0.2061 -0.4122,0 -1.3654,0.1288 -1.0821,-0.0258 l 0.2319,-0.103 z m -0.1288,0.3607 0.8502,-0.0774 c 0.0257,0.0774 -0.1031,0.2062 -0.1803,0.2062 -0.4123,0.0258 -1.1851,0.1288 -0.9018,0 l 0.2319,-0.1288 z m -0.644,0.4122 1.0561,-0.0773 c 0.0258,0.0773 -0.103,0.1803 -0.1803,0.1803 -0.4122,0.0258 -1.3912,0.1546 -1.1077,0 l 0.2319,-0.103 z m -0.4638,0.4379 1.1335,-0.0773 c 0,0.0773 -0.1288,0.1804 -0.1803,0.2061 -0.4122,0 -1.4942,0.1031 -1.1851,-0.0257 l 0.2319,-0.1031 z m -0.3349,0.4379 0.979,-0.0772 c 0,0.0772 -0.1031,0.1803 -0.1803,0.1803 -0.4123,0.0515 -1.3397,0.1289 -1.0306,0 l 0.2319,-0.1031 z m -0.438,0.335 1.0306,-0.0772 c 0,0.0772 -0.1031,0.206 -0.1805,0.206 -0.4121,0 -1.3653,0.1288 -1.0819,0 l 0.2318,-0.1288 z m -3.2202,3.2203 1.5199,-0.0515 0.0773,0.1803 c -0.8759,0.0258 -0.8244,0 -1.5972,0 -0.1804,0 -0.2061,-0.103 0,-0.1288 z m 0.103,0.4895 1.4942,-0.0516 0.0773,0.1804 c -0.8502,0.0257 -0.8244,0 -1.5715,0 -0.1803,0 -0.2061,-0.1031 0,-0.1288 z m 0.701,2.5824 2.3132,-0.135 0.0442,0.118 c -0.4169,0.0479 -0.8405,0.0734 -1.2699,0.0728 -0.3668,-5e-4 -0.7293,-0.0197 -1.0875,-0.0558 z m 3.8589,-5.8285 1.8292,-0.2061 -0.0516,0.2576 c -0.8243,0.0516 -1.0305,0.0516 -1.7776,0.0773 -0.1803,0 -0.2318,-0.103 0,-0.1288 z m 0.4122,-0.4637 1.5715,-0.1804 -0.0515,0.2577 c -0.8501,0.0515 -0.7728,0.0515 -1.52,0.1031 -0.1803,-0.0516 -0.2318,-0.1288 0,-0.1804 z m 0.3607,-0.4122 1.2366,-0.1288 -0.0773,0.1803 c -0.8243,0.0773 -0.3864,0.0515 -1.1593,0.103 -0.1804,-0.0257 -0.2061,-0.103 0,-0.1545 z m 0.3092,-0.3607 0.9789,-0.1288 -0.0515,0.2576 c -0.1288,-0.0257 -0.1546,-0.0257 -0.9274,0 -0.1804,0 -0.2062,-0.103 0,-0.1288 z m 0.2576,-0.3091 0.7213,-0.0773 -0.0515,0.2318 c -0.1546,-0.0257 0.103,-0.0515 -0.6698,-0.0257 -0.1803,0 -0.2318,-0.1031 0,-0.1288 z m 0.2061,-0.4122 0.5152,-0.0515 -0.0565,0.1793 c -0.0392,-0.001 -0.1528,0.007 -0.433,0.0268 -0.206,-0.0258 -0.2318,-0.1031 -0.0257,-0.1546 z m -1.5458,2.3959 1.8549,-0.2061 -0.0515,0.2576 c -0.8501,0.0515 -1.0305,0.0515 -1.8034,0.0773 -0.1803,0 -0.206,-0.1031 0,-0.1288 z m 0.2576,0.4637 1.5973,-0.1804 -0.0515,0.2577 c -0.8501,0.0515 -0.7728,0.0258 -1.5458,0.0515 -0.1803,0 -0.206,-0.103 0,-0.1288 z m 0.3607,0.438 1.1851,-0.1288 -0.0515,0.2061 c -0.8244,0.0515 -0.3607,0.0257 -1.1336,0.0772 -0.1803,-0.0257 -0.2061,-0.103 0,-0.1545 z m 0.3607,0.3606 0.7729,-0.0773 -0.0516,0.2319 c -0.1803,0.0258 0.2061,-0.0515 -0.6955,-0.0258 -0.1804,0 -0.2319,-0.103 -0.0258,-0.1288 z m 0.3092,0.4122 0.3864,-0.1288 -0.0515,0.2576 c -0.8245,0.0515 0.4121,-0.0258 -0.3349,0 -0.1803,0 -0.2319,-0.103 0,-0.1288 z m -3.6583,-0.7471 2.2156,-0.103 -0.0773,0.2576 c -0.8244,0 -1.3912,0 -2.1383,-0.0258 -0.1804,0 -0.2319,-0.103 0,-0.1288 z m 0.103,0.541 2.1126,-0.2061 -0.0258,0.2834 c -0.8502,0 -1.3139,0.0773 -2.0868,0.0515 -0.1803,0 -0.2061,-0.103 0,-0.1288 z m 0.2835,0.4122 1.7776,-0.1546 -0.0258,0.2577 c -0.8244,0.0258 -0.979,0.0515 -1.7518,0.0515 -0.1805,-0.0257 -0.2062,-0.1288 0,-0.1546 z m 0.3091,0.3865 1.4685,-0.1288 -0.0516,0.2318 c -0.8502,0 -0.6698,0.0258 -1.4169,0.0258 -0.1803,-0.0258 -0.2061,-0.1288 0,-0.1288 z m 1.2624,-0.1288 1.3396,-0.1031 0.0515,0.1804 c -0.541,0.0515 -0.6441,0.0515 -1.3911,0.103 -0.1805,-0.0257 -0.2062,-0.1546 0,-0.1803 z m 0.1545,0.4122 1.3397,-0.1288 0.0515,0.206 c -0.5411,0.0516 -0.6441,0.0516 -1.3912,0.0773 -0.1803,0 -0.2061,-0.1288 0,-0.1545 z m 0.1804,0.4379 1.3396,-0.1031 0.0515,0.1804 c -0.541,0.0515 -0.6441,0.0515 -1.3911,0.0773 -0.1804,0 -0.2319,-0.1288 0,-0.1546 z m 0.103,0.4895 1.3397,-0.1289 -0.0516,0.1805 c -0.541,0.0772 -0.541,0.0515 -1.2881,0.103 -0.1803,-0.0258 -0.2061,-0.1288 0,-0.1546 z m 0.3349,0.4895 0.9532,-0.0773 -0.0515,0.1803 c -0.5411,0.0516 -0.1545,0.0258 -0.9017,0.0773 -0.1803,-0.0257 -0.2061,-0.1545 0,-0.1803 z m -1.7261,-0.7987 1.2109,-0.1288 0.0257,0.2061 c -0.3606,0.0258 -0.4895,0.0515 -1.2366,0.0773 -0.1803,-0.0258 -0.2318,-0.1288 0,-0.1546 z m -0.0515,0.438 1.2109,-0.1545 0.2318,0.2061 c -0.3606,0.0257 -0.6956,0.0515 -1.4427,0.0772 -0.1803,-0.0257 -0.2318,-0.1288 0,-0.1288 z m -0.0258,0.4895 1.5715,-0.1803 0.1546,0.2061 c -0.3606,0.0257 -0.979,0.0772 -1.7261,0.103 -0.1803,-0.0258 -0.206,-0.1288 0,-0.1288 z m 0.2061,0.4122 1.6488,-0.1546 0.1546,0.2061 c -0.3607,0.0257 -1.0562,0.0773 -1.8034,0.103 -0.1803,-0.0257 -0.2061,-0.1288 0,-0.1545 z m 0.2576,0.4638 1.6231,-0.232 0.1009,0.1298 c -0.1693,0.0574 -0.3404,0.1109 -0.5131,0.1601 -0.3468,0.0348 -0.7697,0.0709 -1.2109,0.0709 -0.1803,0 -0.206,-0.1031 0,-0.1288 z m -2.0352,-2.6536 0.4895,-0.0515 0.103,0.2061 c -0.8501,0.0515 -0.3349,0.0257 -0.5152,0.0515 -0.1803,-0.0258 -0.2833,-0.1803 -0.0773,-0.2061 z m 0.1546,0.3607 0.5925,-0.0516 0.2061,0.1804 c -0.8244,0.0515 -0.5667,0.0772 -0.7213,0.0772 -0.1803,-0.0257 -0.2834,-0.1545 -0.0773,-0.206 z m 0.2319,0.3349 0.7471,-0.0516 0.0515,0.1804 c -0.8244,0.0515 -0.5926,0.0772 -0.7471,0.0772 -0.1804,-0.0257 -0.2834,-0.1545 -0.0515,-0.206 z m 0.103,0.438 0.5411,-0.0515 0.0773,0.1803 c -0.8503,0.0515 -0.3866,0.0515 -0.5411,0.0515 -0.1803,-0.0258 -0.2834,-0.1546 -0.0773,-0.1803 z m 4.8948,-3.0916 2.2929,-0.0773 -0.0515,0.232 -2.2156,0 c -0.1803,-0.0258 -0.2319,-0.1032 -0.0258,-0.1547 z m -0.0773,0.4638 2.2929,-0.103 -0.0772,0.2318 c -0.8245,0.0515 -1.4427,-0.0258 -2.2157,0 -0.1803,0 -0.206,-0.103 0,-0.1288 z m -0.0257,0.4637 2.0095,-0.1031 -0.0515,0.2319 c -0.8502,0.0515 -1.1851,-0.0515 -1.958,0 -0.1803,-0.0258 -0.2061,-0.1031 0,-0.1288 z m -0.0773,0.4122 1.5457,-0.0773 -0.0515,0.2318 c -0.0773,0.0516 -0.3864,-0.0515 -1.4942,-0.0257 -0.1803,0 -0.2061,-0.1031 0,-0.1288 z m -0.0515,0.4122 1.958,-0.0515 0.2576,0.1803 c -0.8244,0.0516 -1.4427,-0.0257 -2.2156,0 -0.1803,0 -0.2061,-0.103 0,-0.1288 z m -0.0773,0.4122 2.3702,-0.0515 0.0773,0.2061 c -0.7987,0.0515 -1.6746,-0.0516 -2.4475,-0.0258 -0.1803,0 -0.2061,-0.103 0,-0.1288 z m -0.1288,0.5152 2.2084,-0.048 c -0.0921,0.0748 -0.1855,0.1481 -0.28,0.2199 -0.6481,0.006 -1.32,-0.0376 -1.9284,-0.0173 -0.1803,-0.0258 -0.2061,-0.1031 0,-0.1546 z m -0.0515,0.4123 1.7051,-0.0375 c -0.087,0.062 -0.1751,0.1224 -0.264,0.1819 -0.483,-0.008 -0.9569,-0.0318 -1.4411,-0.0156 -0.1804,0 -0.2319,-0.1031 0,-0.1288 z m -0.1288,0.3864 1.2363,-0.0275 c -0.0941,0.0583 -0.1889,0.1156 -0.2849,0.171 -0.2943,-0.0123 -0.5944,-0.0262 -0.9514,-0.0147 -0.1804,0 -0.2061,-0.103 0,-0.1288 z m -0.0773,0.4894 0.4014,-0.0107 c -0.0939,0.0465 -0.1885,0.0917 -0.2839,0.1356 l -0.1175,0.004 c -0.1803,0 -0.2061,-0.103 0,-0.1288 z m 0.7729,-4.4053 2.2928,-0.0773 -0.0773,0.2061 c -0.7729,0 -1.3654,0.0257 -2.2155,0 -0.1804,0 -0.2062,-0.1031 0,-0.1288 z m 0.0258,-0.438 2.2928,-0.0772 -0.0773,0.206 c -0.7728,0 -1.3654,0.0258 -2.2155,0 -0.1805,0 -0.2062,-0.103 0,-0.1288 z m 0.0515,-0.3864 2.0609,-0.0772 0.1546,0.206 -2.2155,0 c -0.1804,0 -0.2062,-0.103 0,-0.1288 z m 0.0515,-0.438 1.9579,-0.103 0.0773,0.206 c -0.7987,0 -1.1851,0.0516 -2.0352,0 -0.1804,0 -0.2319,-0.0772 0,-0.103 z m -0.0257,-0.4122 1.726,-0.0515 0.1031,0.1803 c -0.7987,0 -0.979,0 -1.8291,0 -0.1805,0 -0.2062,-0.0772 0,-0.1288 z m 0,-0.3864 1.4942,-0.0773 0.0773,0.2061 -1.5715,0 c -0.1805,-0.0257 -0.2062,-0.103 0,-0.1288 z m -0.0258,-0.3864 1.2365,-0.0516 0.103,0.2062 c -0.7985,-0.0258 -0.4894,0 -1.3395,0 -0.1804,-0.0258 -0.2062,-0.1031 0,-0.1546 z m 0.0258,-0.4123 0.7728,-0.0515 0.0515,0.1803 -0.8243,0 c -0.1805,0 -0.232,-0.103 0,-0.1288 z m -0.0773,-0.3348 0.3349,-0.0258 0.1803,0.1803 c -0.3349,0 0.3349,-0.0257 -0.5152,-0.0257 -0.1805,0 -0.2062,-0.1031 0,-0.1288 z m 2.0867,1.8291 2.1382,-0.0773 -0.0844,0.2061 c -0.7471,-0.0258 -1.1779,0 -2.0538,0 -0.1803,0 -0.2319,-0.1288 0,-0.1288 z m 0.103,0.3865 1.8291,-0.0774 -0.2576,0.2319 c -0.7728,-0.0515 -0.6955,0 -1.5715,0 -0.1803,0 -0.2061,-0.1288 0,-0.1545 z m 0.0515,0.5152 1.4685,-0.0773 -0.2576,0.2061 c -0.7729,0 -0.3349,-0.0258 -1.2109,0 -0.1803,-0.0258 -0.206,-0.1031 0,-0.1288 z m 0.0516,0.3606 1.0305,-0.0773 -0.2318,0.2319 c -0.7472,0.0258 0.0772,-0.0258 -0.7987,0 -0.1804,-0.0258 -0.2061,-0.103 0,-0.1546 z m -0.1657,0.5044 0.8871,-0.0664 -0.2577,0.2061 c -0.7063,0.0244 0.0147,0.003 -0.6441,3e-4 l 0.0147,-0.14 z m -0.2465,-2.1789 1.1593,-0.0773 0.3092,0.1803 c -0.7472,0 -0.5411,0 -1.417,0 -0.1803,0 -0.2576,-0.0773 -0.0515,-0.103 z m -0.3864,-0.3349 0.7728,-0.0515 0.2834,0.1545 c -0.7471,0.0258 -0.6698,0.0258 -1.0047,0.0516 -0.1804,0 -0.2577,-0.1288 -0.0515,-0.1546 z m 0.5161,2.9884 0.875,-0.0515 0,0.2061 c -0.2061,0.0258 -0.9017,0 -0.9017,0 l 0.0267,-0.1546 z m -0.2585,0.3349 0.9274,-0.0257 -0.0258,0.1803 c -0.1803,0.0257 -0.8758,0 -0.9016,0 -0.1803,0 -0.2061,-0.1031 0,-0.1546 z m -0.2319,0.3349 0.9017,-0.0515 0,0.2061 c -0.2061,0.0257 -0.9017,0 -0.9017,0 -0.1804,-0.0258 -0.2319,-0.1288 0,-0.1546 z m -0.1031,0.4122 0.9275,-0.0515 0,0.2061 c -0.2061,0.0258 -0.9016,0 -0.9016,0 -0.1805,-0.0257 -0.232,-0.1288 -0.0259,-0.1546 z m 1.7785,-0.3947 c 0.0176,-0.0334 0.0345,-0.057 0.0483,-0.069 0,0 0.009,-0.008 0.0224,-0.0163 l -0.0707,0.0853 z m -13.4745,-4.1653 c 0,0 -0.0516,-0.1545 0,-0.2833 0.0515,-0.1031 0.2318,-0.3607 0.2318,-0.4379 0.0258,-0.0773 0.103,-0.0773 0.103,-0.0773 l -0.1288,0.4894 c 0,0 0.1546,-0.0773 0.2319,-0.1803 0.103,-0.1288 0.2576,-0.4379 0.3091,-0.3091 0.0258,0.1545 -0.0515,0.3864 -0.1803,0.4121 -0.1031,0.0516 -0.3091,0.2061 -0.3607,0.2834 -0.0515,0.0773 -0.206,0.103 -0.206,0.103 z m 1.3138,-0.4121 c 0,0 -0.1289,0.0257 -0.2834,0.0773 -0.1546,0.0515 -0.4637,0.3091 -0.4637,0.3091 l -0.2319,0.2577 c 0,0 0.2061,0.0258 0.2576,0 0.0773,-0.0515 0.4122,-0.3092 0.4122,-0.3092 l 0.1546,-0.1804 0.1546,-0.1545 z m 0.1289,0.3091 0.206,-0.2576 0.3092,-0.103 0,0.206 -0.2834,0.1031 -0.2318,0.0515 z m 0.0772,0.2577 c 0,0 0.3349,-0.1804 0.438,-0.1804 0.1288,0 0.6697,-0.0515 0.6697,-0.0515 l 0.232,0.0257 -0.0515,0.1805 -0.5669,0.0257 -0.7213,0 z m 0.3092,0.1288 3.2975,-0.0773 c 0,0.0773 -0.1288,0.1804 -0.1803,0.2061 -0.4379,0 -3.6325,0.1288 -3.3491,0 l 0.2319,-0.1288 z m 0.747,0.3349 2.1641,-0.0258 c 0,0.0773 -0.103,0.1804 -0.1803,0.1804 -0.4123,0.0257 -2.499,0.103 -2.2156,-0.0516 l 0.2318,-0.103 z m 0,0.4122 2.1641,-0.0258 c 0,0.0515 -0.103,0.1803 -0.1803,0.1803 -0.4123,0.0258 -1.4942,0.1031 -1.7776,-0.0515 l -0.2062,-0.103 z m -0.644,3.5552 2.3702,-0.1031 0.0773,0.2062 c -0.876,0 -1.6747,0.0257 -2.4475,0.0257 -0.1803,-0.0257 -0.2061,-0.103 0,-0.1288 z m -0.0773,-0.5153 2.3701,-0.0773 0.0774,0.2061 c -0.876,0 -1.6747,0 -2.4475,0.0258 -0.1803,-0.0258 -0.2061,-0.103 0,-0.1546 z m 0.1031,-0.3606 2.0094,-0.0773 0.0773,0.1803 c -0.8501,0.0258 -1.3139,0.0258 -2.0867,0.0515 -0.1804,-0.0257 -0.2061,-0.103 0,-0.1545 z m 0.1288,-0.3349 1.8548,-0.1803 0.0773,0.2061 c -0.8243,0.0515 -1.1592,0.0772 -1.9321,0.103 -0.1804,0 -0.2061,-0.103 0,-0.1288 z m 0,-0.4896 1.5199,-0.1545 0.0773,0.1803 c -0.8243,0.0515 -0.8243,0.0773 -1.5972,0.103 -0.1804,0 -0.2061,-0.103 0,-0.1288 z m 0.0515,-0.4637 1.2881,-0.1545 0.0515,0.2061 c -0.8244,0.0515 -0.5667,0.0515 -1.3396,0.0773 -0.1803,-0.0258 -0.2061,-0.1031 0,-0.1289 z m -0.0258,-0.4121 1.0048,-0.1031 0.0773,0.1804 c -0.8245,0.0515 -0.3091,0.0257 -1.0821,0.0515 -0.1803,0 -0.2061,-0.1031 0,-0.1288 z m 0,-0.3349 1.0048,-0.1289 0.0773,0.2319 c -0.8245,0.0258 -0.3091,0 -1.0821,0.0258 -0.1803,0 -0.2061,-0.103 0,-0.1288 z m 0,-0.3092 1.0048,-0.1288 0.0515,0.1803 c -0.8244,0.0773 -0.3091,0.0515 -1.0563,0.0773 -0.1803,0 -0.2318,-0.1288 0,-0.1288 z m 0,-0.3607 0.6183,-0.0773 0.0516,0.1804 c -0.8244,0.0515 0.1031,0 -0.6699,0.0257 -0.1803,0 -0.2061,-0.103 0,-0.1288 z m 0.9018,4.9721 1.9836,-0.103 0.0773,0.1803 c -0.876,0.0259 -1.3139,0.0516 -2.0609,0.0516 -0.1804,0 -0.2319,-0.1031 0,-0.1289 z m -0.3608,0.438 2.5505,-0.1803 0.0773,0.2061 c -0.8501,0 -1.8806,0.1031 -2.6278,0.1031 -0.1803,0 -0.2318,-0.1031 0,-0.1289 z m -0.2576,0.3865 3.04,-0.1804 0.0772,0.1804 c -0.8758,0.0257 -2.3443,0.1288 -3.0914,0.1288 -0.1804,0 -0.2319,-0.1031 -0.0258,-0.1288 z m 0,0.4121 3.2976,-0.1545 0.0515,0.1803 c -0.8501,0.0257 -2.6019,0.103 -3.3491,0.1288 -0.1803,-0.0258 -0.2061,-0.1031 0,-0.1546 z m 0.2318,0.4381 3.2977,-0.1805 0.0515,0.2062 c -0.8502,0 -2.602,0.1031 -3.3492,0.1031 -0.1803,0 -0.206,-0.1031 0,-0.1288 z m -1.5457,-6.0027 0.6184,-0.0516 0.0515,0.1289 c -0.8245,0.0515 0.103,0.0515 -0.6699,0.0515 -0.1803,0 -0.2061,-0.103 0,-0.1288 z m -0.3606,0.438 0.979,-0.1288 -0.0258,0.1803 c -0.8502,0.0773 -0.2061,0.0515 -0.9532,0.0773 -0.1804,0 -0.2319,-0.1031 0,-0.1288 z m -0.5925,0.4894 1.3139,-0.1288 0.0772,0.2061 c -0.8244,0.0515 -0.6441,0.0258 -1.3911,0.0515 -0.1804,-0.0257 -0.2319,-0.103 0,-0.1288 z m 0.0772,0.3864 1.1336,-0.103 -0.0516,0.1803 c -0.8501,0.0515 -0.3091,0.0258 -1.082,0.0515 -0.1803,0 -0.2318,-0.103 0,-0.1288 z m -0.0257,0.4123 1.1335,-0.1031 -0.0516,0.1804 c -0.8243,0.0515 -0.3091,0.0257 -1.0819,0.0515 -0.1803,0 -0.2061,-0.103 0,-0.1288 z m -0.1288,0.4637 1.1334,-0.1031 -0.0515,0.1804 c -0.8501,0.0772 -0.3091,0.0257 -1.0819,0.0772 -0.1803,-0.0257 -0.2061,-0.103 0,-0.1545 z m -0.0258,0.4122 1.1592,-0.1288 -0.0772,0.206 c -0.8244,0.0516 -0.3092,0.0258 -1.082,0.0516 -0.1803,0 -0.2061,-0.1031 0,-0.1288 z m 0,0.4637 1.1335,-0.1288 -0.0773,0.2061 c -0.8243,0.0515 -0.3091,0.0258 -1.0562,0.0515 -0.1803,0 -0.2319,-0.103 0,-0.1288 z m 0.2319,0.438 1.1335,-0.1031 -0.0515,0.1804 c -0.8502,0.0515 -0.3092,0.0257 -1.082,0.0515 -0.1804,0 -0.2319,-0.1031 0,-0.1288 z m 0.0257,0.4379 2.061,-0.1546 -0.0773,0.1804 c -0.8243,0.0773 -1.2366,0.0515 -1.9837,0.103 -0.1803,-0.0257 -0.2318,-0.103 0,-0.1288 z m 0.1031,0.4122 2.0609,-0.1288 -0.0773,0.1803 c -0.8243,0.0516 -1.2366,0.0516 -1.9836,0.0774 -0.1804,0 -0.2319,-0.1032 0,-0.1289 z m 0.0772,0.4122 1.5973,-0.103 -0.0515,0.1803 c -0.8245,0.0516 -0.7729,0.0258 -1.52,0.0516 -0.1803,0 -0.2318,-0.1031 -0.0258,-0.1289 z m 0.1031,0.5153 1.1336,-0.1031 -0.0773,0.1803 c -0.8245,0.0516 -0.3092,0.0258 -1.0563,0.0773 -0.1803,-0.0257 -0.2319,-0.103 0,-0.1545 z m 0.3251,0.3755 0.963,-0.0664 -0.0773,0.1803 c -0.2451,0.0153 -0.401,0.0235 -0.52,0.0292 -0.123,-0.0454 -0.2447,-0.0935 -0.3657,-0.1431 z m 1.0651,0.374 0.0267,-0.002 -0.0027,0.01 -0.024,-0.007 z m -4.1468,-3.5061 c 0.2061,-0.0258 -0.0515,-0.0258 0.7472,-0.0515 0.1545,0.0257 0.4379,0.0515 0.0257,0.1545 -0.1288,0.0258 0,0.0258 -0.7471,0.0258 -0.1804,0 -0.2319,-0.1031 -0.0258,-0.1288 z m 0,0.541 c 0.2061,-0.0257 -0.0515,-0.0257 0.7472,-0.0515 0.1545,0 0.4379,0.0515 0.0257,0.1546 -0.1288,0.0257 0,0.0257 -0.7471,0.0257 -0.1804,0 -0.2319,-0.1288 -0.0258,-0.1288 z m 0,0.5153 c 0.2061,-0.0258 0.0515,-0.0258 0.8502,-0.0516 0.1803,0 0.4637,0.0516 0.0258,0.1546 -0.1031,0.0258 -0.1031,0.0258 -0.876,0.0258 -0.0206,0 -0.0393,-0.002 -0.0563,-0.005 -0.0312,-0.0275 -0.0626,-0.0547 -0.0934,-0.0825 0.0148,-0.023 0.0617,-0.0414 0.1497,-0.0414 z m 0.3422,0.4592 c 0.117,-0.005 0.2989,-0.0112 0.611,-0.0213 0.1546,0.0258 0.438,0.0515 0.0258,0.1803 l -0.4338,0 c -0.0682,-0.0522 -0.136,-0.1052 -0.203,-0.159 z m 0.5244,0.3969 0.1897,-0.006 c 0.1545,0 0.4379,0.0515 0.0257,0.1545 l -8e-4,2e-4 c -0.0722,-0.0488 -0.1437,-0.0984 -0.2146,-0.1488 z m 2.869,-13.995 c 0,0 0,0.3349 0.0515,0.3864 0.0773,0.0516 0.3864,0.0258 0.6956,0 0.2833,-0.0257 0.4636,0 0.6698,-0.0515 0.3578,-0.009 0.0806,0.0378 0.3092,0.0258 0.0772,0 0.3864,0.0257 0.4894,-0.0258 0.1031,-0.0257 0.1803,-0.1288 0.2576,-0.1288 0.0773,0 0.1546,0.0515 0.1546,0.1031 0,0.0515 0.1031,0.1545 0.1031,0.1545 l -0.1546,0.1031 -0.0773,0.1031 c -0.0258,0.0773 0.2834,0.1546 0.335,0.2061 0.0773,0.0258 0.1545,0.2576 0.1288,0.3864 -0.0258,0.103 -0.0258,0.2834 -0.1288,0.2318 -0.1031,-0.0257 -0.3093,-0.1545 -0.3608,-0.2576 -0.0515,-0.1288 -0.3864,-0.3606 -0.4637,-0.4121 -0.0515,-0.0258 -0.3091,-0.0773 -0.4379,-0.0773 -0.103,0 -0.1803,0.0258 -0.2576,0 -0.1032,0 -0.1289,0 -0.2577,0.0515 -0.1031,0.0258 -0.2576,0.0258 -0.3349,0.0773 -0.0773,0.0258 -0.0258,0.1288 0.103,0.1546 0.1031,0.0257 0.3349,0.0257 0.3864,0.0257 0.0774,0.0258 0.2578,0.2061 0.4638,0.3091 0.2061,0.1031 0.2319,0.1804 0.4637,0.2061 0.2061,0.0516 0.2834,0 0.3864,0.1031 0.1288,0.103 0.2835,0.0773 0.2835,0.1545 0.0258,0.1031 0,0.1031 -0.1804,0.1031 -0.1803,0 -0.1288,0.0515 -0.2576,0.0773 -0.1546,0.0257 -0.1803,0 -0.2834,-0.0773 -0.103,-0.1031 -0.3091,-0.2319 -0.3864,-0.2834 -0.103,-0.0257 -0.1546,-0.0257 -0.2061,-0.0773 -0.0257,-0.0515 0.0258,-0.103 0.0258,-0.1288 -0.0258,0 -0.1803,-0.103 -0.2319,-0.103 -0.0515,0 -0.0774,0.2318 -0.0515,0.3349 0.0258,0.0773 0.2061,0.1288 0.2061,0.1288 0,0 -0.0991,0.0963 -0.1803,0.1152 -0.0987,0.0232 -0.1602,0.05 -0.2577,0.0136 -0.0516,-0.0515 -0.1804,-0.0773 -0.2576,-0.1288 -0.0516,-0.0515 -0.0516,-0.0515 -0.0516,-0.1803 0,-0.1289 0.0516,-0.2061 0,-0.2061 -0.0772,-0.0258 -0.1803,0 -0.2576,0 -0.0515,0 -0.1545,0 -0.1545,-0.1031 0,-0.0773 0.0772,-0.0773 0.0772,-0.1545 0.0552,-0.2209 -0.0046,-0.0376 0.0516,-0.2061 0,-0.0773 0.0515,-0.1546 -0.0516,-0.1546 -0.103,0 -0.103,0.1288 -0.2318,0 -0.1546,-0.1288 -0.1803,-0.0515 -0.2318,-0.1803 -0.0258,-0.1289 -0.0773,-0.1289 -0.0773,-0.2577 0,-0.1031 -0.0258,-0.0515 0.0515,-0.1803 0.0515,-0.1031 0.1288,-0.1804 0.1288,-0.1804 z m 1.1342,1.9813 -7e-4,0.002 c 0,0 0.2577,0.0258 0.3092,0 0.0515,-0.0258 0.0258,0.1289 -0.1288,0.1547 -0.1547,0.0257 -0.1032,0.103 -0.1547,0.103 -0.0515,0 -0.1803,-0.103 -0.3091,-0.0515 -0.103,0.0515 -0.0773,0.103 -0.1546,0.103 -0.0515,0 -0.0772,-0.103 -0.0772,-0.103 l -0.1289,-0.1031 0.0773,-0.1546 c 0,0 0.0773,-0.0515 0.1288,0 0.0516,0.0515 0.1288,0.0515 0.2061,0.0515 0.0773,0 0.1031,0.0135 0.1031,0.0135 0.0579,-0.005 0.0623,0.005 0.1295,-0.0159 z m -0.2068,-0.7189 c 0.0257,0 0.0515,0.0515 0.0515,0.103 0,0.0516 -0.0515,0.1031 -0.0515,0.1031 0,0 -0.1031,-0.0258 -0.1031,-0.0515 l 0,-0.1288 0.1031,-0.0258 z m -2.4474,2.0352 c 0,-0.0515 0.0773,-0.0773 0.1288,-0.103 0.0515,-0.0258 0.1288,-0.0258 0.2576,-0.0258 0.1031,0 0.2834,0 0.2834,0.1546 0,0.0772 -0.0258,0.1288 -0.0773,0.1288 -0.0773,0 -0.0773,0 -0.1546,-0.0516 -0.0515,-0.0257 -0.103,-0.0257 -0.1803,0 -0.0515,0.0258 -0.103,0.0773 -0.1545,0.0258 -0.0773,-0.0258 -0.1031,-0.1288 -0.1031,-0.1288 z m 1.1335,-0.7213 c 0,0 0.2319,0.1803 0.2319,0.2061 0.0258,0.0515 0.0773,0.1803 0.0773,0.3091 0,0.1546 0.0773,0.1288 0.1031,0.1803 0.0515,0.0773 0.0515,0.1804 0.0772,0.2576 0.0258,0.1032 0.1288,0.3608 0.2061,0.4638 0.0773,0.0773 0.2834,0.3092 0.2834,0.3864 0,0.0773 0.0258,0.2576 0.0258,0.2834 0,0.0515 -0.0516,0.1031 -0.0773,0.0515 -0.0516,-0.0773 -0.1031,-0.1545 -0.1804,-0.2318 -0.0772,-0.0515 -0.2318,-0.1031 -0.2318,-0.1546 -0.0258,-0.0515 -0.0258,-0.1545 -0.0258,-0.2061 0,-0.0772 -0.0772,-0.1803 -0.103,-0.2576 -0.0258,-0.0515 -0.0258,-0.1288 -0.103,-0.1545 -0.0516,0 -0.1289,-0.0258 -0.2062,0.0257 -0.1546,0.0773 -0.2061,0.1031 -0.4122,0.1031 -0.0773,0 -0.2061,-0.0258 -0.2061,-0.1031 0,-0.0773 0,-0.0773 0.0258,-0.103 0.0515,-0.0258 0.103,-0.0258 0.2061,-0.0258 0.103,0 0.1803,0 0.2576,-0.0515 0.103,-0.0516 0.1288,-0.1031 0.1545,-0.1804 0.0258,-0.0515 0.0774,-0.1546 0.0516,-0.2319 0,-0.0773 -0.0258,-0.1545 -0.1031,-0.2061 -0.0773,-0.0772 -0.1288,-0.103 -0.1803,-0.1545 -0.0515,-0.0773 -0.1288,-0.1288 -0.1546,-0.1546 l 0,-0.1288 c 0,0 0.0773,-0.0515 0.1288,-0.0257 0.0515,0.0257 0.1546,0.103 0.1546,0.103 z m 0.2835,2.1382 c 0,0 0.0257,-0.1545 0.0772,-0.1545 0.0258,0 0.1031,0.0515 0.0773,0.103 0,0.0515 0.0258,0.1546 -0.0257,0.1546 -0.0516,0 -0.1288,-0.1031 -0.1288,-0.1031 z m -1.6489,0.4381 c 0,0 0.0774,-0.2835 0.1546,-0.3093 0.0773,-0.0257 0.3092,-0.0772 0.438,-0.0772 0.4338,0 -0.0079,-0.0406 0.3606,0.0515 0.0773,0.0257 0.2319,0.0773 0.2576,0.1288 0.0515,0.0515 0.1288,0.1031 0.1546,0.0257 0,-0.0772 0.0257,-0.1288 0.0257,-0.206 0.0258,-0.0773 0.0258,-0.1804 0.0773,-0.1031 0.0258,0.0515 0.0258,0.1288 0.0516,0.2319 0.0516,0.0772 0.1289,0.1288 0.1546,0.1804 0.0515,0.0515 0.1031,0.0257 0.1546,0.1288 0.0515,0.0773 0.1545,0.0773 0.2061,0.0515 0.0515,-0.0515 0.1288,-0.0773 0.103,-0.1288 -0.0258,-0.0515 -0.0258,-0.1289 -0.0515,-0.1289 -0.0515,-0.0258 -0.1031,0.0258 -0.1031,-0.0515 0,-0.0515 -0.0515,-0.1031 0.0258,-0.1288 0.0773,0 0.103,-0.0258 0.1288,0.0515 0,0.103 0.0773,0.0515 0.0773,0.1546 0,0.0773 -0.0515,0.1031 0,0.1804 0.0773,0.0515 0.1546,-0.0258 0.2061,0 0.0773,0.0515 0.0773,0.0515 0.0773,0.1803 0,0.1288 0.0515,0.2576 0.0515,0.3091 0,0.0516 0.0515,0.1288 0,0.1288 -0.0773,0 -0.1288,0.1031 -0.2319,-0.0257 -0.103,-0.1288 -0.0515,-0.0258 -0.103,-0.0773 -0.0515,-0.0258 -0.1803,-0.1288 -0.2319,-0.1546 -0.0772,-0.0257 -0.0772,-0.0515 -0.1803,-0.103 -0.103,-0.0515 -0.2061,-0.1546 -0.2834,-0.1546 -0.0516,0 -0.2061,-0.0515 -0.2834,-0.0515 -0.0773,-0.0258 -0.2834,-0.0773 -0.3607,-0.103 -0.103,0 -0.2061,-0.0258 -0.2833,-0.0258 -0.0773,0 -0.1288,-0.0258 -0.2061,0 -0.0515,0.0515 -0.0773,0.1288 -0.1546,0.1803 -0.0515,0.0258 -0.103,0.0773 -0.103,0.0773 l -0.1289,-0.2318 z m 0.7214,-0.6442 c -0.0516,0 -0.1804,-0.0515 -0.2319,-0.103 -0.0257,-0.0515 -0.0257,-0.1288 0.0515,-0.1803 0.0773,-0.0515 0.1288,-0.0258 0.1546,-0.0773 0.0483,0.0259 0.0632,-0.033 0.1546,0.0515 0.0515,0.0258 0.1288,0.0258 0.1288,0.0258 l 0.103,-0.0515 c 0,0 0.1031,-0.0258 0.0258,0.0515 -0.0773,0.0515 -0.1031,0.1288 -0.1031,0.1288 0,0 0.0258,0.1545 0.0258,0.2061 0,0.0772 0.0258,0.1803 -0.0258,0.1288 -0.0515,-0.0516 -0.0772,-0.1031 -0.1288,-0.1031 -0.1441,0.0266 -0.1007,-0.0746 -0.1545,-0.0773 z m -0.2576,1.0563 c 0.0257,-0.103 0.0515,-0.103 0.1545,-0.103 0.0773,0.0257 0.1546,0.0515 0.2319,0.0773 l 0.2061,0 c 0.0772,0 0.1545,0.0515 0.1803,0.0773 0.0515,0.0515 0.1288,0.103 0.1288,0.1545 0,0.0773 0.0773,0.1546 -0.0258,0.1546 -0.103,0 -0.1545,-0.0515 -0.2576,-0.0515 -0.1288,0 -0.1803,0.0257 -0.3091,-0.0258 -0.1288,-0.0773 -0.1546,0 -0.2061,-0.0773 -0.0515,-0.0773 -0.103,-0.103 -0.103,-0.1288 l 0,-0.0773 z m -0.0773,0.5668 c 0.0515,-0.0258 0.0773,-0.0773 0.1288,-0.0773 0.0773,-0.0258 0.1803,0.0257 0.2833,0.0773 0.0773,0.0257 0.1546,0 0.2319,0.0772 0.0773,0.0516 0.0773,0.0258 0.1546,0.1031 0.0772,0.0773 0.1803,0.103 0.1803,0.1803 0,0.1032 0.0515,0.1804 0.0515,0.232 0,0.0257 0.0515,0.103 0,0.103 -0.0773,0 -0.103,-0.0258 -0.1803,-0.103 -0.1031,-0.0773 -0.1803,-0.0258 -0.2576,-0.0773 -0.0773,-0.0515 -0.0773,-0.0773 -0.1288,-0.1547 -0.0516,-0.103 -0.1288,-0.1803 -0.1546,-0.1288 -0.0515,0.0258 0,0.1031 -0.0515,0.1031 -0.0258,0 -0.0515,-0.0516 -0.0773,-0.1031 -0.0258,-0.0515 -0.0773,-0.0515 -0.1288,-0.0773 -0.0258,0 -0.0515,-0.0515 -0.0515,-0.0515 l 0,-0.103 z"
   id="path32"
   style="fill:#1a1a1a" /><path
   d="m 33.6548,29.608233 c 1.2192,0.3556 2.4384,0.6858 3.7084,0.889 -0.2032,0.9906 -0.3556,1.9558 -0.4826,2.9718 -1.651,-0.5334 -3.3782,-1.2192 -4.9784,-1.7018 l -0.5588,1.6256 c -0.4572,-0.127 -1.016,-0.2286 -1.4732,-0.3302 0.0762,-0.5842 0.1778,-1.2954 0.2794,-1.8542 -0.3556,-0.0762 -0.5588,-0.1016 -0.9144,-0.127 -0.0762,0 -0.1524,0 -0.2032,0 0.0508,-0.8128 0.1524,-1.4478 0.4318,-2.2352 l 0.6604,-0.254 c 1.3462,0.3048 2.3368,0.635 3.5306,1.016 z"
   id="path34"
   style="fill:#aa8800" /><path
   d="m 25.5016,43.273233 c -0.2794,0.3556 -0.8636,0.4318 -1.2192,0.127 l -4.4196,-4.0386 -0.508,0.6096 -1.4478,-1.1938 1.4986,-1.8034 1.397,-0.0254 0.6096,0.5334 -0.8128,0.9652 4.8006,3.5814 c 0.3302,0.3556 0.4572,0.8128 0.1016,1.2446 z m 12.319,-12.5222 c 0.381,-0.1778 0.6604,-0.4318 0.8128,-1.143 -0.2286,0.1016 -0.4064,0.1778 -0.5842,0.254 l -0.2286,0.889 z m 0.6096,-1.4986 c 0.7112,-0.0254 1.0668,-0.5334 1.397,-1.8034 -1.2446,0.7874 -1.524,1.1938 -1.397,1.8034 z m 0.4064,-1.9304 c 0.7112,-0.0254 1.3462,-0.8128 1.3462,-2.0066 -1.2446,0.8636 -1.4732,1.4224 -1.3462,2.0066 z m 0.6096,-2.286 c 0.7112,-0.0254 1.1684,-0.5588 1.3716,-1.9812 -1.2446,0.7874 -1.524,1.3716 -1.3716,1.9812 z m 0.2794,-2.0066 c 0.7112,-0.0508 1.0668,-0.5588 1.27,-1.9558 -1.2446,0.889 -1.397,1.4478 -1.27,1.9558 z m 0.2286,-1.905 c -0.1778,-0.635 0.3048,-1.27 0.6096,-1.9558 0.5842,1.016 0.127,1.6764 -0.6096,1.9558 z m -6.2738,15.0622 c 0.2794,0.2286 0.635,0.254 1.0414,0.1016 -0.3048,-0.127 -0.6096,-0.254 -0.889,-0.381 -0.0762,0.0762 -0.127,0.1778 -0.1524,0.2794 z m -1.6002,0.5842 c 0.508,-0.1778 0.9906,-0.4572 1.2954,-1.0414 -0.254,-0.127 -0.508,-0.2032 -0.762,-0.3048 -0.381,0.4064 -0.6096,0.8636 -0.5334,1.3462 z m -1.8288,1.4732 c 0.6604,-0.1524 1.1938,-0.381 1.524,-1.778 -1.0922,0.5334 -1.524,1.0414 -1.524,1.778 z m 1.8796,-0.8382 c 0.5588,0.4826 1.2954,0.1524 2.2098,-0.6096 -1.143,-0.1016 -2.0066,-0.0254 -2.2098,0.6096 z m -2.7432,-1.27 c 0.6096,0.4064 1.2446,-0.1524 2.3876,-0.889 -1.4224,-0.2286 -2.3114,0.3302 -2.3876,0.889 z m -2.0828,0.8382 c 0.5334,0.381 1.4986,0.4318 2.413,-0.3556 -1.0668,-0.4572 -2.0066,-0.254 -2.413,0.3556 z m -1.7526,0.9144 c 0.4826,0.4064 1.1938,0.3048 2.1844,-0.4064 -0.9398,-0.254 -1.7526,-0.254 -2.1844,0.4064 z m 2.9972,-1.8796 c 0.889,-0.2794 1.4732,-1.27 1.4986,-2.6162 -1.0668,0.889 -1.7526,1.8796 -1.4986,2.6162 z m -3.6322,1.2192 c 0.9398,-0.0508 1.397,-0.6858 1.8288,-1.8542 -1.4478,0.5842 -1.8288,1.27 -1.8288,1.8542 z m 1.7272,-0.3556 c 0.5842,0.0254 1.27,-0.6604 1.7272,-2.2098 -1.0668,0.5842 -1.8034,1.3716 -1.7272,2.2098 z m -0.0254,3.5814 c 0.6096,0.5842 1.4224,0.2794 2.3114,-0.3048 -0.9144,-0.3048 -1.7272,-0.3302 -2.3114,0.3048 z m -0.127,-0.7366 c 0.7874,0.127 1.397,-0.254 1.778,-1.3208 -1.1938,0.3302 -1.778,0.7874 -1.778,1.3208 z m 2.032,0 c 0.6858,0.508 1.4986,0.2032 2.3114,-0.4318 -0.9398,-0.1016 -1.778,-0.2032 -2.3114,0.4318 z m -0.127,-0.635 c 0.635,0 1.27,-0.3302 1.8288,-1.6002 -0.8636,0.3048 -1.651,0.5842 -1.8288,1.6002 z m 2.032,-0.2286 c 0.4572,0.3302 1.6764,0 2.3114,-0.9398 -1.2446,-0.0254 -2.0066,0.254 -2.3114,0.9398 z m 1.6256,-3.6322 c -1.651,1.4986 -3.6068,2.6162 -5.969,3.4544 l 0.1016,0.2286 c 2.4384,-0.8382 4.4704,-2.0066 6.1722,-3.5814 -0.1016,-0.0508 -0.2032,-0.0762 -0.3048,-0.1016 z m -1.2446,8.1534 -4.0894,-1.6256 0.6604,-0.2286 3.5814,1.4224 -0.1524,0.4318 z m 0.254,-0.762 -3.2258,-1.2954 0.635,-0.2286 2.7432,1.1176 -0.1524,0.4064 z m 0.2794,-0.762 -2.4384,-0.9652 0.635,-0.2286 1.9558,0.7874 -0.1524,0.4064 z m 0.2794,-0.7366 -1.6256,-0.6604 0.5588,-0.254 1.2192,0.4826 -0.1524,0.4318 z m 0.2794,-0.762 -0.9652,-0.381 0.4064,-0.3302 0.7112,0.2794 -0.1524,0.4318 z m -1.3716,3.7846 -3.8608,-1.5494 0.508,-0.2794 3.5052,1.397 -0.1524,0.4318 z m 1.6256,-4.5466 -0.4318,-0.1778 0.5842,-0.254 -0.1524,0.4318 z m -19.431,3.3782 2.7686,-1.1176 0.7112,0.1778 -3.2766,1.3208 -0.2032,-0.381 z m -0.4318,-0.7366 2.0574,-0.8382 0.6096,0.254 -2.4384,0.9652 -0.2286,-0.381 z m -0.4064,-0.7366 1.3716,-0.5588 0.5842,0.254 -1.7272,0.6858 -0.2286,-0.381 z m -0.4064,-0.7366 0.7874,-0.3048 0.5334,0.254 -1.0922,0.4318 -0.2286,-0.381 z m 1.651,2.9464 3.937,-1.6002 0,0.4826 -3.7084,1.4986 -0.2286,-0.381 z m -2.0828,-3.683 0.254,-0.1016 0.4572,0.3048 -0.4826,0.2032 -0.2286,-0.4064 z m 5.1308,0.3048 c -0.6096,0.6604 -1.524,0.508 -2.5654,0 0.9398,-0.4826 1.8288,-0.6604 2.5654,0 z m 2.3114,-0.0762 c -0.8128,0.2286 -1.4986,-0.1778 -2.1336,-0.9906 1.1176,-0.0508 1.905,0.2032 2.1336,0.9906 z m -0.508,0.5842 c -0.635,0.6858 -1.4732,0.6604 -2.4384,0.2794 1.016,-0.6096 1.8542,-0.7366 2.4384,-0.2794 z m -8.8646,-10.668 c -0.5588,-0.2032 -1.1176,-0.381 -1.1684,-2.2352 1.0922,0.7874 1.397,1.524 1.1684,2.2352 z m -0.0762,1.6002 c -0.762,-0.1524 -1.4478,-0.5588 -1.6256,-2.2098 1.2954,0.762 1.7272,1.4986 1.6256,2.2098 z m 1.3462,0.4826 c -0.635,-0.3048 -1.143,-0.762 -0.8636,-2.5654 0.889,0.9398 1.3208,1.8034 0.8636,2.5654 z m 0.4318,1.1938 c -0.6604,0.1778 -1.4224,-0.0508 -2.4892,-1.4732 1.6764,0.127 2.3368,0.6858 2.4892,1.4732 z m 1.905,1.397 c -0.6858,0.4064 -1.524,0.3048 -2.794,-0.8636 1.7526,0 2.5146,0.2794 2.794,0.8636 z m 1.4224,0.3048 c -0.889,-0.1016 -1.4986,-0.6858 -1.8288,-2.032 1.143,0.6096 1.778,1.27 1.8288,2.032 z m 0.254,0.8128 c -0.5334,0.4064 -1.4224,0.2286 -2.6162,-0.5334 1.3462,-0.2032 2.3368,-0.1524 2.6162,0.5334 z m 1.8288,0.4064 c -0.7874,0.127 -1.397,-0.3048 -2.0066,-1.8034 1.27,0.381 1.905,0.9144 2.0066,1.8034 z m 2.2606,0.9906 c -1.0414,0.1524 -1.5748,-0.4318 -2.0574,-1.6256 1.5494,0.381 2.0574,0.9652 2.0574,1.6256 z m -0.6096,0.762 c -0.6096,0.4572 -1.4224,0.2794 -2.54,-0.6096 1.1176,-0.254 2.0574,-0.2032 2.54,0.6096 z m -1.8034,-1.1684 c -0.7874,0.4318 -1.6764,0.6096 -2.9464,-0.4318 1.5748,-0.3302 2.4638,-0.1016 2.9464,0.4318 z m -5.1054,-5.2578 c -0.2032,1.4732 0.254,2.032 1.0414,2.2352 0.1524,-0.7112 -0.2032,-1.4224 -1.0414,-2.2352 z m -3.6068,2.8956 c -0.8382,0.0508 -1.397,-0.6858 -1.7018,-2.0574 1.143,0.6604 1.8542,1.3462 1.7018,2.0574 z m 1.27,0.8636 c -0.5334,-0.254 -1.0668,-0.5334 -1.1684,-2.4384 1.0414,0.9144 1.397,1.7272 1.1684,2.4384 z m -0.0762,0.6604 c -0.6096,0.3302 -1.397,0.0762 -2.3114,-1.016 1.27,-0.0254 2.1082,0.254 2.3114,1.016 z m 2.1082,1.397 c -0.635,0.508 -1.5494,0.1016 -2.5654,-0.7112 1.2954,-0.127 2.3368,-0.0254 2.5654,0.7112 z m 0,-0.6096 c -0.8636,-0.1778 -1.5494,-0.7112 -1.778,-2.1336 1.0668,0.5842 1.7272,1.2954 1.778,2.1336 z m 1.8796,1.1938 c -0.6858,-0.1016 -1.3208,-0.4064 -1.7526,-1.778 1.1176,0.4572 1.7018,1.0414 1.7526,1.778 z m 1.9304,1.0922 c -0.635,0.0762 -1.27,-0.3302 -1.778,-1.7018 0.8382,0.3048 1.651,0.6096 1.778,1.7018 z m -2.1336,-0.635 c -0.381,0.5334 -1.397,0.1778 -2.5146,-0.3302 1.0414,-0.3048 1.9812,-0.4064 2.5146,0.3302 z m 1.8796,1.1176 c -0.8128,0.4064 -1.7018,0.3556 -2.7686,-0.4826 1.4224,-0.4064 2.286,-0.127 2.7686,0.4826 z m 2.0828,0.1524 c -0.6096,0.1016 -1.1684,-0.2794 -1.7018,-1.3208 1.1684,0.254 1.6764,0.6858 1.7018,1.3208 z m 1.143,-1.016 -0.3556,0.1524 c -4.2164,-1.3716 -7.3914,-3.429 -9.779,-7.2136 l -0.1524,-0.7366 c 2.4638,4.1656 5.715,6.35 10.287,7.7978 z M 3.4036,25.315433 c -0.9144,-0.1016 -1.4732,-0.762 -1.651,-2.159 1.1684,0.635 1.778,1.3462 1.651,2.159 z m 0.2032,-1.0668 c 0.3048,-0.7112 0,-1.3462 -0.5334,-1.9304 -0.1524,0.9906 0.0254,1.6256 0.5334,1.9304 z m 0.8382,2.2606 c -0.7366,-0.6604 -0.8128,-1.5748 -0.2032,-2.794 0.5334,1.1684 0.635,2.1082 0.2032,2.794 z m -0.0508,0.6858 c -0.762,0.1016 -1.4224,-0.508 -2.0066,-1.778 1.6002,0.6096 1.9304,1.1938 2.0066,1.778 z m 1.1176,0.9906 c -0.635,-0.3302 -0.8128,-1.0922 -0.381,-2.4638 0.7874,1.2446 0.7874,1.9812 0.381,2.4638 z m 0.1778,1.143 c -0.8382,0.0508 -1.5748,-0.3556 -2.0828,-1.778 1.524,0.4318 2.032,1.0668 2.0828,1.778 z m 1.2446,0.9652 c -0.7112,-0.4064 -1.2192,-1.016 -0.8382,-2.5908 1.2192,1.4732 0.9398,1.9558 0.8382,2.5908 z m 0.127,1.143 c -0.6858,0.127 -1.4478,-0.2032 -2.3622,-1.7018 1.4224,0.254 2.1844,0.8382 2.3622,1.7018 z m 1.3462,-4.0894 -0.1778,0.0762 c -0.5842,-1.7526 -0.9906,-3.4544 -1.0414,-5.3086 l 0.3556,0.1778 c 0.0762,1.778 0.3048,3.3782 0.8636,5.0546 z m -0.6604,-0.2032 -0.1778,0.0508 c -0.635,-1.7526 -0.9906,-3.556 -1.0922,-5.4356 l 0.3556,0.1778 c 0.1016,1.7526 0.3302,3.556 0.9144,5.207 z m -0.254,0.8128 -0.1778,0.0762 c -0.9906,-2.1336 -1.5494,-4.3688 -1.7526,-6.7056 l 0.381,0.1778 c 0.2032,2.2606 0.5842,4.3688 1.5494,6.4516 z m -2.4384,-6.7564 c 0.3048,2.1082 0.7112,4.2418 1.6002,6.1214 l -0.1778,0.1016 c -0.9144,-1.9558 -1.4224,-3.8862 -1.7526,-6.0452 l 0.3302,-0.1778 z m -2.3876,-0.0254 c -0.1778,-0.8128 -0.3302,-1.651 -0.4826,-2.4892 l 0.4064,0.4064 c 0.0508,0.4064 0.127,0.8128 0.1778,1.2192 l -0.1016,0.8636 z m 0.0762,2.159 -0.1778,0.0508 c -0.5588,-1.8796 -0.889,-3.556 -1.143,-5.5118 l 0.4064,0.4318 c 0.2286,1.7272 0.4318,3.302 0.9144,5.0292 z m 2.0828,-8.6614 -0.2794,-0.0508 -0.0762,0.6604 0.3556,-0.6096 z m -0.8636,1.8288 0.2794,-1.9812 -0.3556,-0.1778 -0.2794,2.3368 0.3556,-0.1778 z m -1.1684,5.207 2.2606,-1.1176 2.2606,1.0922 -0.3556,-2.4892 1.7272,-1.8034 -2.4638,-0.4318 -1.1938,-2.2098 -1.1684,2.2098 -2.4892,0.4572 1.7526,1.8034 -0.3302,2.4892 z m 4.4704,-4.826 c 0.3048,-0.4826 0.2794,-1.4224 0.0254,-2.2098 -0.4318,0.7366 -0.7366,1.2954 -0.7366,2.0828 l 0.7112,0.127 z m 2.3368,-1.7272 c -0.635,0.2286 -1.6002,0.9652 -1.8288,1.8288 l 0.889,0.127 c 0.5842,-0.4572 0.8128,-1.4478 0.9398,-1.9558 z m 1.397,-1.8034 c -0.8382,0.2794 -1.9558,0.5334 -2.1336,1.7272 1.0668,0.0508 1.8034,-1.0414 2.1336,-1.7272 z m -4.2418,1.2192 c 1.016,-2.286 2.1336,-4.2926 3.7084,-6.223 l 0.2794,0.2032 c -1.5494,1.9304 -2.794,3.8354 -3.81,6.096 l -0.1778,-0.0762 z m 1.4478,1.1176 c 0.889,-1.1684 0.5588,-2.032 0.254,-3.3274 -0.4572,0.9398 -1.0414,2.3368 -0.254,3.3274 z m -0.8636,-3.5052 c -1.4732,0.635 -1.8034,1.27 -1.778,2.0574 0.8382,-0.1524 1.27,-0.5334 1.778,-2.0574 z m -1.0414,0.0762 c -0.0762,-0.7874 0.4064,-1.4986 1.778,-2.032 -0.3556,1.1684 -0.9144,1.9304 -1.778,2.032 z m -0.635,0.4064 c -0.5588,-0.7366 -0.3556,-1.7272 0.127,-2.794 0.4572,1.1176 0.5842,2.1336 -0.127,2.794 z m -0.7874,1.6002 c -0.6604,-0.5588 -0.5588,-1.4986 -0.0508,-2.667 0.4064,0.9144 0.7874,1.8288 0.0508,2.667 z m 5.1308,-3.4798 c -0.7366,0.9652 -1.3208,1.9812 -0.9144,2.921 0.9906,-0.762 0.9652,-1.0922 0.9144,-2.921 z m 2.7686,0.7112 c -0.889,0.0762 -2.413,0.5334 -2.6416,1.5748 1.1176,0.0508 2.1336,-0.7366 2.6416,-1.5748 z m -1.016,-2.0828 c -0.762,0.5842 -1.8034,1.3716 -1.397,2.54 1.0922,-0.4318 1.3208,-1.651 1.397,-2.54 z m -3.3528,-1.4986 c -0.7112,0.5842 -1.1684,1.2954 -1.0414,2.1082 0.8382,-0.1524 1.016,-1.0668 1.0414,-2.1082 z m -1.9304,2.8194 c -0.5334,-0.9398 -0.127,-1.778 0.5334,-2.6162 0.1524,1.016 0.2032,2.0066 -0.5334,2.6162 z m 7.1628,-2.9972 c -0.6096,0.508 -1.6764,1.3208 -1.524,2.3876 1.3462,-0.2794 1.4732,-1.7018 1.524,-2.3876 z m -0.6096,-0.5842 c -1.5748,0.4064 -2.0828,0.9652 -2.1082,1.6002 0.635,0 1.27,-0.0254 2.1082,-1.6002 z m -1.7018,-0.9398 c -1.3462,0.9652 -1.2192,1.4986 -1.27,2.0574 0.5842,-0.1778 1.143,-0.508 1.27,-2.0574 z m 0.1016,2.8702 c -0.1778,0.0762 -0.6858,0.4318 -0.8382,0.5588 l -0.254,0.0508 c 0.2286,-0.2794 0.4318,-0.508 0.6858,-0.7366 l 0.4064,0.127 z m -1.778,-0.9398 c -0.3302,0.3556 -0.6096,0.6604 -0.8636,1.0668 L 8.636,9.135633 c 0.1778,-0.4064 0.5588,-1.016 0.8636,-1.3462 l 0.1524,0.3556 z m 4.7752,1.6764 c -1.1684,0.3048 -2.1082,0.127 -2.6416,1.4986 1.3716,0.1016 2.032,-0.8382 2.6416,-1.4986 z m 1.27,-1.8796 c -1.2446,0.3302 -2.032,0.889 -2.159,1.651 0.9144,0.0254 1.5494,-0.3302 2.159,-1.651 z m -0.9144,-1.9812 c -1.524,0.0508 -1.8796,0.508 -2.0574,1.016 0.6604,0.0508 1.2446,0.127 2.0574,-1.016 z m -1.6764,-1.27 c -1.4478,1.0922 -1.651,1.7526 -1.4732,2.3368 0.6096,-0.254 1.2446,-0.4826 1.4732,-2.3368 z m 1.143,0.9398 c 0.1778,-0.3302 0.4318,-0.6096 0.762,-0.7874 l 0.254,0.8382 c -0.381,0.1016 -0.7112,0.0762 -1.016,-0.0508 z m 2.3114,4.318 c -0.762,0.2794 -1.6002,0.5842 -2.413,0.9652 0.6096,-0.508 1.4478,-0.9398 2.3368,-1.2192 l 0.0762,0.254 z m -0.6604,-0.9652 0.3048,-0.1778 0.0762,0.2032 -0.5334,0.2286 0.1524,-0.254 z M 13.97,7.814833 c 0.4826,-0.4572 1.016,-0.889 1.5494,-1.27 l 0.0762,0.2286 c -0.4826,0.381 -0.9652,0.762 -1.4732,1.1938 L 13.97,7.814833 z m 0.7112,0.254 1.0668,-0.8382 0.0762,0.254 -0.7366,0.4064 -0.4064,0.1778 z m -1.0414,-2.8702 c -0.0254,-0.4826 0.1524,-1.0414 0.9652,-1.7526 l 0.2032,0.7366 c -0.2794,0.762 -0.6858,0.9652 -1.1684,1.016 z m 15.8242,23.622 c 0.6604,-1.9304 1.9558,-3.5052 3.4036,-5.6134 2.0574,-2.9464 4.445,-6.5024 5.3594,-9.6774 -0.762,-3.2258 -2.1082,-6.7818 -5.6642,-7.8486 -1.5748,-0.508 -2.9972,-1.3208 -4.318,-2.2098 -1.9304,-1.2954 -4.1402,-1.905 -6.4262,-1.3716 -1.9304,0.4318 -3.937,0.254 -5.842,-0.1778 l -0.9398,0.3048 2.8194,9.1948 c -0.1778,0.0508 -0.3302,0.1016 -0.4826,0.1524 l -2.8956,-9.5504 1.4986,-0.4572 c 1.8796,0.4318 3.8608,0.6096 5.7658,0.1778 2.4384,-0.5588 4.6482,0.0508 6.7056,1.4478 1.3208,0.889 2.7432,1.7018 4.2926,2.159 3.3782,1.016 5.1562,4.7498 5.9436,7.9248 0.6858,2.7686 0.8382,5.5626 0.5842,8.4328 -0.254,2.8956 -1.1938,6.1976 -1.7526,9.144 -1.3716,-0.1016 -3.0734,-0.635 -4.6736,-1.143 -1.2954,-0.4064 -2.54,-0.7874 -3.3782,-0.889 z m 1.4478,4.191 c -0.0762,0.381 -0.1524,0.9144 -0.1778,1.2954 -0.127,-0.0254 -0.254,-0.0762 -0.381,-0.1016 0.0508,-0.381 0.1016,-0.9398 0.1778,-1.2954 0.127,0.0254 0.254,0.0762 0.381,0.1016 z m 4.5466,1.8034 c -0.0762,0.4318 -0.1016,0.8636 -0.127,1.27 l -0.3556,-0.1778 c 0.0254,-0.4064 0.0508,-0.8382 0.127,-1.2446 l 0.3556,0.1524 z m -0.635,-0.2794 c -0.0762,0.4064 -0.1016,0.8128 -0.127,1.2446 l -0.381,-0.2032 c 0.0254,-0.4064 0.0762,-0.8128 0.1524,-1.1938 l 0.3556,0.1524 z m 1.7526,-1.3208 c -0.0762,0.4826 -0.127,1.0922 -0.1524,1.6002 -0.1016,-0.0508 -0.2286,-0.1016 -0.3556,-0.1524 0.0254,-0.508 0.0762,-1.1176 0.1524,-1.5748 0.127,0.0254 0.2286,0.0762 0.3556,0.127 z m -0.635,-0.254 c -0.0762,0.4826 -0.127,1.0922 -0.1524,1.5748 -0.127,-0.0508 -0.2286,-0.1016 -0.3556,-0.1778 0.0254,-0.4572 0.0762,-1.0414 0.1524,-1.524 l 0.3556,0.127 z m -0.635,-0.2286 c -0.0762,0.4826 -0.127,1.0414 -0.1524,1.4986 l -0.381,-0.1524 c 0.0508,-0.4826 0.0762,-1.016 0.1778,-1.4732 l 0.3556,0.127 z m -0.635,-0.2286 c -0.1016,0.4572 -0.1524,0.9652 -0.1778,1.4478 l -0.3556,-0.1778 c 0.0254,-0.4572 0.0762,-0.9652 0.1778,-1.4224 l 0.3556,0.1524 z m -3.8862,-1.27 c -0.0762,0.4064 -0.127,0.8128 -0.1778,1.2192 -0.127,-0.0508 -0.254,-0.0762 -0.3556,-0.1016 0.0254,-0.4064 0.0762,-0.8128 0.1524,-1.1938 0.127,0.0254 0.254,0.0508 0.381,0.0762 z m 0.6604,0.1778 c -0.0762,0.381 -0.1524,0.7874 -0.1778,1.2192 -0.127,-0.0508 -0.254,-0.0762 -0.381,-0.1016 0.0508,-0.4064 0.1016,-0.8128 0.1778,-1.2192 0.127,0.0254 0.254,0.0508 0.381,0.1016 z m 3.2766,-0.7874 c -0.1016,0.4826 -0.1778,0.9652 -0.2286,1.4478 l -0.381,-0.127 c 0.0762,-0.4826 0.1524,-0.9652 0.254,-1.4224 0.1016,0.0254 0.2286,0.0762 0.3556,0.1016 z m -0.6604,-0.2032 c -0.1016,0.4572 -0.1778,0.9398 -0.2286,1.397 -0.127,-0.0508 -0.254,-0.0762 -0.381,-0.127 0.0508,-0.4572 0.127,-0.9144 0.2286,-1.3716 0.127,0.0254 0.254,0.0762 0.381,0.1016 z m -0.6604,-0.2032 c -0.1016,0.4572 -0.2032,0.9144 -0.254,1.3716 -0.127,-0.0508 -0.2286,-0.0762 -0.3556,-0.127 0.0508,-0.4572 0.127,-0.9144 0.2286,-1.3462 l 0.381,0.1016 z m -0.6858,-0.2032 c -0.1016,0.4318 -0.1778,0.889 -0.2286,1.3462 -0.127,-0.0254 -0.254,-0.0762 -0.381,-0.1016 0.0508,-0.4572 0.1524,-0.9144 0.254,-1.3716 l 0.3556,0.127 z m -0.6604,-0.2032 c -0.1016,0.4318 -0.2032,0.889 -0.254,1.3462 -0.127,-0.0254 -0.254,-0.0508 -0.3556,-0.1016 0.0508,-0.4572 0.127,-0.9144 0.254,-1.3716 0.1016,0.0254 0.2286,0.0762 0.3556,0.127 z m -0.6604,-0.2286 c -0.127,0.4826 -0.2032,0.9398 -0.254,1.4224 -0.127,-0.0508 -0.254,-0.0762 -0.381,-0.0762 0.0508,-0.4826 0.1524,-0.9652 0.254,-1.4478 0.127,0.0508 0.254,0.0762 0.381,0.1016 z m -0.6604,-0.1778 c -0.1524,0.4826 -0.2286,0.9652 -0.2794,1.4478 -0.127,0 -0.254,-0.0254 -0.381,-0.0508 0.0508,-0.508 0.1524,-0.9906 0.2794,-1.4986 0.127,0.0508 0.254,0.0762 0.381,0.1016 z m -0.6858,-0.1524 c -0.1524,0.508 -0.2286,1.016 -0.2794,1.524 -0.127,0 -0.254,0 -0.381,0 0.0254,-0.5334 0.127,-1.0668 0.2794,-1.6002 0.127,0.0254 0.254,0.0508 0.381,0.0762 z m 3.3274,2.7686 c -0.0762,0.4318 -0.127,0.889 -0.1778,1.3462 -0.1016,-0.0508 -0.2286,-0.127 -0.3556,-0.1524 0.0508,-0.4572 0.1016,-0.889 0.1778,-1.3208 0.127,0.0508 0.254,0.0762 0.3556,0.127 z m -0.635,-0.2286 c -0.0762,0.4318 -0.1524,0.8636 -0.1778,1.2954 -0.127,-0.0508 -0.254,-0.1016 -0.3556,-0.1524 0.0254,-0.4064 0.0762,-0.8382 0.1778,-1.2446 0.127,0.0254 0.2286,0.0762 0.3556,0.1016 z m -0.635,-0.2032 c -0.1016,0.4064 -0.1524,0.8382 -0.2032,1.2446 -0.1016,-0.0508 -0.2286,-0.0762 -0.3556,-0.127 0.0508,-0.4064 0.1016,-0.8128 0.1778,-1.2192 0.127,0.0254 0.254,0.0762 0.381,0.1016 z m 5.334,-0.381 c -0.1016,0.6096 -0.2032,1.1938 -0.2794,1.8034 -0.1016,-0.0254 -0.2286,-0.0762 -0.3556,-0.1016 0.0762,-0.5842 0.1524,-1.1684 0.254,-1.7526 0.127,0.0254 0.254,0.0254 0.381,0.0508 z m -0.6858,-0.1016 c -0.1016,0.5588 -0.1778,1.1176 -0.254,1.7018 -0.127,-0.0508 -0.254,-0.1016 -0.381,-0.1524 0.0762,-0.5334 0.1524,-1.0668 0.254,-1.6002 0.127,0.0254 0.254,0.0254 0.381,0.0508 z m -0.6858,-0.127 c -0.1016,0.5334 -0.1778,1.0414 -0.2286,1.5748 -0.127,-0.0508 -0.254,-0.0762 -0.381,-0.127 0.0508,-0.508 0.1524,-1.016 0.254,-1.524 0.1016,0.0254 0.2286,0.0508 0.3556,0.0762 z m -0.6604,-0.1778 c -0.1016,0.508 -0.1778,1.016 -0.254,1.524 l -0.3556,-0.1524 c 0.0508,-0.4826 0.127,-0.9652 0.2286,-1.4478 0.127,0.0254 0.254,0.0508 0.381,0.0762 z m -3.1496,2.6162 c -0.0762,0.381 -0.127,0.889 -0.1778,1.27 l -0.3556,-0.1016 c 0.0508,-0.4318 0.1016,-0.889 0.1778,-1.2954 0.127,0.0508 0.254,0.1016 0.3556,0.127 z m -0.635,-0.2286 c -0.1016,0.3556 -0.1524,0.9144 -0.1778,1.2954 -0.127,-0.0508 -0.254,-0.0762 -0.381,-0.127 0.0508,-0.3556 0.1016,-0.9144 0.1778,-1.2954 0.127,0.0508 0.254,0.0762 0.381,0.127 z m 2.3876,-0.9398 c -0.0762,0.4572 -0.127,0.9398 -0.1524,1.397 -0.127,-0.0508 -0.254,-0.1016 -0.3556,-0.1778 0.0254,-0.4318 0.0762,-0.889 0.1778,-1.3462 0.1016,0.0508 0.2286,0.1016 0.3302,0.127 z m 0.1778,2.0066 c -0.0762,0.381 -0.127,0.7874 -0.1524,1.1938 -0.127,-0.0508 -0.254,-0.127 -0.3556,-0.1778 0.0254,-0.4064 0.0762,-0.7874 0.1524,-1.1684 l 0.3556,0.1524 z m -0.635,-0.2794 c -0.0762,0.381 -0.127,0.762 -0.1778,1.143 -0.1016,-0.0508 -0.2286,-0.1016 -0.3556,-0.1524 0.0508,-0.4064 0.1016,-0.7874 0.1778,-1.1684 0.127,0.0762 0.2286,0.127 0.3556,0.1778 z m -0.635,-0.2794 c -0.1016,0.3556 -0.1524,0.7874 -0.1778,1.1684 l -0.3556,-0.127 c 0.0254,-0.381 0.0762,-0.8382 0.1778,-1.1938 0.1016,0.0508 0.2286,0.1016 0.3556,0.1524 z"
   id="path36"
   style="fill:#ffffff" /><path
   d="m 19.2786,7.636933 0.6858,0.0254 0.6858,-1.8034 0.6604,1.8288 0.6604,0 -0.9652,-2.7178 -0.6858,-0.0254 -1.0414,2.6924 z m 4.5212,-0.1778 1.3208,0.254 -0.1016,0.5334 -1.9558,-0.381 0.5334,-2.6416 1.9304,0.381 -0.1016,0.5334 -1.3208,-0.254 -0.1016,0.508 1.3208,0.254 -0.1016,0.5588 -1.3208,-0.2794 -0.1016,0.5334 z m 3.5814,-1.4224 0.5842,0.2286 -0.381,0.889 0.9144,0.381 0.381,-0.889 0.5842,0.254 -1.0668,2.4892 -0.5588,-0.2286 0.4318,-1.0414 -0.9144,-0.381 -0.4318,1.0414 -0.5842,-0.254 1.0414,-2.4892 z m 5.0292,2.6162 0.5334,0.3302 -1.4478,2.286 -0.5334,-0.3302 0.8128,-1.2954 -1.651,0.762 -0.5334,-0.3556 1.4732,-2.286 0.508,0.3556 -0.8128,1.2954 1.651,-0.762 z m 2.1082,1.9304 0.4318,0.4318 -0.6858,0.6858 0.7112,0.6858 0.6604,-0.6604 0.4572,0.4572 -1.9558,1.905 -0.4318,-0.4572 0.8128,-0.7874 -0.6858,-0.7112 -0.8128,0.7874 -0.4318,-0.4572 1.9304,-1.8796 z"
   id="path38"
   style="fill:#ffffff" /><path
   d="m 14.7574,0.397933 c 0.4572,0 0.8128,0.3556 0.8128,0.8128 0,0.0762 -0.0254,0.1524 -0.0508,0.2286 l -0.762,0.2286 c 0.127,-0.1016 0.2032,-0.254 0.2032,-0.4318 0,-0.3048 -0.2286,-0.5334 -0.5334,-0.5334 -0.1524,0 -0.2794,0.0508 -0.381,0.127 0.127,-0.254 0.4064,-0.4318 0.7112,-0.4318 z"
   id="path40"
   style="fill:#ffdd55" /><path
   d="m 13.6398,5.198533 c -0.0254,-0.4826 0.1524,-1.0414 0.9652,-1.7526 l 0.2032,0.7366 c -0.2794,0.762 -0.6858,0.9652 -1.1684,1.016 z m 1.0414,2.8702 1.0668,-0.8382 0.0762,0.254 -0.7366,0.4064 -0.4064,0.1778 z m -0.7112,-0.254 c 0.4826,-0.4572 1.016,-0.889 1.5494,-1.27 l 0.0762,0.2286 c -0.4826,0.381 -0.9652,0.762 -1.4732,1.1938 L 13.97,7.814733 z m 1.9304,1.1684 0.3048,-0.1778 0.0762,0.2032 -0.5334,0.2286 0.1524,-0.254 z m 0.6604,0.9652 c -0.762,0.2794 -1.6002,0.5842 -2.413,0.9652 0.6096,-0.508 1.4478,-0.9398 2.3368,-1.2192 l 0.0762,0.254 z m -2.3114,-4.318 c 0.1778,-0.3302 0.4318,-0.6096 0.762,-0.7874 l 0.254,0.8382 c -0.381,0.1016 -0.7112,0.0762 -1.016,-0.0508 z m -1.143,-0.9398 c -1.4478,1.0922 -1.651,1.7526 -1.4732,2.3368 0.6096,-0.254 1.2446,-0.4826 1.4732,-2.3368 z m 1.6764,1.27 c -1.524,0.0508 -1.8796,0.508 -2.0574,1.016 0.6604,0.0508 1.2446,0.127 2.0574,-1.016 z m 0.9144,1.9812 c -1.2446,0.3302 -2.032,0.889 -2.159,1.651 0.9144,0.0254 1.5494,-0.3302 2.159,-1.651 z m -1.27,1.8796 c -1.1684,0.3048 -2.1082,0.127 -2.6416,1.4986 1.3716,0.1016 2.032,-0.8382 2.6416,-1.4986 z m -4.7751995,-1.6764 c -0.3302,0.3556 -0.6096,0.6604 -0.8636,1.0668 l -0.1524,-0.0762 c 0.1778,-0.4064 0.5588,-1.016 0.8636,-1.3462 l 0.1524,0.3556 z M 11.43,9.084733 c -0.1778,0.0762 -0.6858,0.4318 -0.8382,0.5588 l -0.254,0.0508 c 0.2286,-0.2794 0.4318,-0.508 0.6858,-0.7366 l 0.4064,0.127 z m -0.1016,-2.8702 c -1.3461995,0.9652 -1.2192,1.4986 -1.27,2.0574 0.5842,-0.1778 1.143,-0.508 1.27,-2.0574 z m 1.7018,0.9398 c -1.5748,0.4064 -2.0828,0.9652 -2.1082,1.6002 0.635,0 1.27,-0.0254 2.1082,-1.6002 z m 0.6096,0.5842 c -0.6096,0.508 -1.6764,1.3208 -1.524,2.3876 1.3462,-0.2794 1.4732,-1.7018 1.524,-2.3876 z m -7.1627995,2.9972 c -0.5334,-0.9398 -0.127,-1.778 0.5334,-2.6162 0.1524,1.016 0.2032,2.0066 -0.5334,2.6162 z m 1.9304,-2.8194 c -0.7112,0.5842 -1.1684,1.2954 -1.0414,2.1082 0.8382,-0.1524 1.016,-1.0668 1.0414,-2.1082 z m 3.3527995,1.4986 c -0.762,0.5842 -1.8033995,1.3716 -1.397,2.54 1.0922,-0.4318 1.3208,-1.651 1.397,-2.54 z m 1.016,2.0828 c -0.889,0.0762 -2.413,0.5334 -2.6416,1.5748 1.1176,0.0508 2.1336,-0.7366 2.6416,-1.5748 z m -1.778,1.8542 c -0.8382,0.2794 -1.9557995,0.5334 -2.1335995,1.7272 1.0668,0.0508 1.8033995,-1.0414 2.1335995,-1.7272 z m -0.9906,-2.5654 c -0.7365995,0.9652 -1.3207995,1.9812 -0.9143995,2.921 0.9905995,-0.762 0.9651995,-1.0922 0.9143995,-2.921 z m -5.1307995,3.4798 c -0.6604005,-0.5588 -0.5588005,-1.4986 -0.0508,-2.667 0.4064,0.9144 0.7874,1.8288 0.0508,2.667 z m 0.7874,-1.6002 c -0.5588,-0.7366 -0.3556,-1.7272 0.127,-2.794 0.4572,1.1176 0.5842,2.1336 -0.127,2.794 z m 0.635,-0.4064 c -0.0762,-0.7874 0.4064,-1.4986 1.778,-2.032 -0.3556,1.1684 -0.9144,1.9304 -1.778,2.032 z m 1.0414,-0.0762 c -1.4732,0.635 -1.8034,1.27 -1.778,2.0574 0.8382,-0.1524 1.27,-0.5334 1.778,-2.0574 z m 2.2606,2.9718 c -0.635,0.2286 -1.6002,0.9652 -1.8288,1.8288 l 0.889,0.127 c 0.5842,-0.4572 0.8128,-1.4478 0.9398,-1.9558 z m -2.3368,1.7272 c 0.3048,-0.4826 0.2794,-1.4224 0.0254,-2.2098 -0.4318,0.7366 -0.7366,1.2954 -0.7366,2.0828 l 0.7112,0.127 z m 0.9398,-1.1938 c 0.889,-1.1684 0.5588,-2.032 0.254,-3.3274 -0.4572,0.9398 -1.0414,2.3368 -0.254,3.3274 z m -1.4478,-1.1176 c 1.016,-2.286 2.1336,-4.2926 3.7083995,-6.223 l 0.2794,0.2032 c -1.5493995,1.9304 -2.7939995,3.8354 -3.8099995,6.096 l -0.1778,-0.0762 z m -3.9624005,7.1374 2.2606005,-1.1176 2.2606,1.0922 -0.3556,-2.4892 1.7272,-1.8034 -2.4638,-0.4318 -1.1938,-2.2098 -1.1684005,2.2098 -2.4892,0.4572 1.7526,1.8034 -0.3302,2.4892 z m 1.1684,-5.207 0.2794,-1.9812 -0.3556,-0.1778 -0.2794,2.3368 0.3556,-0.1778 z m 0.8636005,-1.8288 -0.2794,-0.0508 -0.0762,0.6604 0.3556,-0.6096 z m -2.0828005,8.6614 -0.1778,0.0508 c -0.5588,-1.8796 -0.889,-3.556 -1.143,-5.5118 l 0.4064,0.4318 c 0.2286,1.7272 0.4318,3.302 0.9144,5.0292 z m -0.0762,-2.159 c -0.1778,-0.8128 -0.3302,-1.651 -0.4826,-2.4892 l 0.4064,0.4064 c 0.0508,0.4064 0.127,0.8128 0.1778,1.2192 l -0.1016,0.8636 z m 2.3876005,0.0254 c 0.3048,2.1082 0.7112,4.2418 1.6002,6.1214 l -0.1778,0.1016 c -0.9144,-1.9558 -1.4224,-3.8862 -1.7526,-6.0452 l 0.3302,-0.1778 z m 2.4384,6.7564 -0.1778,0.0762 c -0.9906,-2.1336 -1.5494,-4.3688 -1.7526,-6.7056 l 0.381,0.1778 c 0.2032,2.2606 0.5842,4.3688 1.5494,6.4516 z m 0.254,-0.8128 -0.1778,0.0508 c -0.635,-1.7526 -0.9906,-3.556 -1.0922,-5.4356 l 0.3556,0.1778 c 0.1016,1.7526 0.3302,3.556 0.9144,5.207 z m 0.6604,0.2032 -0.1778,0.0762 c -0.5842,-1.7526 -0.9906,-3.4544 -1.0414,-5.3086 l 0.3556,0.1778 c 0.0762,1.778 0.3048,3.3782 0.8636,5.0546 z m -1.3462,4.0894 c -0.6858,0.127 -1.4478,-0.2032 -2.3622,-1.7018 1.4224,0.254 2.1844,0.8382 2.3622,1.7018 z m -0.127,-1.143 c -0.7112,-0.4064 -1.2192,-1.016 -0.8382,-2.5908 1.2192,1.4732 0.9398,1.9558 0.8382,2.5908 z m -1.2446,-0.9652 c -0.8382,0.0508 -1.5748005,-0.3556 -2.0828005,-1.778 1.5240005,0.4318 2.0320005,1.0668 2.0828005,1.778 z m -0.1778,-1.143 c -0.635,-0.3302 -0.8128,-1.0922 -0.381,-2.4638 0.7874,1.2446 0.7874,1.9812 0.381,2.4638 z m -1.1176,-0.9906 C 3.6322,27.296533 2.9718,26.686933 2.3876,25.416933 c 1.6002,0.6096 1.9304,1.1938 2.0066005,1.778 z m 0.0508,-0.6858 C 3.7084,25.848733 3.6322,24.934333 4.2418,23.715133 c 0.5334005,1.1684 0.6350005,2.1082 0.2032005,2.794 z M 3.6068,24.248533 c 0.3048,-0.7112 0,-1.3462 -0.5334,-1.9304 -0.1524,0.9906 0.0254,1.6256 0.5334,1.9304 z m -0.2032,1.0668 c -0.9144,-0.1016 -1.4732,-0.762 -1.651,-2.159 1.1684,0.635 1.778,1.3462 1.651,2.159 z m 14.0462,13.4874 -0.3556,0.1524 c -4.2164,-1.3716 -7.3913995,-3.429 -9.7789995,-7.2136 l -0.1524,-0.7366 c 2.4638,4.1656 5.7149995,6.35 10.2869995,7.7978 z m -1.143,1.016 c -0.6096,0.1016 -1.1684,-0.2794 -1.7018,-1.3208 1.1684,0.254 1.6764,0.6858 1.7018,1.3208 z m -2.0828,-0.1524 c -0.8128,0.4064 -1.7018,0.3556 -2.7686,-0.4826 1.4224,-0.4064 2.286,-0.127 2.7686,0.4826 z m -1.8796,-1.1176 c -0.381,0.5334 -1.397,0.1778 -2.5145995,-0.3302 1.0413995,-0.3048 1.9811995,-0.4064 2.5145995,0.3302 z m 2.1336,0.635 c -0.635,0.0762 -1.27,-0.3302 -1.778,-1.7018 0.8382,0.3048 1.651,0.6096 1.778,1.7018 z m -1.9304,-1.0922 c -0.6858,-0.1016 -1.3208,-0.4064 -1.7526,-1.778 1.1176,0.4572 1.7018,1.0414 1.7526,1.778 z m -1.8796,-1.1938 c -0.8635995,-0.1778 -1.5493995,-0.7112 -1.7779995,-2.1336 1.0668,0.5842 1.7271995,1.2954 1.7779995,2.1336 z m 0,0.6096 c -0.635,0.508 -1.5493995,0.1016 -2.5653995,-0.7112 1.2954,-0.127 2.3367995,-0.0254 2.5653995,0.7112 z m -2.1081995,-1.397 c -0.6096,0.3302 -1.397,0.0762 -2.3114,-1.016 1.27,-0.0254 2.1082,0.254 2.3114,1.016 z m 0.0762,-0.6604 c -0.5334,-0.254 -1.0668,-0.5334 -1.1684,-2.4384 1.0414,0.9144 1.397,1.7272 1.1684,2.4384 z m -1.27,-0.8636 c -0.8382,0.0508 -1.397,-0.6858 -1.7018,-2.0574 1.143,0.6604 1.8542,1.3462 1.7018,2.0574 z m 3.6067995,-2.8956 c -0.2032,1.4732 0.254,2.032 1.0414,2.2352 0.1524,-0.7112 -0.2032,-1.4224 -1.0414,-2.2352 z m 5.1054,5.2578 c -0.7874,0.4318 -1.6764,0.6096 -2.9464,-0.4318 1.5748,-0.3302 2.4638,-0.1016 2.9464,0.4318 z m 1.8034,1.1684 c -0.6096,0.4572 -1.4224,0.2794 -2.54,-0.6096 1.1176,-0.254 2.0574,-0.2032 2.54,0.6096 z m 0.6096,-0.762 c -1.0414,0.1524 -1.5748,-0.4318 -2.0574,-1.6256 1.5494,0.381 2.0574,0.9652 2.0574,1.6256 z m -2.2606,-0.9906 c -0.7874,0.127 -1.397,-0.3048 -2.0066,-1.8034 1.27,0.381 1.905,0.9144 2.0066,1.8034 z m -1.8288,-0.4064 c -0.5334,0.4064 -1.4224,0.2286 -2.6162,-0.5334 1.3462,-0.2032 2.3368,-0.1524 2.6162,0.5334 z m -0.254,-0.8128 c -0.889,-0.1016 -1.4986,-0.6858 -1.8288,-2.032 1.143,0.6096 1.778,1.27 1.8288,2.032 z m -1.4224,-0.3048 c -0.6858,0.4064 -1.524,0.3048 -2.7939995,-0.8636 1.7525995,0 2.5145995,0.2794 2.7939995,0.8636 z m -1.905,-1.397 c -0.6604,0.1778 -1.4223995,-0.0508 -2.4891995,-1.4732 1.6763995,0.127 2.3367995,0.6858 2.4891995,1.4732 z m -0.4318,-1.1938 c -0.6349995,-0.3048 -1.1429995,-0.762 -0.8635995,-2.5654 0.8889995,0.9398 1.3207995,1.8034 0.8635995,2.5654 z m -1.3461995,-0.4826 c -0.762,-0.1524 -1.4478,-0.5588 -1.6256,-2.2098 1.2954,0.762 1.7272,1.4986 1.6256,2.2098 z m 0.0762,-1.6002 c -0.5588,-0.2032 -1.1176,-0.381 -1.1684,-2.2352 1.0922,0.7874 1.397,1.524 1.1684,2.2352 z m 8.8645995,10.668 c -0.635,0.6858 -1.4732,0.6604 -2.4384,0.2794 1.016,-0.6096 1.8542,-0.7366 2.4384,-0.2794 z m 0.508,-0.5842 c -0.8128,0.2286 -1.4986,-0.1778 -2.1336,-0.9906 1.1176,-0.0508 1.905,0.2032 2.1336,0.9906 z m -2.3114,0.0762 c -0.6096,0.6604 -1.524,0.508 -2.5654,0 0.9398,-0.4826 1.8288,-0.6604 2.5654,0 z m -5.1308,-0.3048 0.254,-0.1016 0.4572,0.3048 -0.4826,0.2032 -0.2286,-0.4064 z m 2.0828,3.683 3.937,-1.6002 0,0.4826 -3.7084,1.4986 -0.2286,-0.381 z m -1.651,-2.9464 0.7874,-0.3048 0.5334,0.254 -1.0922,0.4318 -0.2286,-0.381 z m 0.4064,0.7366 1.3716,-0.5588 0.5842,0.254 -1.7272,0.6858 -0.2286,-0.381 z m 0.4064,0.7366 2.0574,-0.8382 0.6096,0.254 -2.4384,0.9652 -0.2286,-0.381 z m 0.4318,0.7366 2.7686,-1.1176 0.7112,0.1778 -3.2766,1.3208 -0.2032,-0.381 z m 19.431,-3.3782 -0.4318,-0.1778 0.5842,-0.254 -0.1524,0.4318 z m -1.6256,4.5466 -3.8608,-1.5494 0.508,-0.2794 3.5052,1.397 -0.1524,0.4318 z m 1.3716,-3.7846 -0.9652,-0.381 0.4064,-0.3302 0.7112,0.2794 -0.1524,0.4318 z m -0.2794,0.762 -1.6256,-0.6604 0.5588,-0.254 1.2192,0.4826 -0.1524,0.4318 z m -0.2794,0.7366 -2.4384,-0.9652 0.635,-0.2286 1.9558,0.7874 -0.1524,0.4064 z m -0.2794,0.762 -3.2258,-1.2954 0.635,-0.2286 2.7432,1.1176 -0.1524,0.4064 z m -0.254,0.762 -4.0894,-1.6256 0.6604,-0.2286 3.5814,1.4224 -0.1524,0.4318 z m 1.2446,-8.1534 c -1.651,1.4986 -3.6068,2.6162 -5.969,3.4544 l 0.1016,0.2286 c 2.4384,-0.8382 4.4704,-2.0066 6.1722,-3.5814 -0.1016,-0.0508 -0.2032,-0.0762 -0.3048,-0.1016 z m -1.6256,3.6322 c 0.4572,0.3302 1.6764,0 2.3114,-0.9398 -1.2446,-0.0254 -2.0066,0.254 -2.3114,0.9398 z m -2.032,0.2286 c 0.635,0 1.27,-0.3302 1.8288,-1.6002 -0.8636,0.3048 -1.651,0.5842 -1.8288,1.6002 z m 0.127,0.635 c 0.6858,0.508 1.4986,0.2032 2.3114,-0.4318 -0.9398,-0.1016 -1.778,-0.2032 -2.3114,0.4318 z m -2.032,0 c 0.7874,0.127 1.397,-0.254 1.778,-1.3208 -1.1938,0.3302 -1.778,0.7874 -1.778,1.3208 z m 0.127,0.7366 c 0.6096,0.5842 1.4224,0.2794 2.3114,-0.3048 -0.9144,-0.3048 -1.7272,-0.3302 -2.3114,0.3048 z m 0.0254,-3.5814 c 0.5842,0.0254 1.27,-0.6604 1.7272,-2.2098 -1.0668,0.5842 -1.8034,1.3716 -1.7272,2.2098 z m -1.7272,0.3556 c 0.9398,-0.0508 1.397,-0.6858 1.8288,-1.8542 -1.4478,0.5842 -1.8288,1.27 -1.8288,1.8542 z m 3.6322,-1.2192 c 0.889,-0.2794 1.4732,-1.27 1.4986,-2.6162 -1.0668,0.889 -1.7526,1.8796 -1.4986,2.6162 z m -2.9972,1.8796 c 0.4826,0.4064 1.1938,0.3048 2.1844,-0.4064 -0.9398,-0.254 -1.7526,-0.254 -2.1844,0.4064 z m 1.7526,-0.9144 c 0.5334,0.381 1.4986,0.4318 2.413,-0.3556 -1.0668,-0.4572 -2.0066,-0.254 -2.413,0.3556 z m 2.0828,-0.8382 c 0.6096,0.4064 1.2446,-0.1524 2.3876,-0.889 -1.4224,-0.2286 -2.3114,0.3302 -2.3876,0.889 z m 2.7432,1.27 c 0.5588,0.4826 1.2954,0.1524 2.2098,-0.6096 -1.143,-0.1016 -2.0066,-0.0254 -2.2098,0.6096 z m -1.8796,0.8382 c 0.6604,-0.1524 1.1938,-0.381 1.524,-1.778 -1.0922,0.5334 -1.524,1.0414 -1.524,1.778 z m 1.8288,-1.4732 c 0.508,-0.1778 0.9906,-0.4572 1.2954,-1.0414 -0.254,-0.127 -0.508,-0.2032 -0.762,-0.3048 -0.381,0.4064 -0.6096,0.8636 -0.5334,1.3462 z m 1.6002,-0.5842 c 0.2794,0.2286 0.635,0.254 1.0414,0.1016 -0.3048,-0.127 -0.6096,-0.254 -0.889,-0.381 -0.0762,0.0762 -0.127,0.1778 -0.1524,0.2794 z m 6.2738,-15.0622 c -0.1778,-0.635 0.3048,-1.27 0.6096,-1.9558 0.5842,1.016 0.127,1.6764 -0.6096,1.9558 z m -0.2286,1.905 c 0.7112,-0.0508 1.0668,-0.5588 1.27,-1.9558 -1.2446,0.889 -1.397,1.4478 -1.27,1.9558 z m -0.2794,2.0066 c 0.7112,-0.0254 1.1684,-0.5588 1.3716,-1.9812 -1.2446,0.7874 -1.524,1.3716 -1.3716,1.9812 z m -0.6096,2.286 c 0.7112,-0.0254 1.3462,-0.8128 1.3462,-2.0066 -1.2446,0.8636 -1.4732,1.4224 -1.3462,2.0066 z m -0.4064,1.9304 c 0.7112,-0.0254 1.0668,-0.5334 1.397,-1.8034 -1.2446,0.7874 -1.524,1.1938 -1.397,1.8034 z m -0.6096,1.4986 c 0.381,-0.1778 0.6604,-0.4318 0.8128,-1.143 -0.2286,0.1016 -0.4064,0.1778 -0.5842,0.254 l -0.2286,0.889 z m -7.7724,-1.4986 c -0.1524,0.508 -0.2286,1.016 -0.2794,1.524 -0.127,0 -0.254,0 -0.381,0 0.0254,-0.5334 0.127,-1.0668 0.2794,-1.6002 0.127,0.0254 0.254,0.0508 0.381,0.0762 z m 0.6858,0.1524 c -0.1524,0.4826 -0.2286,0.9652 -0.2794,1.4478 -0.127,0 -0.254,-0.0254 -0.381,-0.0508 0.0508,-0.508 0.1524,-0.9906 0.2794,-1.4986 0.127,0.0508 0.254,0.0762 0.381,0.1016 z m 0.6604,0.1778 c -0.127,0.4826 -0.2032,0.9398 -0.254,1.4224 -0.127,-0.0508 -0.254,-0.0762 -0.381,-0.0762 0.0508,-0.4826 0.1524,-0.9652 0.254,-1.4478 0.127,0.0508 0.254,0.0762 0.381,0.1016 z m 0.6604,0.2286 c -0.1016,0.4318 -0.2032,0.889 -0.254,1.3462 -0.127,-0.0254 -0.254,-0.0508 -0.3556,-0.1016 0.0508,-0.4572 0.127,-0.9144 0.254,-1.3716 0.1016,0.0254 0.2286,0.0762 0.3556,0.127 z m 0.6604,0.2032 c -0.1016,0.4318 -0.1778,0.889 -0.2286,1.3462 -0.127,-0.0254 -0.254,-0.0762 -0.381,-0.1016 0.0508,-0.4572 0.1524,-0.9144 0.254,-1.3716 l 0.3556,0.127 z m 0.6858,0.2032 c -0.1016,0.4572 -0.2032,0.9144 -0.254,1.3716 -0.127,-0.0508 -0.2286,-0.0762 -0.3556,-0.127 0.0508,-0.4572 0.127,-0.9144 0.2286,-1.3462 l 0.381,0.1016 z m 0.6604,0.2032 c -0.1016,0.4572 -0.1778,0.9398 -0.2286,1.397 -0.127,-0.0508 -0.254,-0.0762 -0.381,-0.127 0.0508,-0.4572 0.127,-0.9144 0.2286,-1.3716 0.127,0.0254 0.254,0.0762 0.381,0.1016 z m 0.6604,0.2032 c -0.1016,0.4826 -0.1778,0.9652 -0.2286,1.4478 l -0.381,-0.127 c 0.0762,-0.4826 0.1524,-0.9652 0.254,-1.4224 0.1016,0.0254 0.2286,0.0762 0.3556,0.1016 z m 0.6858,0.1778 c -0.1016,0.508 -0.1778,1.016 -0.254,1.524 l -0.3556,-0.1524 c 0.0508,-0.4826 0.127,-0.9652 0.2286,-1.4478 0.127,0.0254 0.254,0.0508 0.381,0.0762 z m 0.6604,0.1778 c -0.1016,0.5334 -0.1778,1.0414 -0.2286,1.5748 -0.127,-0.0508 -0.254,-0.0762 -0.381,-0.127 0.0508,-0.508 0.1524,-1.016 0.254,-1.524 0.1016,0.0254 0.2286,0.0508 0.3556,0.0762 z m 0.6858,0.127 c -0.1016,0.5588 -0.1778,1.1176 -0.254,1.7018 -0.127,-0.0508 -0.254,-0.1016 -0.381,-0.1524 0.0762,-0.5334 0.1524,-1.0668 0.254,-1.6002 0.127,0.0254 0.254,0.0254 0.381,0.0508 z m 0.6858,0.1016 c -0.1016,0.6096 -0.2032,1.1938 -0.2794,1.8034 -0.1016,-0.0254 -0.2286,-0.0762 -0.3556,-0.1016 0.0762,-0.5842 0.1524,-1.1684 0.254,-1.7526 0.127,0.0254 0.254,0.0254 0.381,0.0508 z m -5.9944,0.2032 c -0.0762,0.381 -0.1524,0.7874 -0.1778,1.2192 -0.127,-0.0508 -0.254,-0.0762 -0.381,-0.1016 0.0508,-0.4064 0.1016,-0.8128 0.1778,-1.2192 0.127,0.0254 0.254,0.0508 0.381,0.1016 z m 0.6604,0.1778 c -0.1016,0.4064 -0.1524,0.8382 -0.2032,1.2446 -0.1016,-0.0508 -0.2286,-0.0762 -0.3556,-0.127 0.0508,-0.4064 0.1016,-0.8128 0.1778,-1.2192 0.127,0.0254 0.254,0.0762 0.381,0.1016 z m 0.635,0.2032 c -0.0762,0.4318 -0.1524,0.8636 -0.1778,1.2954 -0.127,-0.0508 -0.254,-0.1016 -0.3556,-0.1524 0.0254,-0.4064 0.0762,-0.8382 0.1778,-1.2446 0.127,0.0254 0.2286,0.0762 0.3556,0.1016 z m 0.635,0.2286 c -0.0762,0.4318 -0.127,0.889 -0.1778,1.3462 -0.1016,-0.0508 -0.2286,-0.127 -0.3556,-0.1524 0.0508,-0.4572 0.1016,-0.889 0.1778,-1.3208 0.127,0.0508 0.254,0.0762 0.3556,0.127 z m 0.635,0.2286 c -0.0762,0.4572 -0.127,0.9398 -0.1524,1.397 -0.127,-0.0508 -0.254,-0.1016 -0.3556,-0.1778 0.0254,-0.4318 0.0762,-0.889 0.1778,-1.3462 0.1016,0.0508 0.2286,0.1016 0.3302,0.127 z m 0.6604,0.254 c -0.1016,0.4572 -0.1524,0.9652 -0.1778,1.4478 l -0.3556,-0.1778 c 0.0254,-0.4572 0.0762,-0.9652 0.1778,-1.4224 l 0.3556,0.1524 z m 0.635,0.2286 c -0.0762,0.4826 -0.127,1.0414 -0.1524,1.4986 l -0.381,-0.1524 c 0.0508,-0.4826 0.0762,-1.016 0.1778,-1.4732 l 0.3556,0.127 z m 0.635,0.2286 c -0.0762,0.4826 -0.127,1.0922 -0.1524,1.5748 -0.127,-0.0508 -0.2286,-0.1016 -0.3556,-0.1778 0.0254,-0.4572 0.0762,-1.0414 0.1524,-1.524 l 0.3556,0.127 z m 0.635,0.254 c -0.0762,0.4826 -0.127,1.0922 -0.1524,1.6002 -0.1016,-0.0508 -0.2286,-0.1016 -0.3556,-0.1524 0.0254,-0.508 0.0762,-1.1176 0.1524,-1.5748 0.127,0.0254 0.2286,0.0762 0.3556,0.127 z m -5.7912,-1.9812 c -0.0762,0.4064 -0.127,0.8128 -0.1778,1.2192 -0.127,-0.0508 -0.254,-0.0762 -0.3556,-0.1016 0.0254,-0.4064 0.0762,-0.8128 0.1524,-1.1938 0.127,0.0254 0.254,0.0508 0.381,0.0762 z m 0.8382,1.9558 c -0.1016,0.3556 -0.1524,0.9144 -0.1778,1.2954 -0.127,-0.0508 -0.254,-0.0762 -0.381,-0.127 0.0508,-0.3556 0.1016,-0.9144 0.1778,-1.2954 0.127,0.0508 0.254,0.0762 0.381,0.127 z m 0.635,0.2286 c -0.0762,0.381 -0.127,0.889 -0.1778,1.27 l -0.3556,-0.1016 c 0.0508,-0.4318 0.1016,-0.889 0.1778,-1.2954 0.127,0.0508 0.254,0.1016 0.3556,0.127 z m 0.6604,0.2794 c -0.1016,0.3556 -0.1524,0.7874 -0.1778,1.1684 l -0.3556,-0.127 c 0.0254,-0.381 0.0762,-0.8382 0.1778,-1.1938 0.1016,0.0508 0.2286,0.1016 0.3556,0.1524 z m 0.635,0.2794 c -0.0762,0.381 -0.127,0.762 -0.1778,1.143 -0.1016,-0.0508 -0.2286,-0.1016 -0.3556,-0.1524 0.0508,-0.4064 0.1016,-0.7874 0.1778,-1.1684 0.127,0.0762 0.2286,0.127 0.3556,0.1778 z m 0.635,0.2794 c -0.0762,0.381 -0.127,0.7874 -0.1524,1.1938 -0.127,-0.0508 -0.254,-0.127 -0.3556,-0.1778 0.0254,-0.4064 0.0762,-0.7874 0.1524,-1.1684 l 0.3556,0.1524 z m 0.635,0.2794 c -0.0762,0.4064 -0.1016,0.8128 -0.127,1.2446 l -0.381,-0.2032 c 0.0254,-0.4064 0.0762,-0.8128 0.1524,-1.1938 l 0.3556,0.1524 z m 0.635,0.2794 c -0.0762,0.4318 -0.1016,0.8636 -0.127,1.27 l -0.3556,-0.1778 c 0.0254,-0.4064 0.0508,-0.8382 0.127,-1.2446 l 0.3556,0.1524 z m -4.5466,-1.8034 c -0.0762,0.381 -0.1524,0.9144 -0.1778,1.2954 -0.127,-0.0254 -0.254,-0.0762 -0.381,-0.1016 0.0508,-0.381 0.1016,-0.9398 0.1778,-1.2954 0.127,0.0254 0.254,0.0762 0.381,0.1016 z m -1.4478,-4.191 c 0.6604,-1.9304 1.9558,-3.5052 3.4036,-5.6134 2.0574,-2.9464 4.445,-6.5024 5.3594,-9.6774 -0.762,-3.2258 -2.1082,-6.7818 -5.6642,-7.8486 -1.5748,-0.508 -2.9972,-1.3208 -4.318,-2.2098 -1.9304,-1.2954 -4.1402,-1.905 -6.4262,-1.3716 -1.9304,0.4318 -3.937,0.254 -5.842,-0.1778 l -0.9398,0.3048 2.8194,9.1948 c -0.1778,0.0508 -0.3302,0.1016 -0.4826,0.1524 l -2.8956,-9.5504 1.4986,-0.4572 c 1.8796,0.4318 3.8608,0.6096 5.7658,0.1778 2.4384,-0.5588 4.6482,0.0508 6.7056,1.4478 1.3208,0.889 2.7432,1.7018 4.2926,2.159 3.3782,1.016 5.1562,4.7498 5.9436,7.9248 0.6858,2.7686 0.8382,5.5626 0.5842,8.4328 -0.254,2.8956 -1.1938,6.1976 -1.7526,9.144 -1.3716,-0.1016 -3.0734,-0.635 -4.6736,-1.143 -1.2954,-0.4064 -2.54,-0.7874 -3.3782,-0.889 z m -3.9624,14.4526 c -0.2794,0.3556 -0.8636,0.4318 -1.2192,0.127 l -4.4196,-4.0386 -0.508,0.6096 -1.4478,-1.1938 1.4986,-1.8034 1.397,-0.0254 0.6096,0.5334 -0.8128,0.9652 4.8006,3.5814 c 0.3302,0.3556 0.4572,0.8128 0.1016,1.2446 z"
   id="path42"
   style="fill:#ffcc00" /><path
   d="m 77.973,101.635 0.3048,2.082 -1.905,-0.914 -1.905,0.94 0.2794,-2.108 -1.4732,-1.524 2.0828,-0.3815 0.9906,-1.8542 1.016,1.8542 2.0828,0.3815 z"
   transform="translate(-71.3182,-82.516767)"
   id="polygon44"
   style="fill:#aa0000" /><path
   d="m 37.0078,30.446233 c 0.5842,-2.921 1.4986,-5.842 1.7526,-8.7884 0.2286,-2.3876 0.127,-4.8006 -0.3048,-7.1374 -1.1684,3.2258 -3.2258,6.1722 -5.1562,8.9662 -1.1684,1.6764 -2.4384,3.2766 -3.2004,5.1054 1.905,0.381 4.7498,1.524 6.9088,1.8542 z"
   id="path46"
   style="fill:#aa0000" /><path
   d="m 25.2476,42.206233 c 0.254,0.2286 0.3048,0.635 0.0762,0.889 -0.2286,0.2794 -0.6096,0.3048 -0.889,0.1016 -1.3462,-1.143 -2.8956,-2.7686 -4.4196,-4.0386 l 0.4318,-0.508 c 1.524,1.2192 3.429,2.4384 4.8006,3.556 z m -6.985,-3.4544 1.0414,0.8636 1.7526,-2.1082 -0.3556,-0.3048 -1.1684,0.0254 -1.27,1.524 z"
   id="path48"
   style="fill:#aa0000" /><path
   d="m 25.019,40.606233 c -0.381,1.397 -1.7272,2.3876 -3.2004,2.286 -0.6096,-0.0254 -1.1938,-0.2286 -1.7272,-0.6096 -0.127,-0.1016 -0.254,-0.2286 -0.381,-0.3302 -0.1016,0.127 -0.1524,0.254 -0.2032,0.381 -0.127,0.2286 -0.2286,0.4572 -0.4318,0.5842 -0.3302,0.2286 -0.7874,0.2032 -1.0922,-0.0508 -0.3556,-0.3302 -0.381,-0.9144 -0.0508,-1.27 0.2032,-0.2032 0.4572,-0.3048 0.635,-0.508 0.127,-0.1524 0.2286,-0.3302 0.3048,-0.508 l 0.9144,-0.1016 c 0.1778,0.254 0.4318,0.4572 0.6604,0.635 0.4064,0.2794 0.9144,0.4064 1.3716,0.3556 0.7874,-0.0762 1.4478,-0.6096 1.7272,-1.3208 0.2794,-0.8382 -0.0254,-1.778 -0.7112,-2.3114 -0.5334,-0.4064 -1.1938,-0.508 -1.8288,-0.6604 0.762,-0.4572 1.5748,-0.5588 2.3368,-0.2286 1.397,0.5842 2.0574,2.2606 1.6764,3.6576 z"
   id="path50"
   style="fill:#ffffff" /><path
   d="m 25.019,40.606233 c -0.381,1.397 -1.7272,2.3876 -3.2004,2.286 -0.6096,-0.0254 -1.1938,-0.2286 -1.7272,-0.6096 -0.127,-0.1016 -0.254,-0.2286 -0.381,-0.3302 -0.1016,0.127 -0.1524,0.254 -0.2032,0.381 -0.127,0.2286 -0.2286,0.4572 -0.4318,0.5842 -0.3302,0.2286 -0.7874,0.2032 -1.0922,-0.0508 -0.3556,-0.3302 -0.381,-0.9144 -0.0508,-1.27 0.2032,-0.2032 0.4572,-0.3048 0.635,-0.508 0.127,-0.1524 0.2286,-0.3302 0.3048,-0.508 l 0.9144,-0.1016 c 0.1778,0.254 0.4318,0.4572 0.6604,0.635 0.4064,0.2794 0.9144,0.4064 1.3716,0.3556 0.7874,-0.0762 1.4478,-0.6096 1.7272,-1.3208 0.2794,-0.8382 -0.0254,-1.778 -0.7112,-2.3114 -0.5334,-0.4064 -1.1938,-0.508 -1.8288,-0.6604 0.762,-0.4572 1.5748,-0.5588 2.3368,-0.2286 1.397,0.5842 2.0574,2.2606 1.6764,3.6576 z"
   id="path52"
   style="fill:#ffcc00" /><path
   d="m 23.8252,37.532233 c 1.2446,1.016 1.4224,2.8448 0.4064,4.064 -1.016,1.2446 -2.8448,1.4224 -4.0894,0.4064 -0.127,-0.127 -0.2794,-0.254 -0.4318,-0.381 -0.127,0.1016 -0.2032,0.1778 -0.254,0.2794 -0.1524,0.2032 -0.2286,0.508 -0.4064,0.7112 -0.2032,0.254 -0.6096,0.3048 -0.8636,0.0762 -0.2794,-0.2286 -0.3048,-0.6096 -0.1016,-0.889 0.1778,-0.1778 0.4318,-0.3048 0.635,-0.508 0.1016,-0.1016 0.2032,-0.254 0.3302,-0.4826 l 0.635,-0.0508 c 0.127,0.1778 0.3556,0.3302 0.508,0.4572 0.9652,0.7874 2.3876,0.6604 3.2004,-0.3048 0.7874,-0.9652 0.6604,-2.3876 -0.3048,-3.2004 -0.381,-0.2794 -0.8636,-0.508 -1.3716,-0.6096 0.7112,-0.2286 1.4478,-0.127 2.1082,0.4318 z"
   id="path54"
   style="fill:#aa0000" /><path
   d="m 19.2786,7.636933 0.6858,0.0254 0.6858,-1.8034 0.6604,1.8288 0.6604,0 -0.9652,-2.7178 -0.6858,-0.0254 -1.0414,2.6924 z m 4.5212,-0.1778 1.3208,0.254 -0.1016,0.5334 -1.9558,-0.381 0.5334,-2.6416 1.9304,0.381 -0.1016,0.5334 -1.3208,-0.254 -0.1016,0.508 1.3208,0.254 -0.1016,0.5588 -1.3208,-0.2794 -0.1016,0.5334 z m 3.5814,-1.4224 0.5842,0.2286 -0.381,0.889 0.9144,0.381 0.381,-0.889 0.5842,0.254 -1.0668,2.4892 -0.5588,-0.2286 0.4318,-1.0414 -0.9144,-0.381 -0.4318,1.0414 -0.5842,-0.254 1.0414,-2.4892 z m 5.0292,2.6162 0.5334,0.3302 -1.4478,2.286 -0.5334,-0.3302 0.8128,-1.2954 -1.651,0.762 -0.5334,-0.3556 1.4732,-2.286 0.508,0.3556 -0.8128,1.2954 1.651,-0.762 z m 2.1082,1.9304 0.4318,0.4318 -0.6858,0.6858 0.7112,0.6858 0.6604,-0.6604 0.4572,0.4572 -1.9558,1.905 -0.4318,-0.4572 0.8128,-0.7874 -0.6858,-0.7112 -0.8128,0.7874 -0.4318,-0.4572 1.9304,-1.8796 z"
   id="path56"
   style="fill:#ffffff" />
</svg>